<svg width="113" height="106" fill="none" xmlns="http://www.w3.org/2000/svg"><path fill-rule="evenodd" clip-rule="evenodd" d="M109.989 12.765V38.51c0 .562-.337 1.012-.787 1.236l-23.497 9.557h-.037a1.23 1.23 0 01-.525.113c-.102 0-.296 0-.415-.083a.991.991 0 01-.204-.098l-23.328-9.488c-.45-.224-.787-.674-.787-1.236V12.315c0-.45.225-.787.562-1.124a1.35 1.35 0 01.65-.232l23.184-8.875c.338-.112.675-.112.9 0l23.478 8.987.044.016c.658.236.984 1.011.762 1.678zm-44.666-.42l19.875 8.084 19.992-8.131L85.143 4.67l-19.82 7.675zm18.583 33.797V22.678l-20.911-8.451V37.61l20.911 8.531zm2.586-.1V22.658l20.911-8.432v23.272l-20.911 8.544zM27.256 103.32c-.15.07-.322.108-.506.111h-.029c-.103 0-.285-.004-.4-.082a.942.942 0 01-.21-.101L2.788 93.761c-.45-.225-.787-.674-.787-1.237V66.33c0-.45.225-.787.562-1.124.19-.126.413-.217.653-.233L26.397 56.1c.337-.112.674-.112.899 0l23.478 8.987.045.016c.657.236.983 1.011.761 1.677v25.746c0 .562-.337 1.011-.787 1.236l-23.497 9.556a.507.507 0 00-.04.002zm-.522-44.634L6.915 66.36l19.875 8.083 19.991-8.13-20.047-7.628zM25.497 76.69v23.465l-20.911-8.53V68.24l20.911 8.451zm2.586 23.366V76.672l20.911-8.432v23.273l-20.911 8.544zm43.414-.37c-2.744 0-4.656-.333-4.823-.416-.499-.083-.831-.582-.748-1.164.083-.499.582-.832 1.164-.748l.058.008h.001c.902.138 11.832 1.815 20.147-4.582 5.821-4.49 9.147-11.808 9.896-21.87 0-.498.499-.914.997-.914.5 0 .915.499.915.998-.748 10.644-4.324 18.46-10.644 23.283-5.82 4.49-12.556 5.405-16.963 5.405zm30.268-27.775c.166.166.499.333.748.333.25 0 .416-.083.749-.25.416-.332.499-.914.166-1.33l-3.825-4.906c-.166-.166-.416-.333-.665-.333-.25-.083-.582 0-.749.166l-4.906 3.826c-.415.332-.499.914-.166 1.33.333.416.915.499 1.33.166l4.158-3.16 3.16 4.158zM13.698 43.598c-.582 0-.998-.499-.998-.998.748-10.643 4.324-18.46 10.643-23.283 9.249-7.038 20.832-5.055 21.672-4.911l.032.005c.499.084.831.582.748 1.165-.083.498-.582.831-1.164.748l-.06-.009c-.901-.138-11.83-1.814-20.146 4.582-5.821 4.49-9.147 11.808-9.896 21.87.083.416-.332.831-.831.831zm-.749 4.657h.083c.159 0 .283-.034.375-.058a.559.559 0 01.124-.025l4.906-3.825c.416-.333.5-.915.167-1.33-.333-.417-.915-.5-1.33-.167l-4.158 3.16-3.16-4.158c-.333-.416-.915-.499-1.33-.166-.416.332-.5.914-.167 1.33l3.825 4.906c.166.167.416.333.665.333z" fill="#111"/><path d="M109.989 12.765l-1.716-1.027-.284.474v.553h2zm-.787 26.981l.753 1.853.072-.029.069-.035-.894-1.788zm-23.497 9.557v2h.391l.362-.148-.753-1.852zm-.037 0l-.113-1.996-.387.022-.35.165.85 1.81zm-.94.03l1.146-1.64-.217-.151-.248-.09-.68 1.88zm-.204-.098l1.108-1.666-.168-.111-.187-.076-.753 1.853zm-23.328-9.488l-.894 1.79.069.034.072.029.753-1.853zm-.225-28.556l-1.11-1.664-.164.11-.14.14 1.414 1.414zm.65-.232l.138 1.995.298-.02.279-.107-.715-1.868zm23.184-8.875L84.173.187l-.041.014-.041.015.715 1.868zm.9 0l-.894 1.79.087.043.092.035.715-1.868zm23.478 8.987l-.715 1.868.037.014.037.013.641-1.895zm.044.016l-.72 1.866.023.009.023.008.674-1.883zm.762 1.678l1.716 1.027.112-.187.069-.208-1.897-.632zm-24.791 7.664l-.753 1.852.753.307.753-.307-.753-1.852zm-19.875-8.083L64.6 10.48l-4.699 1.82 4.667 1.898.754-1.853zm39.867-.048l.754 1.852 4.707-1.914-4.75-1.807-.711 1.869zM85.143 4.67l.711-1.87-.718-.272-.715.277.722 1.865zm-1.237 18.008h2v-1.35l-1.25-.505-.75 1.855zm0 23.464l-.756 1.852 2.756 1.124v-2.976h-2zM62.995 14.227l.75-1.855-2.75-1.11v2.965h2zm0 23.384h-2v1.344l1.245.508.755-1.852zm23.497-14.953l-.748-1.855-1.252.505v1.35h2zm0 23.384h-2v2.978l2.756-1.126-.756-1.852zm20.911-31.816h2v-2.963l-2.748 1.108.748 1.855zm0 23.272l.757 1.851 1.243-.508v-1.343h-2zM26.75 103.43l-.023-2h-.002l.025 2zm.506-.111l-.12-1.997-.38.023-.346.161.846 1.813zm-.522.111l-.019 2h.044l-.025-2zm-.013 0l.019-2h-.016l-.003 2zm-.4-.082l1.128-1.652-.21-.143-.24-.087-.677 1.882zm-.21-.101l1.121-1.657-.173-.117-.194-.079-.753 1.853zM2.788 93.761l-.894 1.789.069.035.072.029.753-1.853zm-.225-28.556l-1.11-1.664-.164.11-.14.14 1.414 1.414zm.653-.233l.132 1.996.301-.02.282-.108-.715-1.868zM26.397 56.1l-.633-1.897-.041.014-.041.015.715 1.868zm.899 0l-.894 1.789.087.044.092.035.715-1.868zm23.478 8.987l-.715 1.868.037.014.038.013.64-1.895zm.045.016l-.721 1.865.022.01.023.007.676-1.882zm.761 1.677l-1.897-.632-.103.308v.325h2zm0 25.746h-2 2zm-.787 1.236l.754 1.853.071-.03.07-.034-.895-1.789zm-23.497 9.556v2h.391l.362-.147-.753-1.853zM6.916 66.36l-.723-1.865-4.699 1.82 4.668 1.897.753-1.852zm19.818-7.675l.711-1.87-.718-.273-.715.278.722 1.865zm.056 15.758l-.753 1.853.753.306.754-.306-.754-1.853zm19.991-8.13l.754 1.852 4.707-1.914-4.75-1.808-.71 1.87zm-21.284 33.843l-.755 1.852 2.755 1.124v-2.976h-2zm0-23.465h2v-1.348l-1.25-.506-.75 1.854zM4.586 91.625h-2v1.344l1.244.508.756-1.852zm0-23.385l.75-1.854-2.75-1.111v2.965h2zm23.497 8.432l-.748-1.855-1.252.505v1.35h2zm0 23.385h-2v2.978l2.756-1.127-.756-1.851zM48.994 68.24h2v-2.963l-2.748 1.108.748 1.855zm0 23.273l.757 1.851 1.243-.508v-1.343h-2zm17.68 7.758l.895-1.789-.27-.134-.296-.05-.329 1.973zm-.748-1.164l-1.973-.329-.004.023-.003.023 1.98.283zm1.164-.748l-.283 1.98.14.02h.143v-2zm.058.008l-.303 1.977h.007l.296-1.977zm0 0l.359-1.968-.03-.005-.031-.005-.297 1.978zm.001 0l-.358 1.968.028.005.027.004.303-1.977zm20.147-4.582l1.22 1.585.002-.001-1.222-1.584zm9.896-21.87l1.994.149.006-.074v-.074h-2zm1.912.084l1.995.14.005-.07V71h-2zM88.46 94.282l-1.213-1.59-.008.006 1.221 1.584zm13.305-22.37l-1.592 1.21.082.108.096.096 1.414-1.414zm1.497.083l.894 1.79.19-.096.165-.132-1.249-1.562zm.166-1.33l-1.577 1.23.008.01.007.01 1.562-1.25zm-3.825-4.906l1.577-1.23-.076-.097-.087-.087-1.414 1.414zm-.665-.333l-.633 1.897.308.103h.325v-2zm-.749.166l1.23 1.578.097-.076.088-.087-1.415-1.415zm-4.906 3.826l-1.23-1.578-.01.008-.009.008 1.25 1.562zm-.166 1.33l-1.562 1.25 1.562-1.25zm1.33.166l-1.21-1.592-.02.015-.019.016 1.25 1.561zm4.158-3.16l1.593-1.21-1.21-1.592-1.593 1.21 1.21 1.592zM12.7 42.6l-1.995-.14-.005.07v.07h2zm10.643-23.283l-1.21-1.591-.003.002 1.213 1.59zm21.672-4.911l-.338 1.971h.002l.336-1.971zm.032.005l-.336 1.972.007.001.329-1.973zm.748 1.165l1.973.328.004-.023.003-.023-1.98-.283zm-1.164.748l.283-1.98-.141-.02h-.142v2zm-.06-.009l.304-1.977-.303 1.977zm-20.146 4.582l-1.22-1.585-.002.002 1.221 1.583zm-9.896 21.87l-1.994-.149-.02.273.053.268 1.961-.392zm-1.122 5.43l.517 1.932-.517-1.932zm.124-.025v2h.688l.542-.423-1.23-1.577zm4.906-3.825l1.23 1.577.01-.008.01-.008-1.25-1.561zm-1.164-1.497l1.21 1.592.02-.015.02-.015-1.25-1.562zm-4.157 3.16l-1.593 1.21 1.21 1.592 1.593-1.21-1.21-1.592zm-3.16-4.158l1.592-1.21-.015-.02-.015-.02-1.562 1.25zm-1.497 1.164l1.577-1.23-.008-.01-.007-.01-1.562 1.25zm3.825 4.906l-1.577 1.23.076.097.087.087 1.414-1.414zm99.705-9.412V12.765h-4V38.51h4zm-1.893 3.025c1.028-.514 1.893-1.6 1.893-3.025h-4c0-.132.043-.262.111-.365a.541.541 0 01.208-.187l1.788 3.577zm-23.638 9.62l23.497-9.556-1.507-3.705-23.497 9.556 1.507 3.705zm-.678.146l-.075.002v-4c-.05 0-.1.001-.15.004l.225 3.994zm-.637.115a3.23 3.23 0 001.375-.302l-1.7-3.62a.774.774 0 01.325-.078v4zm-1.56-.444c.442.31.89.388 1.088.415.228.031.429.029.472.029v-4c-.059 0-.006-.002.07.008a1.61 1.61 0 01.661.269l-2.292 3.279zm-.167-.072c.23.153.46.252.632.313l1.36-3.761a1.258 1.258 0 01.223.117L83.416 50.9zm-22.973-9.3l23.327 9.487 1.507-3.705-23.327-9.487-1.507 3.705zm-2.034-3.09c0 1.425.865 2.512 1.893 3.026l1.788-3.578a.542.542 0 01.208.188.67.67 0 01.111.365h-4zm0-26.195v26.196h4V12.315h-4zm1.148-2.538c-.48.48-1.148 1.302-1.148 2.538h4a.762.762 0 01-.084.344c-.018.032-.028.044-.019.032.01-.012.033-.04.08-.086l-2.829-2.828zm1.927-.814a3.347 3.347 0 00-1.622.564l2.219 3.328a.66.66 0 01-.322.099l-.275-3.99zM84.09.216L60.906 9.091l1.43 3.736L85.52 3.952 84.09.216zm2.508.08c-.866-.434-1.796-.319-2.426-.109l1.265 3.795a.444.444 0 01-.14.018c-.07 0-.255-.01-.487-.127L86.599.295zm23.299 8.907L86.42.216l-1.43 3.736 23.478 8.987 1.43-3.736zm.048.018a2.897 2.897 0 00-.122-.044l-1.282 3.789a.915.915 0 01-.035-.013l1.439-3.732zm1.94 4.176c.524-1.571-.182-3.548-1.985-4.193l-1.348 3.766a.756.756 0 01-.443-.395.602.602 0 01-.018-.443l3.794 1.265zm-.181.395l-3.432-2.054 3.432 2.054zM85.95 18.576l-19.875-8.083-1.507 3.705 19.876 8.083 1.506-3.705zm18.486-8.13l-19.992 8.13 1.506 3.705 19.993-8.13-1.507-3.706zM84.432 6.538l20.047 7.628 1.422-3.738L85.854 2.8l-1.422 3.738zM66.044 14.21l19.82-7.675-1.444-3.73L64.6 10.48l1.444 3.73zm15.861 8.468v23.464h4V22.678h-4zm-19.66-6.597l20.91 8.451 1.5-3.709-20.912-8.45-1.498 3.708zm2.749 21.53V14.227h-4V37.61h4zm19.666 6.68l-20.91-8.532-1.511 3.704 20.91 8.531 1.511-3.704zm-.17-21.633v23.384h4V22.658h-4zm22.164-10.287l-20.911 8.432 1.496 3.71 20.911-8.432-1.496-3.71zm2.748 25.127V14.226h-4v23.272h4zM87.248 47.894l20.912-8.545-1.513-3.702-20.912 8.544 1.513 3.703zm-60.474 57.535a3.22 3.22 0 001.328-.298l-1.692-3.625a.777.777 0 01.317-.076l.047 3.999zm-.015.001l.016-.001-.05-3.999h-.016l.05 4zm-.056 0h.012l.037-4h-.012l-.037 4zm-1.508-.43a2.48 2.48 0 001.043.397c.225.033.42.033.481.033l.005-4c-.042 0 .01-.003.09.009a1.615 1.615 0 01.635.257L25.194 105zm-.204-.096c.239.161.48.263.654.326l1.354-3.764a1.25 1.25 0 01.233.124l-2.24 3.314zm-22.957-9.29l23.324 9.486 1.507-3.706L3.54 91.908l-1.506 3.706zM0 92.524c0 1.425.864 2.512 1.893 3.026l1.788-3.578a.541.541 0 01.208.188.669.669 0 01.111.364H0zM0 66.33v26.195h4V66.33H0zm1.148-2.538C.668 64.27 0 65.093 0 66.329h4a.76.76 0 01-.084.344c-.018.032-.028.043-.02.032.01-.012.034-.04.08-.086L1.148 63.79zm1.936-.814a3.347 3.347 0 00-1.631.564l2.219 3.328a.661.661 0 01-.325.099l-.263-3.992zm22.598-8.746L2.5 63.104l1.43 3.736 23.181-8.873-1.43-3.736zm2.508.08c-.866-.434-1.796-.32-2.426-.11l1.265 3.795a.443.443 0 01-.14.019 1.1 1.1 0 01-.487-.127l1.788-3.578zm23.299 8.907L28.01 54.23l-1.43 3.736 23.478 8.987 1.43-3.736zm.05.018a3.168 3.168 0 00-.125-.045l-1.28 3.79a1.003 1.003 0 01-.036-.013l1.442-3.732zm1.938 4.176c.524-1.571-.182-3.546-1.983-4.193l-1.351 3.765a.76.76 0 01-.442-.394.606.606 0 01-.018-.443l3.794 1.265zm.103 25.112V66.78h-4v25.746h4zm-1.892 3.026c1.028-.514 1.892-1.601 1.892-3.025h-4c0-.132.043-.263.111-.365a.54.54 0 01.208-.188l1.788 3.578zm-23.639 9.62l23.498-9.556-1.507-3.706-23.497 9.557 1.506 3.705zm-.673.145c-.026.002-.053.002-.08.002v-4a2.82 2.82 0 00-.16.005l.24 3.993zM7.637 68.225l19.82-7.675-1.445-3.73-19.82 7.675 1.445 3.73zm19.907 4.365L7.669 64.507l-1.507 3.705 19.875 8.084 1.507-3.706zm18.484-8.13l-19.991 8.13 1.507 3.706 19.99-8.13-1.506-3.706zm-20.005-3.906l20.047 7.628 1.422-3.739-20.047-7.627-1.422 3.738zm1.474 39.602V76.691h-4v23.465h4zM3.83 93.476l20.912 8.532 1.51-3.704-20.91-8.53-1.512 3.703zM2.586 68.24v23.385h4V68.24h-4zm23.66 6.597l-20.91-8.451-1.5 3.709 20.912 8.45 1.498-3.708zm-.163 1.835v23.385h4V76.672h-4zm22.163-10.287l-20.911 8.432 1.496 3.71 20.911-8.432-1.496-3.71zm2.748 25.128V68.24h-4v23.273h4zM28.84 101.908l20.912-8.544-1.513-3.703-20.912 8.545 1.513 3.702zm36.94-.848c.27.134.554.194.586.201.12.028.258.055.403.08.293.052.676.106 1.13.157.91.101 2.148.189 3.6.189v-4c-1.294 0-2.385-.079-3.158-.165a14.833 14.833 0 01-.884-.121 3.81 3.81 0 01-.188-.036c-.115-.027.073.004.3.117l-1.788 3.578zm-1.833-3.236c-.207 1.447.63 3.125 2.4 3.42l.657-3.946c.344.058.608.261.756.488a.89.89 0 01.147.604l-3.96-.566zm3.427-2.445c-1.447-.207-3.125.63-3.42 2.4l3.945.657a1.12 1.12 0 01-.487.755.889.889 0 01-.604.147l.566-3.96zm.079.011l-.054-.008-.046-.006-.057-.007c-.002 0-.093-.01-.205-.01v4a1.958 1.958 0 01-.202-.01l-.049-.006-.018-.003a.143.143 0 00.003 0l.021.004.607-3.954zm-.006 0l-.594 3.955.594-3.956zm.061.01l-.716 3.935.716-3.936zm18.57-4.2c-3.756 2.89-8.158 3.993-11.82 4.335-3.651.342-6.425-.087-6.805-.145l-.606 3.954c.523.08 3.664.56 7.783.174 4.107-.384 9.328-1.64 13.887-5.148l-2.44-3.17zm9.12-20.433c-.722 9.71-3.898 16.404-9.122 20.435l2.443 3.167c6.417-4.95 9.894-12.892 10.668-23.305l-3.989-.297zm2.992-2.766c-.787 0-1.499.317-2.014.775-.52.462-.983 1.203-.983 2.14h4c0 .437-.215.721-.36.85a.948.948 0 01-.643.235v-4zm2.915 2.998c0-.787-.317-1.5-.775-2.015-.462-.519-1.203-.983-2.14-.983v4c-.437 0-.721-.215-.85-.36a.948.948 0 01-.235-.642h4zm-11.43 24.873c6.918-5.28 10.651-13.722 11.425-24.733l-3.99-.28c-.722 10.276-4.14 17.467-9.862 21.833l2.427 3.18zm-18.177 5.815c4.639 0 11.878-.956 18.185-5.822l-2.443-3.167c-5.335 4.116-11.567 4.989-15.742 4.989v4zm31.016-31.442c.151 0 .259.023.312.037a.71.71 0 01.201.088.978.978 0 01.153.128l-2.828 2.828c.287.288.624.495.919.63.284.132.726.289 1.243.289v-4zm-.146-.038a5.807 5.807 0 01-.179.088c-.038.018-.037.016-.015.008a1.056 1.056 0 01.34-.058v4c.801 0 1.39-.334 1.643-.46l-1.789-3.578zm-.501 1.707a1.065 1.065 0 01.146-1.48l2.499 3.123c1.222-.977 1.546-2.808.479-4.142l-3.124 2.5zm-3.84-4.925l3.825 4.906 3.154-2.46-3.825-4.906-3.154 2.46zm.912.437c-.311 0-.518-.099-.594-.14a.654.654 0 01-.155-.113l2.828-2.828c-.296-.297-1.032-.919-2.08-.919v4zm.666-.42a1.29 1.29 0 01-.622.359 1.242 1.242 0 01-.677-.041l1.265-3.795a2.762 2.762 0 00-1.487-.062 2.716 2.716 0 00-1.308.711l2.829 2.829zm-5.09 3.989l4.905-3.825-2.46-3.155-4.905 3.825 2.46 3.155zm.165-1.496a1.064 1.064 0 01-.146 1.48l-2.499-3.123c-1.222.977-1.546 2.808-.479 4.141L94.68 69.5zm-1.48-.146a1.064 1.064 0 011.48.146l-3.124 2.498c.978 1.222 2.808 1.546 4.142.48l-2.499-3.124zm4.196-3.19l-4.158 3.159 2.42 3.185 4.158-3.16-2.42-3.185zm5.962 4.539l-3.159-4.158-3.185 2.42 3.16 4.158 3.184-2.42zM10.7 42.6c0 1.495 1.205 2.998 2.998 2.998v-4a.988.988 0 011.002 1.003h-4zm11.43-24.873C15.212 23.008 11.48 31.45 10.705 42.46l3.99.28c.723-10.276 4.14-17.466 9.862-21.833l-2.427-3.18zm23.222-5.292c-.873-.15-13.24-2.304-23.22 5.29l2.423 3.184c8.517-6.482 19.317-4.67 20.122-4.532l.675-3.942zm.03.005l-.032-.006-.67 3.944.031.005.67-3.943zm2.393 3.418c.207-1.447-.63-3.125-2.4-3.42l-.657 3.946a1.126 1.126 0 01-.756-.488.89.89 0 01-.147-.603l3.96.565zm-3.427 2.446c1.447.207 3.125-.63 3.42-2.4l-3.946-.657c.058-.344.26-.608.488-.756a.889.889 0 01.604-.147l-.566 3.96zm-.08-.012l.054.008.046.007.057.006c.002 0 .093.01.206.01v-4c.069 0 .123.005.143.006l.059.005a1.895 1.895 0 01.067.008l.005.001h-.002l-.006-.001-.022-.004-.607 3.954zm-18.624 4.19c3.756-2.889 8.158-3.992 11.82-4.335 3.65-.341 6.425.087 6.804.145l.607-3.954c-.523-.08-3.664-.559-7.783-.174-4.107.385-9.328 1.641-13.887 5.148l2.439 3.17zm-9.12 20.433c.722-9.71 3.898-16.404 9.122-20.434l-2.443-3.167c-6.417 4.95-9.894 12.892-10.668 23.304l3.989.297zm-2.826 2.683c.798 0 1.53-.327 2.048-.845.513-.514.946-1.37.744-2.378l-3.922.784a1.368 1.368 0 01.35-1.235c.206-.206.48-.326.78-.326v4zm-.666.657h-.083v4h.083v-4zm-.143.01c-.048.013-.03.008-.004.003a.829.829 0 01.147-.013v4c.442 0 .787-.098.892-.126l-1.035-3.864zm.642-.093c-.232 0-.416.039-.481.053-.076.017-.148.037-.161.04l1.035 3.864c.04-.01.015-.004-.019.004a1.655 1.655 0 01-.374.039v-4zm3.677-3.403l-4.906 3.825 2.46 3.155 4.905-3.825-2.46-3.155zm-.166 1.497a1.064 1.064 0 01.146-1.481l2.499 3.123c1.221-.977 1.546-2.807.479-4.141l-3.124 2.499zm1.48.146a1.064 1.064 0 01-1.48-.146l3.123-2.5c-.977-1.22-2.807-1.545-4.141-.478l2.499 3.124zm-4.196 3.19l4.157-3.16-2.42-3.184-4.158 3.16 2.42 3.184zm-5.963-4.54l3.16 4.158 3.185-2.42-3.16-4.158-3.185 2.42zm1.512.185a1.064 1.064 0 01-1.481-.146l3.123-2.498c-.977-1.222-2.807-1.546-4.141-.479l2.499 3.123zm.146-1.48a1.064 1.064 0 01-.146 1.48l-2.5-3.123c-1.22.977-1.545 2.808-.478 4.142l3.124-2.5zm3.84 4.925l-3.825-4.906-3.154 2.46 3.825 4.906 3.154-2.46zm-.912-.437c.311 0 .518.099.594.14.084.046.13.088.155.113l-2.828 2.828c.296.297 1.032.919 2.08.919v-4z" fill="#FF891C"/></svg>