<svg width="100" height="99" fill="none" xmlns="http://www.w3.org/2000/svg"><path fill-rule="evenodd" clip-rule="evenodd" d="M87.89 1.423l-64.22.15A10.74 10.74 0 0013 12.313v59.44H3.5a2.5 2.5 0 00-2.5 2.5v6.22a10.74 10.74 0 0010.72 10.73h48.74a2.5 2.5 0 000-5H11.72A5.73 5.73 0 016 80.473v-3.72h54.46a2.5 2.5 0 100-5H18v-59.44a5.74 5.74 0 015.72-5.73l54.94-.13a11 11 0 00-1.83 6.09v13.55a2.5 2.5 0 005 0v-13.56a6.12 6.12 0 016.11-6.11 6.12 6.12 0 016.06 6.11v3.34h-5.46a2.5 2.5 0 100 5h8a2.5 2.5 0 002.46-2.5v-5.84a11.12 11.12 0 00-11.11-11.11zm-26.15 62.05a3.17 3.17 0 011.89 2.21 8.099 8.099 0 004.43 5.59 8.57 8.57 0 007.56 0 3.65 3.65 0 013.18 0 8.58 8.58 0 007.56 0 8.09 8.09 0 004.43-5.59 3.169 3.169 0 011.89-2.21 8.08 8.08 0 004.78-5.68 7.831 7.831 0 00-1.81-7 2.91 2.91 0 01-.65-2.64 7.83 7.83 0 00-1.44-6.92 8.45 8.45 0 00-6.88-3.2 3.42 3.42 0 01-2.82-1.27 8.568 8.568 0 00-13.29 0 3.508 3.508 0 01-2.82 1.27 8.43 8.43 0 00-6.88 3.2 7.83 7.83 0 00-1.44 6.92 2.91 2.91 0 01-.65 2.68 7.839 7.839 0 00-1.81 7 8.092 8.092 0 004.77 5.64zm.78-9.34a7.9 7.9 0 001.73-7.27 2.851 2.851 0 01.53-2.49 3.43 3.43 0 012.83-1.29 8.6 8.6 0 006.85-3.16 3.571 3.571 0 015.47 0 8.59 8.59 0 006.85 3.15 3.429 3.429 0 012.84 1.3 2.85 2.85 0 01.54 2.54 7.901 7.901 0 001.73 7.27 2.85 2.85 0 01.68 2.56 3.14 3.14 0 01-1.88 2.18 8.178 8.178 0 00-4.8 5.77 3.12 3.12 0 01-1.73 2.14 3.6 3.6 0 01-3.18 0 8.69 8.69 0 00-7.55 0 3.6 3.6 0 01-3.18 0 3.13 3.13 0 01-1.73-2.14 8.18 8.18 0 00-4.8-5.77 3.14 3.14 0 01-1.88-2.18 2.85 2.85 0 01.67-2.61h.01zm6.112 22.972a2.5 2.5 0 011.768-.732 2.5 2.5 0 012.45 2.5v10.86l2.85-2.2a2.5 2.5 0 013.05 0l2.85 2.2v-10.72a2.5 2.5 0 015 0v15.81a2.5 2.5 0 01-4 2l-5.35-4.12-5.35 4.12a2.5 2.5 0 01-4-2v-15.95a2.5 2.5 0 01.732-1.768zM29.6 23.083h35.54a2.5 2.5 0 000-5H29.6a2.5 2.5 0 000 5zm27.808 8.343a2.5 2.5 0 01-1.768 4.267h-26a2.5 2.5 0 010-5h26a2.5 2.5 0 011.768.733zM50.23 45.813a2.5 2.5 0 00-2.5-2.5H29.6a2.5 2.5 0 000 5h18.13a2.5 2.5 0 002.5-2.5zm-20.57 10.11h16.15a2.5 2.5 0 110 5H29.66a2.5 2.5 0 010-5z" fill="#FF891C"/><path d="M23.67 1.573l-.002-1h-.005l.007 1zm64.22-.15v-1h-.002l.002 1zm-71.77 3.32l.71.705-.71-.705zM13 12.313h1-1zm0 59.44v1a1 1 0 001-1h-1zm-12 8.72H0h1zm3.142 7.58l-.707.707.707-.706zm7.578 3.15l-.002 1h.002v-1zm0-5l-.002 1h.002v-1zM6 80.473h1-1zm0-3.72v-1a1 1 0 00-1 1h1zm12-5h-1a1 1 0 001 1v-1zm0-59.44l-1-.002v.002h1zm5.72-5.73l-.002-1h-.002l.004 1zm54.94-.13l.834.552a1 1 0 00-.836-1.552l.002 1zm-1.83 6.09h1v-.002l-1 .002zm5-.01l-1-.002v.002h1zm6.11-6.11l.01-1h-.012l.002 1zm6.06 6.11h1v-.002l-1 .002zm0 3.34v1a1 1 0 001-1h-1zm2.54 5v1h.016l-.016-1zm2.46-2.5h-1 1zm0-5.84h1v-.001h-1zM95.743 4.68l.707-.707-.707.707zM61.74 63.473l-.385.923.008.003.377-.926zm1.89 2.21l.977-.213-.004-.016-.973.229zm1.567 3.308l.783-.62-.783.62zm2.863 2.282l.441-.898-.01-.005-.431.903zm7.56 0l-.436-.9-.005.002.441.898zm3.18 0l.44-.898-.004-.003-.436.9zm7.56 0l-.43-.903-.01.005.44.898zm2.864-2.28l-.783-.622.783.621zm1.566-3.31l-.973-.23-.004.018.977.212zm.677-1.335l-.76-.65.76.65zm1.213-.875l.377.926.007-.003-.384-.923zm3.081-2.259l.765.644-.765-.644zm1.699-3.421l-.974-.225-.001.004.975.22zm-1.81-7l-.747.665.004.004.743-.67zm-.652-1.24l.97-.239-.97.24zm.002-1.4l-.966-.26-.004.017.97.243zm.105-3.632l.98-.204-.98.204zm-1.545-3.288l-.784.62.002.003.782-.623zm-3.06-2.416l-.422.907.421-.907zm-3.82-.784l-.03-1h-.016l.046 1zm-1.562-.298l.41-.912-.41.912zm-1.258-.972l.779-.628-.004-.004-.775.632zm-2.966-2.329l-.43.903.43-.903zm-7.358 0l.43.903-.43-.903zm-2.966 2.329l.77.637.005-.006-.775-.631zm-1.263.962l.411.912-.41-.912zm-1.557.308l.033-1h-.002l-.031 1zm-6.88 3.2l.782.623.003-.004-.785-.62zm-1.44 6.92l.968-.253-.002-.008-.966.26zm-.65 2.68l.744.668-.744-.668zm-1.81 7l-.974.224v.002l.974-.226zm5.55-3.7v1a1 1 0 00.748-.336l-.748-.664zm1.73-7.27l-.968.25.001.006.967-.256zm.53-2.49l.782.623-.782-.623zm1.26-.985l-.414-.91.414.91zm1.57-.305l-.043.999h.021l.022-1zm3.79-.79l-.419-.907.419.908zm3.06-2.37l-.766-.643-.009.01.775.633zm5.47 0l.774-.634-.008-.01-.766.644zm3.061 2.366l.418-.908-.418.908zm3.789.784l.023 1 .02-.001-.043-1zm1.577.308l-.417.909.417-.91zm1.263.992l-.785.62.009.01.776-.63zm.576 1.205l.978-.208-.978.208zm-.036 1.335l-.965-.26-.002.003.967.257zm1.73 7.27l-.748.664.011.012.737-.676zm.656 1.196l.966-.257-.966.257zm.024 1.364l.973.233.002-.012-.975-.221zm-1.88 2.18l-.374-.928-.016.007.39.92zm-3.1 2.302l-.77-.64.77.64zm-1.7 3.468l.975.22.002-.005-.977-.215zm-1.73 2.14l-.42-.908a.8.8 0 00-.022.01l.442.898zm-3.18 0l.442-.898-.008-.003-.434.9zm-7.55 0l-.434-.901-.008.003.442.898zm-3.18 0l.442-.898-.02-.009-.422.907zm-1.113-.87l.778-.629-.778.629zm-.617-1.27l-.977.215.002.007.975-.222zm-1.7-3.468l.77-.64-.77.64zm-3.1-2.302l.39-.921-.016-.007-.374.928zm-1.88-2.18l.972-.234v-.005l-.972.239zm.67-2.61v-1a1 1 0 00-.736.323l.736.677zm7.89 22.24l.02-1h-.02v1zm2.45 2.5h-1 1zm0 10.86h-1a1 1 0 001.611.792l-.611-.792zm2.85-2.2l-.61-.792h-.001l.61.792zm3.05 0l.611-.791-.001-.001-.61.792zm2.85 2.2l-.611.792a1 1 0 001.61-.792h-1zm1 7.09l-.61.792.01.008.6-.8zm-5.35-4.12l.61-.792a1 1 0 00-1.22 0l.61.792zm-5.35 4.12l.6.8.01-.008-.61-.792zM23.672 2.573l64.22-.15-.004-2-64.22.15.004 2zM16.83 5.448a9.74 9.74 0 016.847-2.875l-.014-2a11.74 11.74 0 00-8.252 3.465l1.42 1.41zM14 12.313a9.74 9.74 0 012.83-6.865l-1.418-1.41A11.74 11.74 0 0012 12.313h2zm0 59.44v-59.44h-2v59.44h2zm-10.5 1H13v-2H3.5v2zm-1.06.44a1.5 1.5 0 011.06-.44v-2a3.5 3.5 0 00-2.475 1.025l1.414 1.414zM2 74.252c0-.398.158-.78.44-1.06l-1.415-1.415A3.5 3.5 0 000 74.253h2zm0 6.22v-6.22H0v6.22h2zm2.85 6.874A9.74 9.74 0 012 80.472l-2 .002a11.74 11.74 0 003.435 8.286l1.415-1.413zm6.872 2.856a9.74 9.74 0 01-6.872-2.856L3.435 88.76a11.74 11.74 0 008.283 3.443l.004-2zm48.738 0H11.72v2h48.74v-2zm1.06-.44a1.5 1.5 0 01-1.06.44v2a3.5 3.5 0 002.475-1.025l-1.414-1.415zm.44-1.06a1.5 1.5 0 01-.44 1.06l1.415 1.415a3.5 3.5 0 001.025-2.475h-2zm-.44-1.06a1.5 1.5 0 01.44 1.06h2a3.5 3.5 0 00-1.025-2.475l-1.414 1.414zm-1.06-.44a1.5 1.5 0 011.06.44l1.415-1.415a3.5 3.5 0 00-2.475-1.025v2zm-48.74 0h48.74v-2H11.72v2zm-4.753-1.975a6.73 6.73 0 004.751 1.975l.004-2a4.73 4.73 0 01-3.34-1.388l-1.415 1.413zM5 80.473a6.73 6.73 0 001.967 4.755l1.415-1.413A4.73 4.73 0 017 80.473H5zm0-3.72v3.72h2v-3.72H5zm55.46-1H6v2h54.46v-2zm1.06-.44a1.5 1.5 0 01-1.06.44v2a3.5 3.5 0 002.475-1.025l-1.414-1.414zm.44-1.06a1.5 1.5 0 01-.44 1.06l1.415 1.415a3.5 3.5 0 001.025-2.475h-2zm-.44-1.06a1.5 1.5 0 01.44 1.06h2a3.5 3.5 0 00-1.025-2.475l-1.414 1.414zm-1.06-.44a1.5 1.5 0 011.06.44l1.415-1.415a3.5 3.5 0 00-2.475-1.025v2zm-42.46 0h42.46v-2H18v2zm-1-60.44v59.44h2v-59.44h-2zm1.97-4.752a6.74 6.74 0 00-1.97 4.75l2 .004a4.74 4.74 0 011.385-3.34L18.97 7.56zm4.747-1.978A6.74 6.74 0 0018.97 7.56l1.415 1.413a4.74 4.74 0 013.338-1.391l-.006-2zm54.94-.13l-54.94.13.005 2 54.94-.13-.004-2zm-.827 7.088a10 10 0 011.664-5.536l-1.668-1.104a12 12 0 00-1.996 6.643l2-.003zm0 13.552v-13.55h-2v13.55h2zm.44 1.06a1.5 1.5 0 01-.44-1.06h-2a3.5 3.5 0 001.025 2.475l1.414-1.415zm1.06.44a1.5 1.5 0 01-1.06-.44l-1.415 1.415a3.5 3.5 0 002.475 1.025v-2zm1.06-.44a1.5 1.5 0 01-1.06.44v2a3.5 3.5 0 002.475-1.025l-1.414-1.415zm.44-1.06a1.5 1.5 0 01-.44 1.06l1.415 1.415a3.5 3.5 0 001.025-2.475h-2zm0-13.56v13.56h2v-13.56h-2zm2.085-5.025a7.12 7.12 0 00-2.085 5.023l2 .003a5.12 5.12 0 011.5-3.612l-1.415-1.414zm5.023-2.085a7.12 7.12 0 00-5.023 2.085l1.415 1.414a5.12 5.12 0 013.612-1.5l-.004-2zm4.997 2.106a7.12 7.12 0 00-4.985-2.106l-.02 2a5.12 5.12 0 013.585 1.514l1.42-1.408zM95 12.53a7.12 7.12 0 00-2.065-5.002l-1.42 1.408A5.12 5.12 0 0193 12.534l2-.003zm0 3.342v-3.34h-2v3.34h2zm-6.46 1H94v-2h-5.46v2zm-1.06.44a1.5 1.5 0 011.06-.44v-2a3.5 3.5 0 00-2.475 1.025l1.414 1.414zm-.44 1.06c0-.398.158-.78.44-1.06l-1.415-1.415a3.5 3.5 0 00-1.025 2.475h2zm.44 1.06a1.5 1.5 0 01-.44-1.06h-2a3.5 3.5 0 001.025 2.475l1.414-1.415zm1.06.44a1.5 1.5 0 01-1.06-.44l-1.415 1.415a3.5 3.5 0 002.475 1.025v-2zm8 0h-8v2h8v-2zm1.03-.448a1.5 1.5 0 01-1.046.448l.032 2a3.5 3.5 0 002.439-1.045l-1.426-1.403zm.43-1.052a1.5 1.5 0 01-.43 1.052l1.425 1.403A3.5 3.5 0 00100 18.373h-2zm0-5.84v5.84h2v-5.84h-2zm-2.964-7.146A10.12 10.12 0 0198 12.534l2-.002a12.12 12.12 0 00-3.55-8.56l-1.414 1.415zm-7.147-2.964a10.12 10.12 0 017.147 2.964l1.414-1.414a12.12 12.12 0 00-8.56-3.55v2zM63.713 63.698c-.432-.506-.98-.9-1.596-1.151l-.754 1.852c.32.13.605.336.83.599l1.52-1.3zm.89 1.756a4.17 4.17 0 00-.89-1.756l-1.52 1.3c.226.263.384.576.464.913l1.946-.457zm1.377 2.916a7.1 7.1 0 01-1.373-2.9l-1.954.425a9.1 9.1 0 001.76 3.718l1.567-1.243zm2.51 2a7.102 7.102 0 01-2.51-2l-1.567 1.242a9.1 9.1 0 003.217 2.563l.86-1.805zm3.35.781a7.57 7.57 0 01-3.339-.776l-.882 1.795a9.57 9.57 0 004.221.981v-2zm3.339-.776a7.57 7.57 0 01-3.339.776v2a9.569 9.569 0 004.221-.981l-.882-1.795zm2.031-.467a4.65 4.65 0 00-2.026.464l.872 1.8a2.65 2.65 0 011.154-.264v-2zm2.026.464a4.65 4.65 0 00-2.026-.464v2c.4 0 .794.09 1.154.265l.872-1.8zm3.344.778a7.58 7.58 0 01-3.34-.775l-.88 1.795a9.58 9.58 0 004.22.98v-2zm3.34-.775a7.581 7.581 0 01-3.34.775v2a9.58 9.58 0 004.22-.98l-.88-1.795zm2.52-2.004a7.09 7.09 0 01-2.51 1.999l.86 1.806a9.09 9.09 0 003.218-2.563l-1.567-1.242zm1.373-2.9a7.09 7.09 0 01-1.372 2.9l1.567 1.242a9.09 9.09 0 001.76-3.718l-1.955-.424zm.894-1.773a4.169 4.169 0 00-.89 1.756l1.946.458c.08-.338.239-.65.464-.914l-1.52-1.3zm1.596-1.151a4.17 4.17 0 00-1.596 1.151l1.52 1.3a2.17 2.17 0 01.83-.6l-.754-1.851zm2.693-1.977a7.08 7.08 0 01-2.7 1.98l.768 1.846a9.08 9.08 0 003.462-2.538l-1.53-1.288zm1.489-2.998a7.079 7.079 0 01-1.49 2.998l1.531 1.288a9.08 9.08 0 001.91-3.845l-1.951-.44zm-.042-3.25a6.83 6.83 0 01.043 3.246l1.948.45c.32-1.383.3-2.823-.055-4.197l-1.936.5zm-1.536-2.86a6.83 6.83 0 011.536 2.86l1.936-.501a8.83 8.83 0 00-1.986-3.697l-1.486 1.338zm-.88-1.67a3.91 3.91 0 00.876 1.666l1.494-1.33a1.91 1.91 0 01-.428-.814l-1.942.478zm.003-1.882a3.91 3.91 0 00-.003 1.882l1.942-.478a1.911 1.911 0 01.001-.92l-1.94-.484zm.096-3.185a6.83 6.83 0 01-.092 3.167l1.932.52c.36-1.336.4-2.74.118-4.095l-1.958.408zm-1.348-2.869a6.83 6.83 0 011.348 2.869l1.958-.408a8.83 8.83 0 00-1.742-3.708l-1.564 1.247zm-2.7-2.132a7.45 7.45 0 012.698 2.13l1.568-1.242a9.45 9.45 0 00-3.423-2.702l-.843 1.814zm-3.368-.692a7.452 7.452 0 013.368.692l.843-1.814a9.45 9.45 0 00-4.271-.877l.06 2zm-2.002-.386a4.42 4.42 0 002.018.386l-.092-1.998a2.42 2.42 0 01-1.105-.211l-.821 1.823zm-1.626-1.256c.435.54.992.971 1.626 1.256l.82-1.823a2.42 2.42 0 01-.89-.688l-1.556 1.255zm-2.618-2.053a7.569 7.569 0 012.62 2.057l1.551-1.263a9.57 9.57 0 00-3.312-2.6l-.859 1.806zm-3.249-.733c1.124 0 2.234.25 3.25.733l.858-1.806a9.57 9.57 0 00-4.108-.926v2zm-3.25.733a7.569 7.569 0 013.25-.733v-2a9.57 9.57 0 00-4.108.927l.859 1.806zm-2.62 2.057a7.57 7.57 0 012.62-2.057l-.858-1.806a9.57 9.57 0 00-3.312 2.6l1.55 1.263zm-1.627 1.243A4.51 4.51 0 0071.34 37.4l-1.54-1.275a2.51 2.51 0 01-.903.688l.821 1.824zm-2.001.395a4.51 4.51 0 002.001-.395l-.821-1.824a2.51 2.51 0 01-1.114.22l-.066 1.999zm-3.366.69a7.429 7.429 0 013.368-.69l.063-1.999a9.43 9.43 0 00-4.274.875l.843 1.813zm-2.696 2.13a7.43 7.43 0 012.696-2.13l-.843-1.814a9.43 9.43 0 00-3.423 2.705l1.57 1.24zm-1.351 2.873a6.83 6.83 0 011.348-2.869l-1.564-1.247a8.83 8.83 0 00-1.742 3.708l1.958.408zm.092 3.167a6.83 6.83 0 01-.092-3.167l-1.958-.408a8.83 8.83 0 00.118 4.096l1.932-.52zm.018 1.918a3.91 3.91 0 00-.017-1.91l-1.934.506c.08.305.082.626.008.933l1.944.471zm-.89 1.69a3.911 3.911 0 00.89-1.69l-1.943-.471a1.91 1.91 0 01-.435.825l1.488 1.337zm-1.536 2.862a6.839 6.839 0 011.536-2.86l-1.488-1.338a8.84 8.84 0 00-1.984 3.697l1.936.5zm-.044 3.246a6.84 6.84 0 01.044-3.246l-1.936-.5a8.84 8.84 0 00-.056 4.195l1.948-.449zm1.493 2.975a7.09 7.09 0 01-1.493-2.976l-1.948.452a9.09 9.09 0 001.914 3.816l1.527-1.292zm2.688 1.967a7.09 7.09 0 01-2.688-1.967l-1.527 1.291a9.09 9.09 0 003.446 2.522l.768-1.846zm1.201-12.066a6.901 6.901 0 01-1.554 2.984l1.496 1.329a8.9 8.9 0 002.004-3.85l-1.946-.463zm-.043-3.365c.292 1.1.307 2.257.043 3.365l1.946.463a8.9 8.9 0 00-.055-4.34l-1.934.512zm-.04-1.772a3.85 3.85 0 00.039 1.766l1.936-.501a1.85 1.85 0 01-.018-.849l-1.957-.416zm.755-1.598a3.85 3.85 0 00-.755 1.598l1.957.416c.06-.28.183-.543.362-.767l-1.564-1.247zm1.628-1.27a4.429 4.429 0 00-1.628 1.27l1.564 1.247c.239-.3.545-.539.893-.698l-.83-1.82zm2.027-.395a4.43 4.43 0 00-2.027.394l.83 1.82a2.43 2.43 0 011.111-.216l.086-1.998zm3.328-.698a7.6 7.6 0 01-3.35.697l-.043 2a9.6 9.6 0 004.23-.881l-.837-1.816zm2.704-2.096a7.6 7.6 0 01-2.704 2.096l.838 1.816a9.601 9.601 0 003.416-2.647l-1.55-1.265zm1.578-1.215a4.57 4.57 0 00-1.57 1.205l1.533 1.285a2.57 2.57 0 01.883-.677l-.846-1.813zm1.932-.428a4.57 4.57 0 00-1.931.428l.845 1.813c.34-.159.71-.24 1.086-.24v-2zm1.932.428a4.57 4.57 0 00-1.932-.428v2c.375 0 .746.082 1.086.24l.846-1.812zm1.57 1.205a4.57 4.57 0 00-1.57-1.205l-.846 1.813c.34.159.642.39.883.677l1.532-1.285zm2.712 2.1a7.59 7.59 0 01-2.705-2.09l-1.548 1.266a9.588 9.588 0 003.417 2.642l.836-1.817zm3.348.693a7.588 7.588 0 01-3.348-.692l-.836 1.817a9.59 9.59 0 004.23.874l-.046-2zm2.016.398a4.43 4.43 0 00-2.036-.397l.086 1.998a2.43 2.43 0 011.117.218l.833-1.819zm1.632 1.282a4.43 4.43 0 00-1.632-1.282l-.833 1.819c.35.16.657.4.895.703l1.57-1.24zm.77 1.617a3.85 3.85 0 00-.779-1.628l-1.552 1.261c.185.228.313.496.374.782l1.956-.415zm-.05 1.803a3.849 3.849 0 00.05-1.803l-1.957.415c.06.287.053.584-.023.867l1.93.521zm-.041 3.36a6.899 6.899 0 01.043-3.364l-1.934-.513a8.9 8.9 0 00-.055 4.34l1.946-.462zm1.554 2.986a6.9 6.9 0 01-1.554-2.985l-1.946.463a8.9 8.9 0 002.004 3.85l1.496-1.328zm.874 1.603a3.85 3.85 0 00-.886-1.616l-1.473 1.353c.203.22.35.487.426.776l1.933-.513zm.033 1.842a3.85 3.85 0 00-.033-1.842l-1.933.514c.077.289.082.593.016.885l1.95.443zm-.893 1.75a4.14 4.14 0 00.89-1.738l-1.944-.467a2.14 2.14 0 01-.46.899l1.514 1.306zm-1.588 1.136a4.14 4.14 0 001.588-1.136l-1.515-1.306a2.14 2.14 0 01-.82.587l.747 1.855zm-2.706 2.014a7.181 7.181 0 012.722-2.02l-.78-1.842a9.182 9.182 0 00-3.48 2.583l1.538 1.28zm-1.492 3.044a7.181 7.181 0 011.492-3.044l-1.538-1.279a9.181 9.181 0 00-1.906 3.892l1.953.431zm-.815 1.684a4.12 4.12 0 00.814-1.678l-1.95-.443a2.119 2.119 0 01-.419.864l1.555 1.257zm-1.47 1.148a4.12 4.12 0 001.47-1.148l-1.555-1.257a2.12 2.12 0 01-.757.59l.842 1.815zm-2.011.463c.705 0 1.4-.162 2.032-.473l-.884-1.795a2.6 2.6 0 01-1.148.268v2zm-2.032-.473a4.601 4.601 0 002.032.473v-2a2.6 2.6 0 01-1.148-.268l-.884 1.795zm-3.333-.76a7.69 7.69 0 013.34.763l.87-1.801a9.689 9.689 0 00-4.21-.962v2zm-3.34.763a7.69 7.69 0 013.34-.763v-2a9.689 9.689 0 00-4.21.962l.87 1.801zm-2.025.47c.704 0 1.4-.162 2.032-.473l-.884-1.795a2.6 2.6 0 01-1.148.268v2zm-2.032-.473a4.601 4.601 0 002.032.473v-2a2.6 2.6 0 01-1.148-.268l-.884 1.795zm-1.448-1.138c.395.489.897.881 1.468 1.147l.844-1.813a2.129 2.129 0 01-.757-.592l-1.555 1.258zm-.815-1.677a4.13 4.13 0 00.815 1.677l1.555-1.258a2.13 2.13 0 01-.42-.864l-1.95.445zm-1.493-3.05a7.18 7.18 0 011.491 3.043l1.953-.431a9.18 9.18 0 00-1.906-3.892l-1.538 1.28zm-2.722-2.022a7.18 7.18 0 012.722 2.021l1.538-1.279a9.18 9.18 0 00-3.48-2.583l-.78 1.841zm-1.572-1.13c.431.5.976.89 1.588 1.137l.748-1.855a2.139 2.139 0 01-.821-.587l-1.515 1.306zm-.89-1.737a4.14 4.14 0 00.89 1.738l1.515-1.306a2.14 2.14 0 01-.46-.899l-1.945.467zm.01-1.871a3.851 3.851 0 00-.01 1.876l1.943-.477a1.85 1.85 0 01.005-.902l-1.938-.497zm.896-1.65a3.85 3.85 0 00-.895 1.65l1.937.497c.075-.296.223-.568.43-.792l-1.472-1.354zm.746-.322h-.01v2h.01v-2zm7.88 22.24a3.5 3.5 0 00-2.475 1.025l1.414 1.414a1.5 1.5 0 011.06-.439v-2zm2.45 1.05a3.5 3.5 0 00-2.43-1.05l-.04 2a1.5 1.5 0 011.041.45l1.429-1.4zm1 2.45a3.5 3.5 0 00-1-2.45l-1.429 1.4a1.5 1.5 0 01.429 1.05h2zm0 10.86v-10.86h-2v10.86h2zm1.239-2.992l-2.85 2.2 1.222 1.584 2.85-2.2-1.222-1.584zm2.136-.727a3.5 3.5 0 00-2.135.727l1.22 1.585a1.5 1.5 0 01.915-.312v-2zm2.135.727a3.5 3.5 0 00-2.135-.727v2c.33 0 .653.11.915.312l1.22-1.585zm2.851 2.2l-2.85-2.2-1.222 1.584 2.85 2.2 1.222-1.584zM80.6 79.014v10.72h2v-10.72h-2zm1.025-2.475a3.5 3.5 0 00-1.025 2.475h2c0-.398.158-.78.44-1.06l-1.415-1.415zm2.475-1.025a3.5 3.5 0 00-2.475 1.025l1.414 1.414a1.5 1.5 0 011.06-.439v-2zm2.475 1.025a3.5 3.5 0 00-2.475-1.025v2a1.5 1.5 0 011.06.44l1.415-1.415zm1.025 2.475a3.5 3.5 0 00-1.025-2.475l-1.414 1.414a1.5 1.5 0 01.439 1.061h2zm0 15.81v-15.81h-2v15.81h2zm-.523 1.84a3.5 3.5 0 00.523-1.84h-2a1.5 1.5 0 01-.224.789l1.701 1.051zm-1.412 1.29a3.5 3.5 0 001.412-1.29l-1.701-1.051a1.5 1.5 0 01-.605.553l.894 1.788zm-1.88.356a3.5 3.5 0 001.88-.355l-.894-1.79a1.5 1.5 0 01-.806.153l-.18 1.992zM82 97.623a3.5 3.5 0 001.786.686l.18-1.992a1.5 1.5 0 01-.766-.294l-1.2 1.6zm-5.36-4.128l5.35 4.12 1.22-1.584-5.35-4.12-1.22 1.584zm-4.13 4.12l5.35-4.12-1.22-1.584-5.35 4.12 1.22 1.584zm-1.796.694a3.5 3.5 0 001.786-.686l-1.2-1.6a1.5 1.5 0 01-.765.294l.18 1.992zm-1.88-.355a3.5 3.5 0 001.88.355l-.18-1.992a1.5 1.5 0 01-.805-.152l-.894 1.788zm-1.411-1.29c.341.552.83.999 1.412 1.29l.894-1.79a1.5 1.5 0 01-.605-.552l-1.701 1.051zm-.523-1.841a3.5 3.5 0 00.523 1.84l1.7-1.051a1.5 1.5 0 01-.223-.789h-2zm0-15.95v15.95h2v-15.95h-2zm1.025-2.475a3.5 3.5 0 00-1.025 2.475h2c0-.398.158-.78.44-1.06l-1.415-1.415zM65.14 22.083H29.6v2h35.54v-2zm1.06-.44a1.5 1.5 0 01-1.06.44v2a3.5 3.5 0 002.475-1.025l-1.414-1.414zm.44-1.06a1.5 1.5 0 01-.44 1.06l1.415 1.415a3.5 3.5 0 001.025-2.475h-2zm-.44-1.06a1.5 1.5 0 01.44 1.06h2a3.5 3.5 0 00-1.025-2.475l-1.414 1.414zm-1.06-.44a1.5 1.5 0 011.06.44l1.415-1.415a3.5 3.5 0 00-2.475-1.025v2zm-35.54 0h35.54v-2H29.6v2zm-1.06.44a1.5 1.5 0 011.06-.44v-2a3.5 3.5 0 00-2.475 1.025l1.414 1.414zm-.44 1.06c0-.398.158-.78.44-1.06l-1.415-1.415a3.5 3.5 0 00-1.025 2.475h2zm.44 1.06a1.5 1.5 0 01-.44-1.06h-2a3.5 3.5 0 001.025 2.475l1.414-1.414zm1.06.44a1.5 1.5 0 01-1.06-.44l-1.415 1.415a3.5 3.5 0 002.475 1.025v-2zm29.54 11.11a3.5 3.5 0 00-1.025-2.474L56.7 32.133a1.5 1.5 0 01.439 1.06h2zm-1.025 2.475a3.5 3.5 0 001.025-2.475h-2a1.5 1.5 0 01-.44 1.061l1.415 1.414zm-2.475 1.025a3.5 3.5 0 002.475-1.025L56.7 34.254a1.5 1.5 0 01-1.061.44v2zm-26 0h26v-2h-26v2zm-2.475-1.025a3.5 3.5 0 002.475 1.025v-2a1.5 1.5 0 01-1.06-.439l-1.415 1.414zm-1.025-2.475a3.5 3.5 0 001.025 2.475l1.414-1.414a1.5 1.5 0 01-.44-1.06h-2zm1.025-2.474a3.5 3.5 0 00-1.025 2.474h2c0-.398.158-.779.44-1.06l-1.415-1.415zm2.475-1.026a3.5 3.5 0 00-2.475 1.025l1.414 1.415a1.5 1.5 0 011.06-.44v-2zm26 0h-26v2h26v-2zm2.475 1.025a3.5 3.5 0 00-2.475-1.025v2a1.5 1.5 0 011.06.44l1.415-1.415zM48.79 44.754a1.5 1.5 0 01.44 1.06h2a3.5 3.5 0 00-1.026-2.474l-1.414 1.414zm-1.06-.44a1.5 1.5 0 011.06.44l1.414-1.414a3.5 3.5 0 00-2.475-1.026v2zm-18.13 0h18.13v-2H29.6v2zm-1.062.44a1.5 1.5 0 011.061-.44v-2a3.5 3.5 0 00-2.475 1.026l1.414 1.414zm-.439 1.06c0-.397.158-.779.44-1.06l-1.415-1.414a3.5 3.5 0 00-1.025 2.474h2zm.44 1.061a1.5 1.5 0 01-.44-1.06h-2a3.5 3.5 0 001.025 2.474l1.414-1.414zm1.06.44a1.5 1.5 0 01-1.06-.44l-1.415 1.414a3.5 3.5 0 002.475 1.026v-2zm18.13 0H29.6v2h18.13v-2zm1.06-.44a1.5 1.5 0 01-1.06.44v2a3.5 3.5 0 002.475-1.026l-1.414-1.414zm.44-1.06a1.5 1.5 0 01-.44 1.06l1.415 1.414a3.5 3.5 0 001.025-2.474h-2zm-3.42 9.109H29.66v2h16.15v-2zm2.475 1.025a3.5 3.5 0 00-2.475-1.025v2a1.5 1.5 0 011.06.44l1.415-1.415zm1.025 2.475a3.5 3.5 0 00-1.025-2.475l-1.414 1.414a1.5 1.5 0 01.439 1.06h2zm-1.025 2.475a3.5 3.5 0 001.025-2.475h-2a1.5 1.5 0 01-.44 1.06l1.415 1.415zm-2.475 1.025a3.5 3.5 0 002.475-1.025l-1.414-1.415a1.5 1.5 0 01-1.061.44v2zm-16.15 0h16.15v-2H29.66v2zm-2.475-1.025a3.5 3.5 0 002.475 1.025v-2a1.5 1.5 0 01-1.06-.44l-1.415 1.415zm-1.025-2.475a3.5 3.5 0 001.025 2.475l1.414-1.415a1.5 1.5 0 01-.44-1.06h-2zm1.025-2.475a3.5 3.5 0 00-1.025 2.475h2c0-.398.158-.78.44-1.06l-1.415-1.415zm2.475-1.025a3.5 3.5 0 00-2.475 1.025l1.414 1.414a1.5 1.5 0 011.06-.44v-2z" fill="#FF891C"/></svg>