<svg width="90" height="90" fill="none" xmlns="http://www.w3.org/2000/svg"><path d="M74.583 89.5H14.917A14.971 14.971 0 010 74.583V14.917A14.97 14.97 0 0114.917 0h59.666a4.122 4.122 0 014.069 4.068 4.122 4.122 0 01-4.069 4.068H14.917a6.78 6.78 0 00-6.78 6.78v59.667a6.78 6.78 0 006.78 6.78h59.666a6.78 6.78 0 006.78-6.78V37.048a4.069 4.069 0 018.137 0v37.535A14.971 14.971 0 0174.583 89.5zm-29.67-28.315l27.12-27.12a4.068 4.068 0 00-5.749-5.75L42.038 52.56 28.64 39.163a4.068 4.068 0 00-5.75 5.75l16.273 16.273a4.068 4.068 0 005.75 0zm37.97-37.97l5.424-5.424a4.068 4.068 0 00-5.75-5.75l-5.424 5.425a4.068 4.068 0 000 5.75 4.068 4.068 0 005.75 0z" fill="#FF891C"/></svg>