<svg width="126" height="108" fill="none" xmlns="http://www.w3.org/2000/svg"><path fill-rule="evenodd" clip-rule="evenodd" d="M63 0l.2.1L126 33.6v10.2l-.2.1-13.9 8.4 14.1 7.5V70l-.2.1L63 108l-.3-.1L0 70V59.8l14.1-7.6L0 43.7V33.5l37.5-19.9L63 0zM10.6 30.9l-1.7-1-7.4 4L63 71l8.3-5-1.1-.6.5-.9 1.6.9 8.4-5.1-.6-.4.5-.9 1.1.7L99.4 49l-1.3-.7.5-.9 1.8 1-.1.2 8.5-5.2-1.4-.7.5-.9 1.8.9-.1.2 8.2-5-1-.6.5-.9 1.6.8 5.6-3.4L63 1.1l-6 3.2 1 .3-.5.9-1.4-.7-8.5 4.5 1.1.6-.5.9-1.7-.9-7.8 4.2.7.4-.5.9-1.3-.7-8.1 4.3.9.5-.5.9-1.5-.8-9.3 4.9 1.4.8-.5.9-1.7-1 .1-.3-8.4 4.5 1.1.6-.5.9zM1 34.7v8.5l61.5 37.1v-8.5L1 34.7zm0 34.8l61.5 37.1v-8.5L1 61v8.5zm62.5 37.1L125 69.5V61L63.5 98.1v8.5zm-.5-9.3l61.5-37.2-13.6-7.3L63 81.7l-.3-.2-47.6-28.7-13.6 7.3L63 97.3zm.5-17L125 43.2v-8.5L63.5 71.8v8.5zm18.338-61.602l.47-.883 3.53 1.88-.47.883-3.53-1.88zm-6.506-4.595l-.47.883 3.531 1.88.47-.883-3.531-1.88zm-7.534-2.876l.47-.882 3.531 1.88-.47.882-3.53-1.88zM110.3 32.712l-.47.883 3.531 1.88.47-.883-3.531-1.88zM60.823 7.516l.47-.883 3.53 1.88-.47.883-3.53-1.88zm28.46 14.011l-.47.883 3.531 1.88.47-.883-3.53-1.88zm6.507 4.596l.47-.883 3.53 1.88-.47.883-3.53-1.88zm7.533 2.876l-.47.883 3.531 1.88.47-.883-3.531-1.88zm-9.804 6.095l.47-.883 3.531 1.88-.47.883-3.531-1.88zm-41.56-23.25l-.47.883 3.531 1.88.47-.882-3.53-1.88zm34.585 19.538l.47-.883 3.53 1.88-.47.883-3.53-1.88zm14.421 6.54l-.47.884 3.53 1.88.47-.883-3.53-1.88zM58.553 16.487l.47-.883 3.531 1.88-.47.883-3.53-1.88zm21.395 10.258l-.47.883 3.531 1.88.47-.883-3.53-1.88zm-7.444-2.834l.47-.883 3.53 1.88-.47.883-3.53-1.88zm-6.506-4.595l-.47.883 3.531 1.88.47-.883-3.53-1.88zm4.255 13.483l.483-.876 3.502 1.931-.483.877-3.502-1.932zm-6.551-4.748l-.483.875 3.502 1.932.483-.876-3.502-1.931zm-21.45-10.78l.483-.875 3.502 1.931-.483.876-3.502-1.933zm42.465 22.347l-.483.876 3.502 1.932.483-.876-3.502-1.932zm-7.524-3.003l.483-.876 3.503 1.932-.483.876-3.503-1.932zM49.77 20.267l-.484.876 3.503 1.931.483-.876-3.502-1.931zm6.546 4.743l.483-.876 3.502 1.93-.482.876-3.503-1.93zm35.347 18.43l-.483.875 3.503 1.933.483-.876-3.503-1.932zm-2.656 9.308l.48-.877 1.755.961-.48.877-1.755-.961zm-34.323-19.95l-.48.877 3.507 1.922.48-.877-3.507-1.922zM33.348 22.295l.48-.877 3.508 1.922-.48.877-3.508-1.922zm7.45 2.886l-.481.877 3.508 1.922.48-.878-3.508-1.921zM61.17 37.438l.48-.877 3.509 1.923-.48.877-3.509-1.922zm-13.455-8.404l-.48.877 3.507 1.922.48-.877-3.507-1.922zM68.091 41.29l.48-.877 3.509 1.922-.48.877-3.509-1.922zm7.45 2.884l-.48.878 3.509 1.92.48-.876-3.508-1.922zm6.526 4.78l.48-.877L86.055 50l-.48.877-3.508-1.922zm-51.01-17.743l-.49.871 3.573 2.01.49-.872-3.574-2.01zm34.91 20.718l.49-.871 3.574 2.008-.49.871-3.574-2.008zm-42.018-24.68l-.49.871 3.574 2.01.49-.872-3.574-2.009zm13.726 8.794l.49-.872 3.574 2.009-.49.872-3.574-2.009zm35.84 19.063l-.49.872 3.574 2.01.49-.873-3.574-2.009zm-14.656-7.14l.49-.87 3.574 2.009-.49.872-3.574-2.01zm-6.617-4.832l-.49.87 3.574 2.01.49-.871-3.574-2.01zm-7.508-3.043l.49-.871 3.574 2.008-.49.872-3.574-2.01zm-30.057-8.043l-.5.866 3.463 2.001.5-.866-3.463-2.001zm6.463 4.895l.5-.866 3.464 2.001-.5.865-3.464-2zm7.551 3.21l-.5.867 3.464 2 .5-.866-3.464-2zm27.526 17.08l.5-.867 3.464 2.001-.5.865-3.464-2zm-6.55-4.944l-.5.866 3.464 2.001.5-.866-3.464-2zm-14.513-7.241l.5-.866 3.464 2-.5.866-3.464-2zM63.68 60.394l-.5.867 3.464 2 .5-.867-3.464-2zM42.202 49.129l.5-.866 3.464 2-.5.867-3.464-2.001z" fill="#111"/></svg>