<svg width="691" height="366" fill="none" xmlns="http://www.w3.org/2000/svg"><path fill="#fff" d="M77 63h93v7H77z"/><mask id="a" maskUnits="userSpaceOnUse" x="0" y="0" width="691" height="366"><path fill="#C4C4C4" d="M0 0h691v366H0z"/></mask><g mask="url(#a)" stroke="#fff" stroke-linecap="round" stroke-linejoin="round"><path d="M185.927 263.804l-.792.791-.31.31m351.408-1.824l.069.068.034.035m-74.907 7.264l.034.103M292.162 287.97h.447m-.447 32.979h-.413M517.61 88.065l-.069.104-.034.069m-50.812 46.61l.034-.069v-.034M313.953 245.8l.103-.035.172-.069m2.789 7.436l-.069.034-.172.069h-.035m-2.135-7.917l.207-.068.138-.035.551-.172m2.891 7.711l-.447.172-.035.034-.378.138m-29.33-1.859h.102m-1.479-5.13l.069-.034.206-.069.241-.069.62-.172.137-.035m-1.652-4.234l.31-.068.138-.035h.069l.791-.206m-1.962-2.995l1.102-.241.344-.068.516-.104h.035m271.061 13.529l.103.034.069.034m27.883-135.22l-.034.034-.068.035m20.895 76.973h.241m-354.438-41.757l.414.104.826.206.344.104.826.206 1.102.275.172.035 5.955 1.583.345.104 2.168.585m-46.3 119.66v-11.016M545.356 44.793l-.034.069-.035.069M252.607 146.69h.103m342.597 68.988h.206m-303.351 105.96h-.207M581.778 18.355l.103-.138m-21.997-7.538l-.035.069-.069.103m-6.162-3.684l.069-.103.034-.035m38.797 20.448l-.241.276-2.754 3.201M548.592 4l-.241.344m5.68 3.03l.035-.034.069-.104m5.37 3.202l-.069.103-.035.069m27.816 11.773l-.069.069-.035.068M231.884 361.57l.137-.103.069-.034m-36.249 4.475v-3.683M545.7 45.103l-.034.069-.035.034m-45.028 81.656l-.034.034m-.86-1.033l-.035.069M257.668 275.198v-6.471m179.181-4.579v.069m-360.152 56.87H45.852M294.64 200.084h.792m-27.505-49.676l2.409.723 1.687.516.138.035 1.79.551m-21.24-5.543l2.134.62 3.546 1.033 1.721.482.104.034m-28.229 70.468h-.379m14.941-55.252l.344.069m141.692 66.165l.069-.035m163.863-44.236h.068M403.354 334.581l-.034.792v2.031l-.035.654-.034.447-.035.241-1.928 13.564-2.031 14.148-.378 2.686-.826 5.748-.035.173-.069.447-.551 3.856M168.577 264.354l.103.035.172.034.241.035 4.028.31 4.062.309.31.035h5.301l.448-.035.413-.034.344-.034.31-.035.241-.034.172-.035.103-.034.035-.035m1.067-1.067l-.069.034-.138.035-.241.034-.31.035-.378.034-.448.035-.516.034-.585.034-.62.035h-5.68l-.448-.035-.378-.034-4.097-.31-3.546-.275-.482-.035-.275-.034-.206-.034-.104-.035m3.27-13.735h-.86l-.345.034-.309.035-.241.034-.172.034-.104.035-.034.034.034.035.104.034.172.035.241.034 4.027.241 4.062.241h6.472l.345-.034.309-.035.241-.034.173-.035.103-.034.034-.035-.034-.034-.103-.034-.173-.035-.241-.034-8.124-.482h-5.577zm-3.236 1.239l.138.034.207.035.275.034 4.028.241 4.096.241.379.035h6.747l.585-.035.517-.034.447-.035.379-.034h.275l.241-.034.138-.035.035-.034"/><path d="M263.899 154.092l1.756.619 2.547.895 1.274.448 2.616.895 7.092 4.647.137.104 5.887 6.403 4.131 7.642 2.169 8.4.034 8.675m-2.065 8.4l-2.376 4.475-.069.138-1.618 3.063-5.817 6.438-.551.447-.551.448-.585.447-.551.448-.551.448-.551.447-.585.413-.585.413-.585.413-.585.413m-7.023-1.204l.585-.448.585-.482.586-.482.585-.482m194.466-22.341v.034l-4.372 27.058v.034l12.496 2.514 14.252.963 14.252-.929 14.01-2.754 13.529-4.579 12.806-6.299 11.877-7.918 10.741-9.398 9.432-10.706 7.952-11.842 6.334-12.806 4.613-13.495 2.789-14.011.963-14.252-.929-14.251-2.754-14.011-4.579-13.53-5.611-11.428-.551-1.136-.137-.241-2.961-4.441-.034-.069-.172-.275-.035-.07-1.549-2.306-3.167-4.75-8.916-10.19-.172-.207-.31-.344-2.857-2.513-.207-.172-1.032-.895-5.199-4.579-11.291 1.55h-.069l-.206.172-15.492 12.806"/><path d="M471.963 210.617l-.861-.378-.723-.586-.551-.757-.344-.86-.103-.93.138-.929.378-.861.585-.723.758-.551.86-.344.93-.103m-303.971 46.164l8.089.482m159.249 29.191l1.24-.929m8.572-121.175l-.207-.103-.241-.138-.241-.172-.206-.206-.276-.276-.447-4.578v-.276l-.035-.585v-.448l-.275-7.883.275-9.191.241-2.685.379-4.2.206-2.307.138-.964 1.274-8.124 1.996-8.985 2.582-8.847 3.133-8.64 3.683-8.434 4.235-8.16.137-.24.586-.964.963-1.618 3.03-5.06 3.959-5.75 1.273-1.824 5.715-7.23 6.162-6.85 6.575-6.437 1.446-1.24 2.857-2.444 2.685-2.306 7.367-5.543 7.677-5.06 7.987-4.544 8.261-4.028 7.299-2.995 1.239-.516 8.709-2.926 1.894-.516 7.022-1.86 4.51-.894.585-.035.276.035.275.068.275.138.241.172.207.172.207.207.172.24.137.276.104.276.034.275-5.37 7.23-3.271 4.44-.378.516-8.056 10.879-.206.275-.035.035-4.957 6.712-8.262 11.154-39.933 53.944-1.962 2.65-1.48 1.997-.034.069-.62.826-7.436 10.052-16.248 21.963-.138.207-4.82 6.506-.068.103-4.372 5.921-.069.069-6.334 8.572-.276.103-.275.069-.31.034h-.31l-.31-.034-.275-.069h-.275zm144.205 40.14l10.637-1.239m12.944 79.486l-2.203-11.153m1.411 8.158l-.138.103.792 2.754.103.103m-26.438-8.744l24.167-2.375h.069l23.305-7.057m2.995 7.711l-.103.138 1.308 2.547.138.103-.069-.172-4.269-10.327"/><path d="M530.416 265.594l.206 2.1-7.195 2.96-1.686-.447-7.746 5.473-.275-.895-.551-1.859-.104-.103m22.17-10.327l1.136.689.551.309.138.069m-1.825-1.067l-2.134.035-1.79 1.136-.93 1.927m7.677-.379l-1.136-1.687m.138.07l1.136 1.721m-.241.034l.138.103 1.342 2.548 6.541-6.885 1.756.103 6.472-4.303-.62-2.031M480.5 83.59l-2.926.379-6.679 2.754-1.308.55-6.403 4.923-.447.344-1.997 2.582-.069.069-3.201 4.165-3.305 7.987-1.033 7.746-.103.826m-.035 0l.138 1.033.241 1.928.723 5.611 3.305 7.986 1.273 1.653"/><path d="M458.502 134.332l-1.17-1.514-3.27-7.953-.758-5.886-.241-1.928-.103-.723M337.637 298.642v-40.277m-1.24 21.068v-25.406m57.524 127.097h3.099l.447-1.756.964-3.855.103-.448.035-.172 1.446-5.749.172-.723.482-1.962 1.48-5.783 2.1-8.331-2.1 8.331-.138 8.502-.034 1.377-1.033 4.372-.172-5.749-.069-2.685M249.165 229.035l-1.136.585m6.679-3.683l-1.102.654-1.102.619M537.163 2.76l-.413-.137-2.754-.999-9.467-2.72-9.639-2.1-9.742-1.445-9.811-.792-2.96-.034h-.999l-5.886-.07-1.377.07-8.469.447-9.777 1.17-9.673 1.825-5.37 1.377L446.764.42l-.104.035-5.99 1.996-3.373 1.102-9.123 3.718-8.881 4.303-8.572 4.888-8.228 5.44-7.849 5.99-3.786 3.304-3.133 2.754-.516.448-6.988 6.953-6.507 7.402-5.508 7.195-.482.654-5.439 8.227-1.101 1.928-1.033 1.79-.551.964-2.203 3.89-4.303 8.847-3.718 9.123-3.098 9.363-2.479 9.536-1.824 9.673-1.033 8.675-.138 1.136-.172 3.03-.379 6.816.138 9.845-3.477 4.028-1.102 1.274M461.05 275.715l2.203-11.153m-1.893 8.192l-.31 2.857.034.103m-21.102-18.21l23.271 7.057h.035l24.235 2.375v11.36l-.069-.103-.241-2.857"/><path d="M480.087 272.651l-.62 2.031h-7.746l-1.411-1.067-9.26 2.066.069-.551.241-2.307-.035-.103m24.407-1.068l.896 1.205.309.413.069.069"/><path d="M485.733 271.653l-1.963-.792-2.1.379-1.583 1.411m7.263 2.616l-.413-1.996m.104.069l.413 2.031m-.241-.035l.069.103.241 2.858 8.675-3.856 1.583.792 7.608-1.515.207-2.1m-69.986-3.649l4.337-10.5h-.034l-21.447-11.463-6.265 9.363-.034.069 1.376-2.513.035-.069"/><path d="M436.505 265.146l-.86 2.72v.103"/><path d="M454.888 268.727l-.999 1.859-7.607-1.515-1.171-1.308-9.501.241.103-.31.757-2.444v-.104m24.167 3.684l.895 1.859.034.069m-.929-1.928l-1.79-1.136-2.135-.035-1.824 1.067m6.644 3.959v-2.031m0 .07v2.065M291.99 320.984l.31-.069.068-.069 2.617-2.065 2.306-1.825m-6.713-.965l-.103-.963-.103-1.136-.069-.792-.035-.379-.103-1.721-.069-1.687v-.585l-.034-.723-.035-1.653v-2.444l.035-2.478.069-2.444.103-2.41.138-2.307.034-.585.138-1.549.206-1.859v-.103l.035-.276.206-1.48v-.034l.241-1.481.069-.24.207-.999.275-.929.31-.654.31-.345 3.821-2.065"/><path d="M292.403 288.107l.034.069.104.172.068.104.035.137.103.276.069.172.034.172.104.379.034.206v.069l.034.172.035.207"/><path d="M291.645 313.651l-.103-.379-.069-.379-.035-.172-.034-.241-.034-.172-.104-.654-.068-.516-.138-1.343-.035-.516v-.207l-.068-.757-.035-.379-.069-1.239-.069-1.687v-.344l-.034-1.412v-1.79l.034-1.79.069-1.755.104-1.687.103-1.584.103-1.033.035-.447.172-1.343.068-.516.104-.62.034-.241.035-.241.034-.172.034-.172.035-.138.172-.585.034-.172.207-.551.207-.31v-.034l.206-.103m.964 2.272l-.069-.379v-.069l-.172-.791-.206-.585-.207-.345-.206-.137m-1.997 28.71v.069l.241 1.446.138.62.103.551.275.86.276.551.103.103.138.104.069.034m221.317-48.161l-.792-1.893-.585-.517-.998-.895-2.1-.378-1.963.791-1.273 1.687M485.595 110.82l.551-.689.791-.963.104-.104.068-.069 6.644-8.261.069-.069.758-.964.068-.07 5.405-6.746 3.408-4.235.379-.482 5.129-6.403.482-.516.551-.447.585-.38.654-.309.654-.207.689-.137.688-.035.689.07.688.137.654.24.62.31.585.414.517.482.447.55.379.586.31.654.206.654.138.688.034.689-.069.688-.137.689-.241.654-.31.585"/><path d="M328.928 287.385l.068-.757v-.035l.104-1.067.103-.861.069-.619.516-4.613.103-.93.138-1.204.035-.414.034-.172 1.239-11.532.069-.482.035-.379.034-.172.034-.413.035-.31.138-1.342v-.138l.137-1.342.172-1.618.035-.207.103-1.033v-.137l.034-.345.035-.275.138-1.136.034-.344v-.138l.207-2.066v-.068l.137-1.24.035-.206.137-1.274.035-.275.034-.345.035-.378.206-1.825.104-1.101.103-1.102 1.514-2.1.827-1.136.585-.826 1.239-1.756 11.498-16.042.689-.964.619-.86.138-.207 16.248-22.651.035-.069 1.583-2.238 1.963-2.719 2.444-3.408.069-.069 22.789-31.774h73.29l.172-.207.241-.31.069-.103 1.756-2.169.413-.516 5.818-7.229.206-.276 1.171-1.446.034-.034 1.859-2.306.069-.069.069-.069v-.035l.172-.206.241-.31.034-.034.482-.62.413-.516.069-.069.207-.241.413-.517.138-.137 2.34-2.926.173-.241.791-.999.035-.034.206-.275.345-.448.034-.034.551-.689.069-.069.757-.929.034-.035.792-.998.035-.069 1.239-1.515.034-.068 6.748-8.366.172-.206 2.478-3.098.62-.758.034-.069.104-.137 2.306-2.858.035-.068 1.204-1.515.035-.069 7.057-8.778 3.683-4.579.379-.447 7.746-9.605.137-.172.895-1.274.723-1.377.517-1.445.344-1.515.138-1.515-.069-1.549-.276-1.515-.447-1.48-.654-1.377-.826-1.308-.999-1.17-1.136-1.033-1.273-.895-1.377-.723-1.446-.517-1.515-.344-1.515-.138-1.549.07-1.515.275-1.48.447-1.377.654-1.308.827-1.17.998-1.033 1.136-7.023 8.71-.413.516-3.511 4.372-6.025 7.435-.068.07-.895 1.135-.069.07-5.198 6.437-.792.963-2.685 3.34-8.434 10.465-.035.034-.929 1.171-.035.034-.482.585-4.991 6.197-.861 1.032-.792.999-.103.138-3.029 3.752-.172.206-.792.964h-76.079l-10.878 15.147-5.921 8.228-.104.137-3.683 5.164-.103.138-2.892 4.028-.103.137-.104.172-.068.069-1.859 2.582-.035.069-2.169 2.995-.103.138-7.711 10.74-16.868 23.512-.138.172-5.68 7.953-1.411 1.996-9.467 13.219-2.1 2.926-.138.173-.034.206-.035.275-.034.31-.103.895-.035.276-.034.241-.035.447m-12.875 65.476l-.86 1.859-1.515 3.27-.516 1.102-.104.206-.482 1.033-.619 1.343-.482 1.032-.069.173-.172.378-.172.379-.276.585-.309.689-.069.137-.413.861-.104.172-.206.448h26.163l.206-.173.62-1.342"/><path d="M466.626 135.055l.104-.31.103-.241.31-.62.413-.585.138-.172.309-.379 4.028-4.991.241-.31.035-.035.068-.068.723-.895.035-.035.516-.654 6.162-7.642.035-.035.757-.929.069-.069.344-.413"/><path d="M328.824 286.627l.103-1.067.069-.757.069-.758.517-4.613.103-.929.138-1.205.068-.585.138-1.274 1.274-11.704.172-1.653.034-.172.138-1.342.207-1.894.034-.206.069-.586.206-1.962.035-.275.275-2.444.31-2.754.034-.241.035-.31.034-.379.345-3.132.103-.792 3.098-4.303 1.239-1.756 11.429-15.939 1.309-1.824.137-.207 17.798-24.82 1.962-2.72 2.616-3.683 22.79-31.774h73.393l.379-.448 1.825-2.237.413-.517 5.817-7.229 1.377-1.721.035-.035 1.859-2.306.069-.069.068-.069.173-.241.275-.344.482-.585.413-.517.069-.068 3.064-3.787.172-.241.826-1.033.585-.723.585-.723 1.653-2.065.034-.069 8.021-9.949.172-.206 3.167-3.925.104-.137 2.306-2.858.035-.069 8.33-10.327 3.684-4.578.379-.448 7.848-9.742M316.431 316.646l.723-1.515 1.102-2.409"/><path d="M517.851 87.72l-.104.138-.31.448-5.714 7.126-.379.482-3.304 4.096-5.784 7.195-.034.069-.861 1.067-.034.069-5.749 7.16-.792.964-.379.482-.034.069-2.1 2.616-1.515 1.894-8.365 10.396-.103.138-.035.034-.86 1.067-.035.035-5.336 6.644-.482.516-.447.379-.069.069-.034.034-.31.207-.103.068-.207.138-.654.31-.689.206-.688.138h-.31l-.413.035-.688-.069-.689-.138-.654-.241-.62-.31-.585-.413-.516-.482-.104-.137-.068-.069-.276-.31-.275-.413-.103-.172-.31-.654-.207-.689-.138-.688-.034-.689v-.103l.034-.241.035-.344.138-.689m19.003-24.338l1.342-1.686 6.782-8.469.069-.069 6.231-7.745 3.408-4.234.378-.483 5.267-6.575.482-.516.551-.448.585-.378.654-.31.689-.207.688-.137.689-.035.688.07.689.137.654.24.62.31.585.414.516.482.448.55.378.586.31.654.207.688.137.689.035.688-.069.689-.138.688-.241.654-.31.62m-51.259 47.368l.104-.31.137-.344.31-.62.413-.585 4.407-5.508.241-.31.034-.034.069-.069 1.274-1.583 6.162-7.677.034-.035.758-.963m-96.355 94.702l15.457 18.83-7.849 7.849-.172.172 1.859-2.203m15.628 10.259l-1.652 1.343-6.472-4.303-.551-1.652-8.847-3.409m22.135 14.251l.758-1.824-.104-2.134-1.204-1.756-1.928-.861-2.1.31m-95.598-.688l-.241.138-.654.413-.448.482-.275.275-.069.138-.413.757-.241 1.033v.172l.034.861.31.998.551.895.034.035.723.688.93.482h.034l.517.138.447.103 1.033-.034.138-.035.86-.275"/><path d="M316.844 253.201l.069-.035.138-.069.688-.413.62-.654.103-.103.482-.93.241-1.032-.034-1.033-.31-.998-.551-.895-.757-.723-.93-.482-.138-.035-.895-.206-1.032.034-.276.069-.757.207"/><path d="M317.154 253.098l.895-.551.344-.378.345-.379.482-.93.241-.998-.035-1.033-.31-.998-.55-.895-.758-.723-.929-.482-.551-.137-.482-.104-1.033.035-.516.172-.482.137m-21.619-4.75h14.906v22.583"/><path d="M293.436 241.084v8.262l.241.138 1.342.86.31.207 1.033.688.069.035 2.065 1.342 2.134 1.412v9.053m6.507 0h-6.507l-1.17.516"/><path d="M307.137 263.598h-7.677v-9.157l-3.305-2.169-.069-.034-1.205-.792-.378-.241-2.066-1.343-.241-.137v-8.641m22.17-.551l-.069.035-.172.068-.654.276-.413.172-.827.344-1.79 1.446-.413.551-.31.413-.413.585-.241.31-.172.448-.654 1.686-.034.413v.104l-.138 1.239-.069.516.207 1.309.137.963.138.345.757 1.755.104.104.998 1.273.344.413 1.859 1.343.069.034 1.48.586.448.172.137.069 2.273.241 1.204-.173 1.068-.172.619-.275.93-.413.413-.172.137-.069m-6.953-15.939h.069l.791-.138.999-.138.413-.069 2.272.241 2.134.827 1.859 1.342 1.446 1.79.929 2.1.345 2.272-.104.826-.034.379-.103 1.102-.345.86-.482 1.274-1.342 1.859-1.756 1.411-.034.035"/><path d="M317.912 252.96l.55-.241.448-.172.861-.654.654-.861.413-.998v-.104l.034-.378v-.035l.069-.585-.138-1.033v-.034l-.413-.998-.516-.689-.138-.207-.86-.654-.999-.413-.206-.034-.861-.103h-.103l-.758.103-.241.034"/><path d="M316.087 240.016l2.238-.344 1.927.206.345.035 1.514.585.585.241 1.825 1.343 1.411 1.755.93 2.066.344 2.237-.172 1.446-.034.379-.035.447-.86 2.066-1.205 1.652-.104.172-1.755 1.412"/><path d="M315.983 253.477l1.033-.138.861-.344.172-.069.413-.31.482-.344.654-.861.413-.998.069-.448v-.069l.069-.585-.138-1.101-.413-.999-.654-.86-.861-.654-.998-.414-.929-.137-.173-.035h-.103l-.757.104-.138.034h-.103l-.998.413-.517.413m-25.474 5.267l-.826.378-.757.482-.482.414-.207.172-.62.654-.516.723-.413.791-.31.827-.206.86-.069.895.034.895.172.895.276.861.378.826.482.758.586.688.654.62.723.516.791.413.827.31.86.206.895.069.895-.034.895-.172.827-.276"/><path d="M292.747 264.114l-.861.275-.895.172-.895.035-.895-.069-.86-.207-.826-.31-.792-.413-.723-.516-.654-.62-.585-.688-.482-.758-.379-.826-.275-.86-.173-.895-.034-.895.069-.896.206-.86.31-.826.413-.792.517-.723.619-.654.31-.276.379-.309.757-.482.103-.035.723-.344.104-.034.757-.241.62-.104.241-.034.86-.034h.035l.895.068.137.035.758.172.826.31.757.378.035.035.31.206.034.035.344.241.035.034.103.103.551.517.585.688.206.345.138.206.138.207.379.826.275.861.103.516.035.241.034.138.034.895-.068.895-.035.137-.138.654-.034.069-.103.31-.207.516-.413.792-.516.723-.62.654-.688.585-.586.379-.172.103-.688.31-.069.035h-.069zm-5.68-26.231l.172-.035.516-.103h.035l.378-.069 1.446-.275 2.169-.138.413-.034h17.729m-11.257 36.834l1.17-.585m-5.542-.964h3.58l1.997.964v9.053m5.129 0h-5.164l-1.17.654"/><path d="M299.219 264.527h9.157v5.612h18.21v13.081h-27.953v-9.157l-1.996-.998h-3.58"/><path d="M293.057 267.453v5.646l1.239-.585v-5.612"/><path d="M299.219 264.527l-6.162 2.926 1.239-.55 5.026-2.376m-24.51-13.185l1.101.447.069.035.516.206 2.548 1.067-.517 1.515-.309 1.549-.104 1.584.104 1.583.309 1.549.517 1.515.688 1.412.895 1.308.517.585-1.102.964-.447.379-.827.722-.516.448-.207.172-.206.172-.069.069-.034.034m9.398-22.651l-.241.069-1.274.413m-.448-4.544l1.584-.516m-.826.172l.791-.172.104-.035 1.239-.241.069.413.447 3.305.104.723v.103"/><path d="M288.685 245.696l-.757.138-.276.069-.31.069-.206.034m-.241.069l-1.309-3.132-.413-.999-1.308.345"/><path d="M285.621 246.522l-.93-2.237-.826-1.997 2.066-.688m-8.779 7.401l2.582 1.48.585.344"/><path d="M281.903 243.252l.241.379.035.068.241.448.723 1.239.516.861.551.929-1.205.827-.103.068-1.205 1.033-.069.069-.998 1.136-.31.482-.172.241-.414.585-.206-.103-3.27-1.893-.517-.31"/><path d="M281.903 243.252l-1.824 1.205-1.653 1.446-1.446 1.652-.344.516-.895 1.309.62-.173.757-.206 1.205-1.79 1.446-1.618 1.618-1.446.723-.482"/><path d="M285.07 238.33l-2.479.861-.344.172-.688.344-1.308.654-2.169 1.446-1.962 1.721-1.722 1.962-1.446 2.169-.413.861-.826 1.549-.86 2.479-.517 2.581-.138 2.1-.034.517.172 2.616.517 2.582.86 2.478 1.171 2.341.206.276.069.069.585.895.138.206.034.035.31.481.138.207.516.585.93 1.067.275.345.069.069.103.103 1.584 1.377.206.206.104.069.964.654.344.241.619.413.138.104.103.068.964.482 1.274.62.516.172 1.963.654 2.581.517 2.617.172 2.616-.172 1.067-.207.861-.172.654-.138 1.205-.413v8.434"/><path d="M274.812 251.342l-.689 2.065-.413 2.135-.138 2.168.138 2.169.413 2.134.689 2.066.963 1.962 1.205 1.825.069.103.069.069.103.138.138.137.344.379m7.367-30.363l1.549-.31.517-.103.138-.034.344-.069 2.616-.172h38.349v47.471"/><path d="M296.809 311.103l-.069-1.824v-.448l-.034-.86-.035-1.515v-21.378h31.947m-57.8-63.238l-.998.654-.999.654-.998.62-1.033.619-1.032.62-1.033.585-1.033.585-1.067.551-1.067.551-1.067.516-6.162 2.169-1.068.379-.585.206m.345-2.926l1.101-.62 1.102-.619m-49.985-57.868l-5.611 6.885-3.856 7.986-1.893 8.675.206 8.882 2.272 8.572 4.2 7.814 5.921 6.61 7.298 5.06 2.032.792 6.23 2.41 4.992.688 3.821.516h.138l6.127-.619 1.859-.172.723-.069m39.072 35.285l-.413-.447-1.205-1.79-.963-1.963-.689-2.065-.413-2.134-.138-2.169.138-2.169.413-2.134.413-1.205"/><path d="M251.609 150.787l-.551-.034h-.068l-.241-.035-2.582-.241-3.236-.275-2.582-.241-4.544.723-4.613.723-8.503 3.649-1.721.964-1.721.998-1.687 1.033-1.687 1.067-1.652 1.067-1.618 1.102-1.618 1.136-1.584 1.17-1.583 1.205-1.55 1.205-1.549 1.239-1.514 1.274 4.303 5.336 1.205 1.514 1.239 1.55-4.028 4.922-.551 1.102-.068.103-.069.138-.276.551-.034.069-.103.24-.379.792v.035l-.275.55v.035l-.482.998-.035.069-.344.723-1.274 5.887.138 6.024 1.549 5.852.757 1.412 2.1 3.924 4.028 4.51 2.1 1.48 2.857 1.962.344.138 3.099 1.205 2.168.826 1.24.172 4.234.585.516.069m4.2 42.859v-13.116l-.034-.172v-.034l-.035-.103-.034-.138m-13.908 12.806h-.172l-.344-.035-.241-.069-.103-.034m.344.103l.138.035.378.034m11.292-13.597h-3.615l-1.515-.035-1.205-.034h-.206l-1.274-.035-1.101-.034h-.207l-.344-.034-.344-.035-.689-.069-.31-.034-.206-.035-.276-.068-.034-.069.172-.069.379-.069h.137"/><path d="M185.927 262.186l32.6 1.067.826.034.93.035h.447l6.162.206.241.035.241.034.241.034.241.035.241.034.241.035.241.034.241.035.241.034.241.034.241.069.241.069.241.069.241.069.103.034.138.035.138.034-.964-.069-.138-.034m1.308.104l2.513-.104m379.465-69.572l-10.5-4.338m7.505 3.305l.034.172 2.72.861h.241m-21.963 17.143l11.429-21.378.034-.103 7.057-23.305m7.987 1.789l.069.173 2.857.309.275-.034-.275-.069-10.844-2.169 2.375-24.166v-.103l-2.375-24.166v-.069"/><path d="M613.552 175.332l1.859.998-1.515 7.608-1.308 1.171.241 9.501-1.136-.379-1.584-.516h-.241m3.787-24.131l1.825-.861.103-.035m-1.928.895l-1.136 1.79-.035 2.134 1.068 1.825m3.821-6.609h-1.928m.138-.069h2.065m-.206.206l.241-.034 2.857.31-2.065-9.26 1.067-1.412v-7.78l-2.031-.62M251.712 371.726h1.412l.688-.035.62-.034h.207l.481-.035.586-.069.55-.068.517-.069.447-.069.379-.103.31-.104.206-.103.241-.241.035-.034.929-.861v-12.84h-5.508l-.516.447-.654.551-.826.688m-.104 2.893h-5.37l-2.1 1.721-.069 3.718h7.539m-7.47-3.719h7.436m.034 8.365v-13.012 13.012z"/><path d="M251.712 358.713h1.377l.654-.034m.001 0l.688-.034.62-.035.585-.068.551-.069.516-.069.448-.069.378-.069.31-.069.207-.069.964-.826.275-.206m22.548-133.844l-.551.379-.929.654m191.952-13.977l-.791-.241-.723-.448-.585-.585-.414-.723-.206-.792.034-.826.241-.792.448-.722.585-.586.723-.413.792-.206.826.034h.034l.792.241.723.448.585.585.413.723.207.791-.034.827-.241.791-.448.723-.585.586-.723.413-.792.206-.861-.034z"/><path d="M473.271 204.008h-.826l-.792.206-.723.413-.585.586-.413.723-.241.791-.035.827.207.791.413.723.585.585.723.414.448.137.344.104m.378-1.343l1.584-.86.034-1.825m.035 0l-1.55-.929"/><path d="M472.754 208.999l-1.549-.929.034-1.825 1.584-.86m.034-.034l1.55.929-.035 1.825-1.583.86m62.274 48.539l21.481-11.497 18.83-15.457m-17.694 20.345l1.859.654.138.068"/><path d="M557.681 250.895l-2.066.447-1.515 1.48-.516 2.066m9.294.551l-.172-.069-1.79-2.237.069-.173-1.446-1.445m.172.068l1.446 1.446"/><path d="M560.916 253.132l.172.069 1.79 2.237 5.061-8.021 1.755-.241 5.508-5.508-.998-1.858m12.428-123.482l.688-.447.551-.62.379-.723.172-.826-.035-.826-.241-.792-.447-.689-.62-.551-.723-.378-.826-.172-.826.034-.792.241-.688.448m3.407 5.301l-.792.241-.826.034-.826-.172-.723-.379-.619-.55-.448-.689-.241-.792-.034-.826.172-.826.378-.723.551-.62"/><path d="M583.189 111.061l-.551.619-.378.723-.173.792.035.826.241.792.447.688.62.551.723.379.792.172.826-.034.792-.241"/><path d="M586.941 112.989l-1.342-1.239-1.653.516"/><path d="M587.045 112.92l-.414 1.79-.103.034-1.652.517-1.343-1.24.379-1.721v-.034"/><path d="M583.981 112.231l1.721-.55 1.343 1.239-.104.069-.378 1.721m13.735-47.368l-9.432 6.3m9.191-6.129l.241-.206m20.001 49.021l.275-.138-.309.069-10.844 2.169-7.057-23.272v-.068L590.9 73.64v-.035l-9.914-12.083m3.683-5.506l1.859-.998 5.508 5.508.241 1.755 8.021 5.06-.31.242-1.927 1.549-.241.206m-217.875 134.43l.344.619.792 1.48 3.133 5.818-9.433 6.3"/><path d="M379.291 212.855l-.689 1.997-1.411 1.412m2.1-3.409l-.447-2.065-.792-.827-.689-.723-.55-.137-.689-.172m.86 7.298l-2.237 1.79m225.551 0l-9.432-6.3-.069.069-15.388 18.761 7.883 7.883.173.173-.207-.069-2.203-1.859.034-.172"/><path d="M597.579 216.436v.172l2.513 1.377.241.034"/><path d="M604.773 199.292l1.653 1.343-2.961 7.194-1.514.895-1.618 9.364-1.102-.585-1.411-.792-.241-.034m8.4-22.997l1.927-.482.138-.034m-2.065.517l-1.481 1.514-.447 2.066.688 1.996m5.095-5.714l-1.928-.379m.138-.034l1.962.379M430.79 134.332v.069l-.034.688v.207m.103-.62l-.068-.344h.068l.413.069.723.103 4.097.62.551.069.723.103m86.096-87.198l-20.311-15.56-1.101-.826-2.548-1.067-2.719-.344-1.722.24-.86.104-.172.035-2.548 1.067-.137.103-1.859 1.411-.207.138-17.901 15.87-16.317 14.458-11.533 10.224-.034.035-.723-.344-1.962-.62h-.069l-.792-.241-.069-.034-.413-.138-3.373-.62-1.79-.103-1.653-.069-2.513.207-.929.069-3.374.688-3.27 1.102-3.099 1.514-2.857 1.894-2.616 2.237-2.307 2.548-1.962 2.823-1.583 3.029-1.205 3.236-.792 3.339v.172l-.344 3.27.034 1.584.035 1.859.069.344.034.138.448 2.892.929 3.304m2.478 5.646l.069.241.345 1.033.344 1.273.275 1.308.207 1.309.137 1.342.069 1.343v1.342l-.069 1.343-.172 1.342-.241 1.309-.86 1.101-.723 1.171-.551 1.273-.413 1.308-.241 1.343-.069 1.377.069.861m-.585-27.265l.138.31.241.585.964 2.272.55 1.205.482 1.24"/><path d="M430.859 135.296l.035-.309v-.31h.069l.137.034.723.103 3.305.482m-27.505-26.748l.378.895.964 2.272.551 1.205.413 1.033m-16.076 254.605v-4.096l-.276-6.92-.034-.619-.034-.585v-.379l-.069-1.893-.138-3.615-.034-.585-.379-9.467-.654-17.212h-17.109l-14.287 25.68-.068.173-.069.275-.069.413-.069.516-.034.62-.035.689-.034.757-.035.826-.034.895-.035.895v1.859"/><path d="M381.184 356.717v-2.754l.034-.895.035-.826.034-.758.035-.688.034-.62.035-.516.034-.413.034-.276.035-.172.241-.619.172-.448.069-.172 1.101-2.651.276-.688m7.539-18.005v2.031l-.034.861-.035.722-.034.482-.035.241h-.068l-.035-.275-.034-.551-.035-.757v-1.894h-7.849m9.433-3.924l-.929 2.272-.31.792h-7.815"/><path d="M383.869 343.222v1.927l-.034 1.033-.034.895-.035.654-.069.379-.069.069v-.035l-.034-.206-.034-.516-.035-.758-.034-.964v-1.48h-8.916m16.007-17.212l-1.377 3.305-.069.206-2.306 5.543-1.515 3.683-1.446 3.477h-8.881"/><path d="M374.953 344.254v-1.032l-.344.688-.172.344m8.262-17.246l.378-.792v.792m198.15-90.469l-1.652-1.101-.551-.069-1.549-.207-1.928.861-1.205 1.755-.103 2.135"/><path d="M581.02 236.678l.207.034 2.203 1.859 3.408-8.847 1.652-.551 4.303-6.472-1.342-1.652m-294.918-19.107h.035v.276l.034.275h-1.136v.448l.035.206v.207l.034.172v.034h-.551m.448-2.65v1.067"/><path d="M294.916 202.597l.034.206v.276l.034.206v.172l.035.172v.035m1.549-1.722l-.654.035-.379.034h-.103.207"/><path d="M295.501 204.49h.103l.379-.069h.069l.103-.035.344-.172.069-.034.035-.035.068-.034.276-.241.069-.034.069-.104.206-.31.034-.068.035-.104.138-.378.034-.069v-.551l-.034-.103-.069-.379v-.069l-.035-.103-.172-.344-.034-.069-.035-.035-.034-.034-.034-.034-.241-.276-.035-.069-.103-.069-.207-.137-.103-.069-.069-.034-.103-.035-.379-.138-.069-.034h-.103l-.31-.034m-1.17 2.444h-.31m1.067-1.722l.482-.034m-.413 1.137v-.069l-.069-1.033h-.069m-.964 1.171l.414-.035.55-.034h.138-.103m.103.55h-.172"/><path d="M294.881 202.012l-.172.034h-.86m.757-1.859l-.516.241-.448.378-.31.482-.206.551-.035.585.069.413v.104m.723-.31v-.551h.069l.034.379v.172m-.792.345l.241.516m1.997-2.582h-.551v1.067m1.653-.035h-.895m-.723.655h-.448m-.964.964l.31.378.31.207.172.137.344.138.173.069.241.034h.378m-.344-.86v-.103l-.069-.999h-.103m-.723.069h.275m-18.658-36.594l-6.231-6.781-7.677-5.061m28.538 171.332l-2.34 1.894-.792 1.136-10.19 13.391-4.372 5.749M243.657 237.71h.551v-.035l-.034-.172v-.172l-.035-.206-.034-.207v-.275m-.62-1.687h.551v1.067h.998"/><path d="M243.52 236.643l.034.206v.069l.034.207.035.206v.172l.034.172v.035h.104m.481-1.136l-.138.034.138-.034zm0 0h.999l-.035-.276v-.069m-1.067 2.238h.069l.207-.034.172-.035.103-.034.069-.035.344-.172.103-.034.035-.035.31-.241.103-.068.034-.069.207-.31.069-.103.034-.069.138-.379.034-.103v-.069l.035-.379v-.206m-3.718.585h1.033m-1.068-.551h.861l.172-.034h.138l-.069-1.102m.172 2.686l-.069-1.102m-.137.069l.137-.035-1.101.069"/><path d="M242.452 236.127v.275l.035.276h.103l-.035-.551"/><path d="M243.106 234.302l-.378.172-.448.379-.31.482-.103.275-.103.275-.035.586.104.55.241.517.378.447.482.31.551.172.585.035m-.585-3.546v1.067m14.562 151.573l.068-.516.345-2.1-.104-.861-.413-3.408.241-1.411.241-1.308.689-3.099.069-.378h2.719l.035.378.344 4.407 1.136-4.407-.172-3.477-.104-1.652-.034-.344-.138-2.513v-.207l-.034-.723v-.241h-3.684"/><path d="M261.627 370.797l.826-3.133.103-.31.345-1.342.069-.241"/><path d="M258.288 370.797h3.304l.689 8.503v-.035l.241-.895.482-1.79.413-1.652-.172-3.477-.104-1.653.448-1.514.929-2.272m8.228-145.549l-.964.688-.964.689m4.338 17.591l-3.305 1.549-5.852 2.307-.998.241-2.72.688-2.41.585-6.265.723-6.3-.103-6.231-.929-6.058-1.722-5.784-2.513-5.404-3.236-4.923-3.924-3.236-3.339m3.684 44.511l.034.104.275.103.482.103.689.069.344.034.551.035h.275l.826.034h.173l1.101.035 1.412.034 1.514.035 1.618.034h5.129l1.687-.034 1.653-.035 1.549-.069h.275l1.171-.069.516-.034.792-.034 1.17-.069.964-.104.792-.103.585-.103.207-.069.172-.034.138-.104m-21.137-26.403l.241-.069.757-.069 1.239-.069 1.618-.069 1.893-.034 2.066-.035h3.993l1.687.035 1.308.034.861.069.344.069-.206.069-.758.103-1.239.069-1.618.069-1.928.034-2.065.034h-4.062l-1.687-.034-1.308-.069-.827-.069-.309-.068zM357.431 66.86l-.31-.31-.551-.517-.688-.654-.861-.757-.964-.86-1.101-.965-1.205-1.032-1.274-1.068-1.308-1.101-1.343-1.102-1.342-1.101m-51.74 87.266h-.138l-.31-.137-.482-.31-.62-.413-.791-.551-.93-.689-1.033-.791-1.136-.896-1.239-.963-1.308-1.033-1.343-1.067-1.377-1.102-1.342-1.101 63.066-77.456.689-.86"/><path d="M387.174 30.37l-1.377-.276-4.613-.551-4.613-.138-4.613.276-4.578.688-4.51 1.067-4.406 1.446-4.234 1.825-4.062 2.203-3.856 2.547-3.615 2.858-3.373 3.167-3.064 3.442-63.824 78.351-8.881 10.878m68.471 166.96l-.586.551m-1.927.001h1.927l-.034.551-.069 1.274-.034.481-.035.689-.103 1.067-.103.93-.103.757-.138.585-.138.413-.138.241-.103.035h-.034l-.138-.138-.138-.344-.137-.517-.104-.688-.068-.482-.035-.379-.103-1.033-.069-1.136v-.034l-.069-1.274-.034-.998zm0 0v-4.751l.034-1.48v-.206l.035-1.24.034-.516.034-.861.035-.447.034-.861.104-1.17v-.035l.103-1.067.103-.929.138-.758.137-.585.035-.103.103-.276.138-.206h.138"/><path d="M330.132 321.121l.104-.035.103-.034.206-.207 1.102-5.714.379-2.031v-7.987h-2.513m-.895-20v21.344l.034 1.514v.861l.069 2.272.069 1.618.034.516.138 1.894v.034l.138 1.687.172 1.446.206 1.17.172.689.035.172.206.551.173.206.034.035m.55-30.88l.138.172.138.379.138.551.103.723.103.86.103 1.033.069 1.136.069 1.136v.103l.034 1.343v4.751m.586-6.197v-8.847l.998-.757 1.377-1.067"/><path d="M329.478 302.463h2.031l.275-.241 3.271-2.961v-2.685l.034-1.343.035-1.308.069-1.239.068-1.17.069-1.068.104-.964.103-.86.103-.723.103-.551.104-.413.103-.241.034-.069.069-.034m-1.583 7.608l-2.375 2.031"/><path d="M334.47 285.561v8.675h-2.375m3.958-7.643l.103.069.104.241.103.413.103.551.104.722.068.827.069.964.069 1.067.035 1.17.034 1.239.034 1.274v2.651l-.034 1.308v.034m-2.272 3.615v7.78m3.064-31.98l-1.24.93-6.334 4.613-.86.619m-31.912 31.946l.034.207v.103l.207 1.343v.069l.103.413.035.138.103.516.034.069.173.619.068.173.104.206.068.138.104.241.275.241m39.176-62.034l.069-.138.24-.826.104-.86v-.861l-.104-.861-.24-.826-.173-.447M545.563 44.484l.275-.792.035-.826-.173-.826-.378-.758-.551-.62-.689-.447-.791-.275-.827-.035-.826.172-.757.38-.62.55-.31.447-.172.241m.001.104l-.276.792-.034.826.172.826.379.757.55.62.689.448.792.275.826.034.826-.172.757-.378.62-.551.241-.345.206-.344"/><path d="M545.563 44.484l-.069.103-.379.585-.619.551-.758.379-.826.172-.826-.035-.792-.275-.689-.447-.55-.62-.379-.758-.172-.826.034-.826.241-.757v-.035"/><path d="M543.876 44.45l.551-1.619-1.205-1.377"/><path d="M543.291 41.35l-.069.138-1.756.345"/><path d="M541.5 41.73l1.79-.38 1.205 1.378-.585 1.72h-.034l-1.756.345-1.205-1.377.551-1.618.034-.069zM335.95 299.95l-.413.482-.344.517-.276.55-.206.586-.035.137-.103.448-.034.619v22.342h9.501l.447-.551v-15.215l.345-.379v-6.988h-.379"/><path d="M344.866 302.497l-.344.345-.034-.345v-.275l-.138-.62-.207-.585-.275-.551-.344-.516-.413-.482-.482-.413-.517-.344-.551-.276-.585-.206-.619-.138-.62-.034-.62.034-.619.138-.586.206-.344.172-.206.104-.517.344-.034.034-.448.379"/><path d="M344.074 325.631v-22.342l-.034-.448v-.172l-.035-.206-.069-.413-.206-.586-.275-.55-.345-.517-.413-.482-.482-.413-.516-.344-.551-.275-.585-.207-.62-.138-.619-.034-.62.034-.62.138-.482.172-.103.035-.551.275-.516.344-.31.276-.138.137M548.833 3.518l-6.093-2.444M270.922 366.287l-.31 4.751m1.308-.001l.103-1.067-.964-3.339-.172-.379h-1.239"/><path d="M270.302 371.037l-.344-.723-.172-.344-.207-.413-.103-.206.138-3.064.103-2.444-1.033-1.274-.275-.069h-1.171"/><path d="M268.477 362.5l-.103 3.787-.069 1.824h-.103l-.482-.034-.448-.035h-.137m-1.239 1.171l-.517.93-.482.895-.206.378v.035l-.069-2.203-.035-1.136-.034-1.343-.034-.757h-1.584"/><path d="M267.169 368.077l.034-4.235v-1.446h-2.65l-.999.62-.378.551v2.375"/><path d="M265.861 363.636v.378l.035 4.063v1.101h-1.274"/><path d="M267.238 362.431l-.138.103-.86.551-.344.551v.034h-2.686M536.75 2.623l-2.754-.999-9.467-2.72-9.639-2.099-9.742-1.446-9.811-.792-2.995-.034-6.851-.103-1.411.069-8.434.447-9.777 1.17-9.673 1.825-5.405 1.411L446.66.42l-6.024 1.996-3.339 1.102-9.123 3.718-8.847 4.303-8.572 4.888-8.227 5.44-7.849 5.99-3.787 3.304-3.649 3.167-6.954 6.954-6.506 7.401-5.508 7.195-.482.62-5.439 8.227-1.102 1.928-1.583 2.754-2.203 3.856-4.304 8.847-3.717 9.122-3.099 9.364-2.478 9.535-1.825 9.674-1.032 8.675-.138 1.136-.517 9.845.138 9.846v5.749M547.732 6.926l-.999-.413-3.477-1.515-1.859-.688m51.052 32.806l.689-.757.516-.585.345-.379.172-.207-.172.207-.345.379-.516.55-.689.723-.172.172"/><path d="M585.22 30.439l2.651 2.444 4.578 4.234-.138.172-12.014 16.214-.172.241-2.272 3.064M274.846 275.612l.62-.035.585-.034m-14.699.31l5.68-.069h1.824l1.446-.035 1.239-.034m66.096-16.283l.137-.344.207-.896v-2.099l-.103-.655-.207-.688m-.034 1.481v-3.339M612.829 90.785l-10.5 4.338m7.712-2.858l2.547-1.308.241-.172m-13.116-14.149l2.031-.62 4.303 6.472-.103 1.756 6.885 6.54-.551.276-1.997 1.033-.241.172m-12.358-23.031l-1.24 1.24-.688 1.996m.448 2.1l1.48 1.515 2.065.516m-346.554 72.362h-.792l-.207.034v.276l.035.206.034.207v.206l.035.172v.035h-.517m.344-2.754v1.067m-.55-1.033v1.067m.034.585l.035.207v.069l.034.206.035.207v.206l.034.172v.035m1.549-1.721l-.86.035h-.173l-.103-.035h.172"/><path d="M252.332 148.446h.93v.345m-1.446 1.342l-.069-1.067-.138-.035h-1.032m1.067-1.618l.447-.034m-.379 1.136l-.068-1.102-.069-.034h.55m-1.514 1.205l1.101-.069-.137-.035-.172.035m0-.035h-.861"/><path d="M252.47 146.622l-.585-.034-.551.103-.517.241-.447.379-.31.482-.172.551-.034.585.103.551.069.172.034.103.138.275"/><path d="M250.576 149.101l-.034-.276v-.275l.069.034.034.517m3.615-.517v-.034l-.069-.379v-.069l-.034-.103-.138-.276-.034-.068-.035-.069-.069-.069-.241-.276-.068-.068-.104-.069-.31-.207-.068-.034-.104-.035-.344-.137-.069-.035m-2.031 3.752l.413.276m372.201-8.021h-11.36m11.085.103l.275-.103m-6.713-18.073l2.1.206 1.515 7.608-.792 1.584 3.856 8.675-.999.103-1.858.172-.241.069m-2.858-25.921l-1.411.585-1.412 1.584m3.202-2.101l.241-.137 2.754-.792-5.473-7.746.447-1.687-2.96-7.194-2.1.206m-266.173 42.859l.275 7.883v.413l.035.62v.276l.447 4.578.207.241.206.207.241.172.241.137m2.926-50.949l-1.996 8.985-1.274 8.09-.172.998M462.289 3.173l-.034-.275-.104-.275-.137-.276-.173-.24-.206-.207-.207-.172-.241-.173-.275-.137-.275-.07-.276-.034-.585.035-4.51.895-6.954 1.859-1.927.516-8.71 2.926-1.273.517-7.23 2.96-8.262 4.028-7.986 4.544-7.677 5.06-7.332 5.543-2.651 2.272-2.857 2.444-1.481 1.274-6.575 6.437-6.162 6.85-5.714 7.23-1.274 1.825-3.959 5.748-3.029 5.06-.964 1.619-.585.964-.138.24-4.269 8.194-3.683 8.434m239.183 127.028l1.963-.103h.172m-2.135.102l-1.755 1.205-.861 1.963.31 2.099m6.127-4.647l-1.824-.757m.138 0l1.859.757m18.727-71.982l1.618-1.239.069-.034m-2.444 3.235l.378 2.1 1.412 1.583m.688-6.918l2.031-.413M206.065 304.494l-.275.138-.172.069-5.956 3.27-2.375 1.308-6.266 3.443-15.594 8.537-1.136.689-1.067.791-.999.895-.929.964-.723.93-.103.137-.723 1.136-.62 1.171-.516 1.239-.413 1.274-.31 1.308-.172 1.343-.069 1.342V409.8h71.397l2.1-2.169v-3.89m49.331-87.577l-.069-.619-.034-.448-.138-1.515-.034-.275-.035-.585-.069-1.308-.103-2.135v-.447l-.034-.861-.035-1.308v-2.513l.035-2.547.069-2.513.103-2.445.138-2.34.034-.62.103-1.308.035-.276.172-1.824.034-.172.035-.207.172-1.377.034-.241.276-1.549.034-.103.275-1.171.31-.964.31-.654.31-.344 3.305-1.79m-3.787 43.857l.172-.035.207-.069.929-.757v-3.821h-.861m-2.926-13.735v14.148l-.034.413-.069.964-.103.689-.138.688-.172.689-.276.826v.034l-.137.448-.276.654-.31.619-.344.62-.792 1.136-9.776 12.841-4.269 5.645"/><path d="M288.1 327.421l.344-.585.31-.62.275-.619v-.035l.138-.447.137-.379.138-.447.172-.655.138-.688.103-.689.035-.585.034-.792v-3.649l.103.999h-.103m-84.1-11.292v-.069l-.034-2.134v-.207h83.618v.241l.034 2.41v-2.651m-70.054-27.953l-9.123 3.064-.585.379-.551.791-.551 1.171-.516 1.515-.482 1.859-.276 1.308-.172.86-.378 2.376v.034l-.035.344-.275 2.341-.103 1.102-.173 1.755-.206 2.961-.103 3.029-.035 3.064m86.475-24.888l-.378.378-.379.792-.31 1.033-.034.103-.344 1.515-.31 1.859-.172 1.308-.104.86-.241 2.376v.034l-.034.344-.172 2.341-.069 1.102-.103 1.756-.138 2.96-.069 3.03-.034 3.063m2.582 17.178l-.069-.034-.241-.206-.275-.551v-.035l-.276-.895-.275-1.17-.241-1.48-.069-.655m-.517 1.583l.069.551.172 1.549.069.517.138.792.069.482.31 1.445.034.138.275.929.345.689.309.241.069.034m1.343-4.75l-.929.723-.31.103m43.822-166.926l-30.225 42.239-.103.138-2.72 3.787-2.375 3.305-.103.172-1.584 2.237-6.575 9.157-14.906 20.827-2.031 2.858-.585.791-.585.792-.723 1.033-.654.929-.654.93-.586.826-1.205 1.687-.585.826m-.034-.034l-.929 2.651-.62 2.719-.31 2.789v2.788l.31 2.789.62 2.719.929 2.651.792 1.687.034.069.379.791.138.207.034.069.482.757.826 1.343.138.206 1.446 1.825.138.172.206.206.654.654.103.104.104.103.103.103.826.826.069.069.172.138.895.723.895.723.138.103 2.375 1.515 1.24.619m78.281-47.609l.241-.069 2.307-.826.138-.207 15.319-20.689"/><path d="M291.232 281.843h2.754l1.618-.172h.035l.516-.069.517-.069m35.698-26.025l1.549-1.377.069-.069.895-.791.241-.207.723-.654.068-.035.207-.172.275-.241 1.24-1.101 21.309-18.727.585-.792 1.342-1.825.138-.206 15.113-20.448.034-.035 3.787-5.129.069-.069 14.148-19.106 1.343-1.79 17.832-24.097m-175.498-7.953l25.785-12.186.378-.138.379-.138.379-.103.378-.069.379-.034h.826l.379.034.378.069.379.103h.035l.344.104.069.034.275.103h.034l3.443 1.549 19.657 8.848 3.442 1.549.482-.241 42.033-19.863M548.592 7.304l-.86-.378-.999-.413-3.477-1.515-1.859-.654m43.823 26.094l-.207-.172h-.034l-.31-.276h-.034"/><path d="M413.13 158.705l-17.935 24.235-1.342 1.79-13.942 18.831-19.037 25.715-.138.206-1.343 1.825-.688.964-21.068 18.486-1.239 1.102-.035.034-.31.275-.275.241-1.859 1.653-1.515 1.342m30.363-24.752l.138.104-.276.103m-86.509 41.138l.103.138.413.482 1.17 1.032.31.276.654.585.31.207.344.241.173.103.241.172.722.482.62.413 2.582 1.274 2.72.929 2.822.551 2.858.172 1.48-.103 1.377-.103 1.583-.31m-10.086-42.756l-.826.276-1.446.482-.447.137-.173.069-2.409 1.171-2.376 1.583-2.168 1.893-1.894 2.169-1.583 2.376-1.274 2.581-.929 2.72-.551 2.823-.172 2.857v.207m31.361-19.932l-.999-.482-2.719-.93-.654-.137-.172-.035h-.035l-1.928-.378-2.857-.172-.344.034-2.513.172-.999.207-.757.137-.585.104-.482.103"/><path d="M302.386 237.194l-1.239-.62-2.72-.929-.516-.103-.276-.069h-.103l-1.893-.379-2.858-.172-.378.034-.31.035-2.169.137-1.515.31-.206.035-1.067.206m-19.244-97.32h.035l.309.138 3.443 1.549 19.656 8.813 3.477 1.549m82.001 58.695l-15.285 20.654-.138.207-1.342 1.824-.517-.378m-93.876 12.083l2.306-.585 3.58-.895 2.445-.964m2.168 113.395v-4.785m-3.649 4.786h3.649l.998-.896v-5.163M607.355 94.985l1.068-1.825 1.48-.998m-22.376-69.435l-.069.069-.654.585-.827.447-.929.207-.93-.034-.895-.276-.791-.516-.654-.689-.448-.826-.206-.93.034-.929.275-.895.413-.654.035-.034.069-.104"/><path d="M581.916 18.183l.654-.586.826-.447.929-.207.93.035.895.275.792.517.654.688.447.826.207.93-.035.93-.275.894-.448.723"/><path d="M587.527 22.727l.034-.035.482-.757.276-.895.034-.93-.207-.93-.447-.825-.654-.689-.792-.516-.895-.276-.929-.034-.93.206-.826.448-.689.654m5.095 4.407l-.62.551-.723.379-.791.172-.827-.035-.791-.24-.689-.448-.551-.62-.378-.723-.172-.791.034-.827.241-.791.379-.586.069-.103m-22.17-8.125l-.069.138-.447.654-.723.62-.551.275-.31.138-.585.138-.344.069-.93-.07-.895-.31-.792-.515-.619-.723-.241-.448-.207-.379-.103-.516-.069-.413v-.138l.035-.826.275-.86v-.035"/><path d="M553.584 7.236l.275-.447.172-.241.723-.62.861-.413.93-.172.929.069.516.172.379.137.138.104.654.447.619.723.414.86.172.93-.069.93-.138.447-.138.413"/><path d="M560.09 10.368l.103-.275.207-.62.069-.93-.172-.929-.414-.86-.619-.723-.654-.448-.138-.103-.447-.138-.448-.137-.929-.07-.93.173-.861.413-.722.62-.241.378-.138.207-.138.206"/><path d="M554.135-7.05l.654-1.24 25.061-20.93.275-.207.276-.172.31-.172.309-.138.345-.103.344-.069.344-.034h.344l.345.034.344.069.344.069.31.103 14.803 5.921.551.276.516.31.482.378.447.413.379.482.31.516.275.551.207.586.137.585.069.62v.62l-.069.619-8.089 43.065-.207.723-.31.689-.378.62-.482.584-.551.482-.62.413-.688.31-.723.207-.758.103h-.757l-.62-.103-.103-.035-.723-.24-1.136-.448-.103-.035-2.857-1.136-.172-.068-1.825-.723-.069-.035-.792-.31-1.549-.62-.413-.171-12.393-4.957-3.614-1.446-4.613-1.86-.069-.034-2.616-1.032-.379-.138-1.618-.654-.103-.035-.035-.034-.723-.344-.723-.482-.654-.551-.309-.344-.035-.035-.241-.275-.482-.723-.137-.275-.241-.482-.138-.379-.172-.448-.172-.86-.069-.86.034-.861.172-.861.035-.103.241-.723.688-1.721 2.582-6.438"/><path d="M554.272-7.016l-.138-.035-11.188-2.203h-.344l-.103.035-.104.034-.103.069-.103.069-.103.068-.104.07-.069.103-.137.206-3.374 7.16-.654 1.653"/><path d="M541.742-8.6l-3.58 8.95-.758 1.929"/><path d="M537.163 2.76l.241-.482 3.098 1.24 1.102.447"/><path d="M541.122 4.895l.275-.586.173-.344.447-1.136.379-.93.31-.826.929-2.34 1.274-3.168m.034 0l6.403 2.582.138.07.619.24-3.305 6.128m10.81 5.715l-.172.24-.275.448-.62.551-.585.31-.138.069-.792.172-.826-.034-.792-.276-.688-.447-.551-.62-.379-.723-.069-.31-.103-.516.035-.826.275-.792m3.408-.345l-1.721.344"/><path d="M557.99 10.162l.344-.999.207-.55-1.033-1.171-.172-.207.069-.137"/><path d="M558.024 10.128h-.034l-1.721.344-1.205-1.343v-.034l.482-1.411.034-.138.035-.138m2.41 2.719l.344-.998.241-.723-1.033-1.17-.172-.207-1.756.379m30.501 14.114l-.104.035-1.583.62-1.412-1.137.276-1.687v-.103m1.583-.482l-1.583.62"/><path d="M586.081 21.556l.275-1.687-1.411-1.136.103-.137"/><path d="M586.15 21.522l.275-1.79-1.412-1.136-1.686.654m-23.65-9.088l.103-.276.172-.482.035-.826-.172-.792-.379-.723-.551-.62-.585-.378-.103-.069-.241-.069-.517-.172-.826-.034-.792.172-.723.378-.619.551-.207.31-.241.379"/><path d="M559.677 10.162l-.069.137-.379.551-.619.55-.723.38h-.069l-.758.137-.826-.034-.792-.276-.688-.447-.551-.62-.379-.723-.034-.103-.138-.723.035-.826.241-.758v-.034m33.254 15.045l.448-.689.241-.792.034-.826-.172-.792-.379-.723-.55-.62-.689-.447-.792-.24-.826-.035-.792.172-.723.379-.619.55m-.035.035l-.068.103v.034l-.379.586-.241.791-.035.826.173.792.378.723.551.62.689.447.791.241.827.035.791-.172.723-.379.551-.516.034-.035.035-.034M228.717 356.579l-.516.379-.586.413-.964.929-.826 1.033-.688 1.136-.551 1.239-.069.241-.31 1.068-.069.516-.137.826-.035.895v.413l.138 1.343.069.241.275 1.067.482 1.239.654 1.171.792 1.067.93.964 1.032.826 1.136.688 1.24.551 1.273.379 1.308.206 1.343.035 1.343-.138 1.308-.31 1.239-.482 1.17-.654 1.068-.791m5.576-11.43l-.275-1.17-.482-1.24-.62-1.17-.792-1.067-.929-.964-1.033-.826-1.136-.689-1.205-.551-1.273-.378-1.308-.207-1.309-.034-1.308.137-1.273.31-1.24.482-1.136.62h-.034"/><path d="M228.717 356.579l1.17-.654 1.24-.482 1.308-.31 1.342-.138 1.343.035 1.308.206 1.274.379 1.239.551 1.136.688 1.033.826.929.964.792 1.067.654 1.171.482 1.239.275 1.205.035.103.138 1.343-.035 1.342-.138.964-.068.379-.379 1.274-.551 1.239-.688 1.136-.827 1.033-.929.86-.069.035"/><path d="M234.741 365.805h2.203v-.138l.035-.378.034-.551h-1.824l-.379-.035v-.482l.034-.413.035-.413v-.137l.034-.241.035-.379v-.103l-.551-.035-.345-.034h-.172m-.275 3.752v-.482l-.378-.035"/><path d="M233.915 362.396v.104l-.034.378-.035.241v.138l-.034.413-.035.413v.104l-.034.172-.035.206"/><path d="M237.564 368.076l.723-.86.482-1.033.207-1.102-.069-1.136-.379-1.067-.62-.929-.86-.723-1.033-.482-1.102-.207-1.136.069-1.067.379-.654.447-.275.207m-.172.138l-.723.861-.482 1.033-.207 1.101.069 1.136.379 1.067.619.93.861.723 1.033.482 1.101.206 1.136-.068 1.068-.379.757-.517.172-.103"/><path d="M231.574 365.529h.069l.344.035.207.034h.138l.378.035.413.034h.104m-1.584-1.205h.172l.241.035.207.034h.137l.379.035.413.034h.482l.276-.206m1.032 1.169l-.241.241-.034.379v1.721m-1.102-1.686v1.583"/><path d="M231.643 364.462l-.034.551-.035.55.172-.137m2.169.069l-.138 2.169.895.034m.31-2.135l1.997.104m-3.374.069l.31-.241-2.169-.138.069-.929m2.169-.001l.103-1.996"/><path d="M238.046 369.213l-.861.516-1.377.413-1.446.035-1.411-.345-1.274-.688-1.033-.999-.757-1.239-.413-1.377-.035-.86v-.586l.345-1.411.688-1.274.758-.792"/><path d="M228.682 365.22l.035.86.413 1.412.757 1.239 1.067.998 1.274.689 1.411.344 1.446-.034 1.412-.413 1.239-.758.344-.344.654-.688.689-1.274m-8.71-6.369l.173-.104.344-.206.757-.448 1.412-.413 1.445-.034 1.412.344 1.273.689 1.068.998m1.136 3.512v.585l-.344 1.411m-10.707-1.997v-.585l.344-1.411.689-1.274.998-1.067m7.815.826l.757 1.239.413 1.412.035.86m-15.182-3.27H196.46l-.103.035-.241.069-.172.068-.103.069v.069"/><path d="M224.138 363.498l-5.129.137-1.411.035h-3.409l-.654-.035-.619-.034-.62-.035-1.17-.068-13.701-.964-.448-.035-.379-.034-.309-.069-.241-.069-.173-.069-.068-.069m0 3.753l.068.069.173.069.241.069.309.069.379.034.448.035 6.024.413 1.239.103 6.472.448 1.171.068.619.035.62.034.654.035h3.408l1.411-.035 5.164-.137m287.241-173.674l9.949-3.958 9.363-5.233 8.572-6.403 7.677-7.47 6.644-8.4 5.473-9.191 4.234-9.846m-72.946 54.391l-10.706-.137-10.603-1.549-5.404-1.55m-.001 0l-.068.035m102.62-61.449l1.549-10.603.138-10.706-1.239-10.637-2.617-10.362-3.855-9.673-.035-.138-.034-.069-.034-.069-.138-.206-.035-.07-2.995-5.335-.103-.172-.206-.379-.035-.069-.757-1.342-.964-1.756-1.721-2.306-.413-.551-4.269-5.715-7.47-7.676-8.365-6.644-5.336-3.167-.172-.104-3.684 3.064-.654.517-.069.068-13.873 11.464-.344.31L480.5 83.624l-.792.654-12.152 10.018-.344.31-.895.86-.964.93-.275.275-1.033 1.308-1.274 1.618-.344.551-1.584 2.651-1.48 3.408-.172.654-.413 1.446-.31 1.136-.103.344"/><path d="M469.484 158.223l-.069.447-.103.689-.379 2.306v.035l-.62 3.89-.034.137-4.613 28.538-4.372 27.093.034.069M539.71 41.178l.62-.722.757-.517.895-.31.93-.069.929.173.861.413.723.62.516.757.31.895.069.93-.172.929-.413.86-.035.07-.55.653-.758.517-.895.31-.929.068-.93-.172-.86-.413-.723-.62-.517-.757-.309-.895-.069-.93.172-.929.378-.757v-.103zm43.617 69.229l.861-.413.929-.172.93.069.895.31.757.516.62.723.413.861.172.929-.069.93-.31.895-.516.757-.723.62-.069.034-.069.035-.723.344-.929.172-.93-.069-.895-.31-.757-.516-.62-.723-.413-.861-.172-.929.069-.929.31-.896.516-.757.654-.551.069-.069zm-30.741 75.115l.929-.035.895.241.826.448.689.654.482.792.275.895.035.929-.241.895-.448.826-.654.689-.792.482-.895.275h-.929l-.895-.241-.827-.447-.688-.654-.482-.792-.275-.895-.035-.93.241-.895.448-.826.654-.688.792-.482.86-.241h.035zm-79.625 18.039l.137.034.792.103.861.379.723.585.551.757.344.861.103.93-.138.929-.378.861-.586.723-.757.55-.86.345-.93.103-.929-.138"/><path d="M472.961 203.561h.103l.792.103.861.378.723.586.55.757.345.861.103.929-.138.93-.379.86-.585.723-.757.551-.861.344-.929.103-.93-.137m80.658-25.027l.895-.035.895.241.826.448.688.654.482.792.276.895.034.929-.241.895-.447.826-.654.689-.792.482-.895.241m29.708-82.138l.792-.378.929-.172.93.068.895.31.757.517.62.723.413.86.172.93-.069.929-.31.895-.516.758-.689.585m-47.54-75.218l.585-.689.758-.516.895-.31.929-.069.93.172.86.413.723.62.517.757.31.895.068.93-.172.93-.378.791m-73.325 95.356l-.104.172m-8.571 53.531l4.578-28.469.654-4.028.379-2.375.206-1.274m2.651-16.145l.172-1.101v-.069l.034-.241-2.306-1.377-2.513-1.997-.413-.31-.723-.757m-4.613-5.853l-1.273-2.306-1.377-3.442-.895-3.615-.448-3.684.034-2.822v-.895l.104-.792.413-2.892m23.03 23.444l-.379-.069-2.237-.826-2.1-1.102-1.928-1.377-1.377-1.308-.069-.068-.275-.241-.31-.379-.379-.482m-3.374-6.025l-.447-1.446-.413-2.341-.104-2.375.241-2.376.482-2.168.035-.138v-.034m.034.034l.827-2.238 1.101-2.1.93-1.308.447-.654 1.618-1.756 1.825-1.514.172-.103 1.859-1.17 2.169-1 2.272-.688 2.34-.413 2.376-.103 1.308.138m6.541 2.031l1.17.619 1.928 1.377 1.755 1.618 1.515 1.825 1.274 2.031.034.103m2.1 7.712l.035 1.343-.241 2.375-.276 1.17-.275 1.136-.172.482-.035.069-.24.654-.414 1.067-1.101 2.1-.62.861-.757 1.067-1.618 1.721-1.825 1.515-1.618.998-.413.276-2.169.998-2.272.689-1.136.206"/><path d="M494.545 99.701l1.205.62 1.928 1.377 1.755 1.618 1.515 1.824 1.274 2.031.034.104m-32.325 12.909l-.137-.482-.379-2.169-.069-2.203.207-2.203.482-2.169m12.186 21.205l-.895-.206-2.066-.758-1.962-1.032-1.79-1.274-1.618-1.515-.31-.378-.516-.62m26.232.069l-1.515 1.618-1.687 1.412-1.859 1.17-1.996.93-1.687.516m9.777-4.889l.241-.309.55-.758.586-.826 1.101-2.1.448-1.17.241-.62.034-.069.138-.378.275-1.137.276-1.17.241-2.375-.035-1.343m-16.421-17.213l-1.273-.137-2.376.103-2.34.413-2.272.688-2.169.999-1.79 1.101-.241.138-1.825 1.515-1.618 1.755-.413.586-.964 1.342-1.101 2.1-.827 2.203m15.216 10.19l5.37-.585.172-.31.723-1.584.792-1.824.035-.069.654-1.48-.964-1.343-2.203-3.029-1.653.172-1.308.138h-.034l-2.376.241"/><path d="M489.553 119.84h-.034l-5.336.551m-.998-9.33l-.138.344-.55 1.239-1.515 3.374.206.275.379.516 2.616 3.581-.172.309-2.788-3.821-.241-.309"/><path d="M488.865 116.569l-.275.447-.104.138-.516.482-.62.344-.688.172-.723-.034-.689-.207-.619-.378-.482-.517-.345-.619v-.035l-.172-.654.035-.723.206-.688m3.236-15.423l-.378-.034-2.204.069-2.168.378-2.1.654-1.997.93-1.342.861-.517.309-.516.448-1.171.964-1.514 1.618-.413.585-.861 1.239-1.033 1.962-.757 1.997-.034.069v.034l-.482 2.135-.207 2.203.069 2.203.379 2.169.172.516m3.098 6.163l.516.619.31.379 1.618 1.515 1.79 1.273 1.962 1.033 2.066.758.895.206m10.155-13.633l-.034.069-.413.654-.138.207-.379.585-1.273 1.239-.379.207-1.171.654-1.721.413-1.79-.034-1.721-.517-.138-.069-1.377-.86-1.239-1.274-.861-1.549-.034-.172m7.298-9.053h.207l1.721.516 1.515.93 1.239 1.274.861 1.549.034.103.379 1.652-.035 1.515v.276l-.516 1.721m-1.928 13.494l1.687-.517 1.996-.929 1.859-1.17 1.687-1.412 1.48-1.618.758-1.067.516-.723 1.033-1.962.31-.826.378-1.033.035-.069.034-.103v-.035l.482-2.168.172-1.928m-1.583-8.159l-.276-.619-1.17-1.859-1.412-1.687-1.618-1.515-1.79-1.273-1.308-.689"/><path d="M492.411 118.565l.516-1.686v-.345l.034-1.445-.413-1.722v-.034l-.826-1.515-1.239-1.274-1.515-.929-1.721-.516h-.241m-3.098 5.198l-.207.689-.034.723.172.688v.035l.344.619.482.517.62.378.688.207.723.034.689-.172.62-.344.516-.482.034-.069.207-.344.069-.138.034-.034.069-.241.034-.069.104-.379.034-.723-.172-.688-.344-.62-.482-.516-.62-.379-.688-.207-.723-.034-.689.172-.619.344-.517.482-.103.172-.241.379v0zM270.371 268.038h-3.064l-1.377.034h-.103l-.964-.137-1.239.034-1.171.034m.929.139l-.964-.138v.172m-4.75 7.022h-2.582v-6.506l.103-.069.276-.069h2.616l.482-.068.654-.069.826-.069.964-.069 1.067-.069h.344l.861-.034h.103"/><path d="M274.846 274.338v1.412l-1.205.034-1.274.035-.895-.138h-.172l-1.411.034h-5.646l-1.274-.034h-.103l-1.549.138h-.276l-.895-.035-.964-.034v-6.541l1.653-.138h-.069l-.929-.069-.792-.068h-.035l-.585-.069-.447-.069-.241-.069-.069-.069h-2.582"/><path d="M257.668 275.198l.069.069.241.069.447.069.62.069h.138m11.222-7.367h-2.788l-1.239.035h-1.549l-.792.034-.654.035h-.379l-.551.034-.413.035-.86.068-.723.069-.586.069-.447.069-.276.069-.137.069v.034l.034.034.207.069.378.069.517.069.654.069.792.034.86.035h.069l.895.034h.138l1.101.035h4.958l1.239-.035h.103"/><path d="M270.956 269.174l-1.067.034h-5.646l-.86-.034h-.517m0 6.541v-6.541l-.447.034-1.205.104m-2.066-.069l.964.035.654.034h.414v6.575m10.223-.172v-5.818m3.443 5.68h.31l.861-.069m154.911-15.595l-1.342 1.653-7.195-2.961-.895-1.514-9.364-1.618m24.408 5.68l.516 2.031v.035m-.517-2.066l-1.514-1.48-2.066-.447-1.997.688m5.715 5.233l.378-1.962"/><path d="M437.056 263.185l-.207 1.032-.206.999m-158.286-39.555l-1.032.654M81.654 290.242l-.103-.379-.861-3.235v-.035l-.482-1.756 5.783-1.308m3.374 6.713l-.103-.379-.86-3.235v-.035l-.896-3.442 5.543-1.274m-16.765 39.244l.791-.069.62-.206 3.511-5.68 1.274-2.066v-.344"/><path d="M98.384 286.628l-3.167-6.851-9.467 2.1-6.437 1.446-.792.172-.792.172-1.17 2.892-.413.998-1.067 2.651-1.377 3.408-.723 1.79-.069.207-1.377 3.408-.138 2.444v.929l-.034 1.55.034 1.101.035 1.343.103 1.48.069.895.034.448.207 1.824.24 1.618.07.516.413 1.928.482 1.687.55 1.446.62 1.17.654.861.689.551.585.206.138.035"/><path d="M77.144 312.722h-.034l-.413-.138m-.413-.344l-.413-.516m-.345-.723l-.172-.482-.172-.414m-.998-6.196l-.035-1.17v-.551l.035-1.239.103-1.481.034-.206.138-1.24m.345-2.375l.034-.207.035-.103.206-.895.069-.31.172-.516.172-.551.379-.895.413-.757.069-.069.379-.517.275-.241.172-.137.447-.207h.414m16.626-3.064l.38-.379.343-.172.035-.034h.378m.035 0l.068.034M81.24 315.131h13.977l.585-.172.689-.379.654-.654.62-.929.137-.241"/><path d="M95.217 279.777H65.922l-18.968 3.925-6.713 15.388-.172 2.444-.069 2.478.069 2.445.172 2.375.275 2.272.379 2.1.448 1.928.55 1.686.62 1.446.689 1.171.722.86.758.551.791.241m201.695 40.552l-.068-.516-.31-1.274-.482-1.239-.62-1.17-.792-1.068-.895-.963-1.032-.827-1.136-.688-1.205-.517-1.274-.378-1.308-.207-1.308-.034-1.308.137-1.274.31-1.239.482-1.171.62m62.756-154.223h.999m-.792 0l1.653-6.713-.035-9.88-1.824-7.161-.62-2.409-3.408-6.3-1.308-2.375-6.679-7.264-8.262-5.405-2.926-.998-1.48-.516-4.957-1.722-4.544-.413-1.136-.103-4.131-.379-.826.138-.895.138h-.138l-.034.172v.103l-.104.275-.137.276-.173.241-.172.206-.206.207-.138.069-.103.069-.241.137-.276.104-.275.068-.275.035h-.276l-.275-.035m52.257 50.26l-.138-.137-.207-.172-.241-.138-.241-.103-.275-.069-.275-.035h-.31l-1.308-.034h-.964l-2.238-.034h-1.067.172m-53.221 34.149l.138-.034.172-.035h.516l.276.069.275.103.241.138.241.172.207.207.103.137.069.069.137.241.104.276.069.241v.034l.034.172h.207l.895-.103 3.683-.379.551-.069 3.27-.344.207-.069 1.136-.413 1.17-.413 6.128-2.134 1.377-.689 1.136-.585 1.101-.585 1.102-.62 1.102-.62 1.101-.654 1.067-.654 1.068-.688 1.067-.689 1.032-.688 1.033-.723.964-.689.551-.378.62-.413.619-.448.62-.447.619-.448.586-.447.585-.448.585-.447.585-.482.586-.482.585-.482.826-.689 2.892-3.201 3.545-3.959 3.994-7.539m1.274-3.924l-.276.034-.275.035-.276.103-.241.138-.241.172-.206.206-.172.207-.172.241-.138.275-.103.276-.035.275v.276l.035.275.068.275.104.241v.035l.034.069.103.206.173.241.206.207.207.172.103.069h.757m1.997.206l.069-.035.241-.137m-.861.31h.103l.276-.069m.654-.344l.069-.035.206-.206m.207-2.823l-.035-.069-.206-.207m.654 1.928v-.379m-.172.895l.034-.069.104-.275m-.104-1.308l-.034-.068-.138-.241m-.482-.621l-.069-.069-.138-.103-.103-.069"/><path d="M296.258 200.29l-.069-.034-.275-.104m-.826 4.303h.172m2.031-1.136l-.172.241-.069.069m.413-1.962l.069.275v.104m-43.582 33.185v.069l-.069.276-.103.241-.138.241-.172.241-.206.206-.207.172-.241.138-.241.103-.275.069m-7.023 1.102l.241-.172.069-.069m.103-.139l.172-.24.035-.104m.103-.137l.103-.275.035-.103m.034-.173l.034-.275v-.103m.001-.207v-.034m-1.997 2.409l.207-.034h.068m.654-.242l-.103.069-.275.104m43.237-78.833l6.438 7.023 4.544 8.365 2.375 9.226.034 9.536m-30.362-42.515l1.48.516 1.446.517 6.059 2.1m-49.09 79.107l4.062 1.584 5.852.792 1.033-.173"/><path d="M240.834 235.782l.069-.206.138-.241.172-.241.207-.207.241-.172.241-.138.275-.103.275-.069m8.021-83.79l-.275-.103-.276-.138-.241-.172-.206-.172-.172-.241-.172-.241-.104-.172m43.066 66.405l-2.031 2.272-.792.654-.551.448-.551.447-.55.448-.551.447-.585.448-.586.413-.585.413-.585.413-.585.413-.585.413-.551.379-.93.654-.998.689-.998.688-.999.654-1.032.654-1.033.62-1.033.62-1.033.585-1.067.585-1.067.551-1.067.551-1.308.654-8.262 2.891m27.299-32.566l2.065-8.434m-18.796 27.678l.585-.413.586-.413"/><path d="M250.026 149.72l-.138-.035-.861-.241-3.718.586-.378.172m27.919 1.515l8.916 3.098 4.922 3.236.138.103 2.788 1.825 6.369 6.954 4.51 8.296 2.341 9.123.034 9.432-1.239 5.06-.035.104-.309 1.239m-20.966.963l2.204-8.916m-28.676-44.717l-.035-.069-.206-.207m.516.758l-.034-.069-.138-.241m.31.861v-.069l-.069-.276v-.034m5.955.688l.241.069m-7.401-2.134l-.069-.034-.275-.104h-.035m.861.448l-.069-.034-.241-.173h-.034m-11.188 71.363l.998-.517.964-.516.964-.551.964-.55.964-.551.929-.586.93-.585.929-.619.93-.62.895-.62 1.067-.757.689-.482.55-.379.551-.378.551-.379.551-.379.55-.413.517-.413.516-.413.517-.413.516-.413.379-.31m-23.478-44.511l6.231-.999 3.064.276 2.926.275.275.034.207.069.516.172.723.241 4.51 1.55 5.267 3.476 4.268 4.648 2.995 5.542 1.549 6.093v6.3m-1.446 6.128l-2.96 5.577-4.51 5.026"/><path d="M247.031 164.109l.137.035 5.439 1.893 4.923 3.236 1.618 1.79.103.103 2.238 2.445 2.823 5.163 1.446 5.715v5.886l-.689 2.858-.688 2.857-.241.482-2.513 4.716-4.303 4.785-.035.035-.379.309-.516.414-.516.413-.517.413-.516.378-.516.379-.517.379-.413.31-.103.068-.035.035-.516.344-.551.379-.688.482-1.067.757-.895.62-.896.619-.895.586-.929.585-.929.551-.93.55-.929.551-.964.517-.964.516-.964.482-.276.138-6.058 2.1-3.236.309-1.962.207h-.104l-.344.034m6.059 1.137l-2.582.275-1.686.172-1.722.173"/><path d="M247.031 164.11l-5.853-.516-4.578.723-1.239.206-6.162 2.617-.172.068-.999.551-1.514.895-1.515.895-1.48.93-1.481.964-1.446.998-1.445.998-1.412 1.033-1.411 1.067-1.377 1.067-1.343 1.102-.447.379-3.271 4.027-.516.62-.172.344-.069.103-.172.379-.585 1.205-.069.138-.207.413v.034l-.447.93-.104.206-.172.344-.241.482-.241.517-1.204 5.508.137 5.645 1.446 5.44 2.685 4.957.276.31 3.477 3.89 4.647 3.201 2.788 1.102 1.274.482 1.205.482 5.577.757m-1.997-53.291l-1.549.896-1.515.929-1.514.964-1.033.654-.482.31-1.48.998-.964.689-.482.344-1.446 1.033-1.411 1.067-1.412 1.101-1.377 1.136"/><path d="M229.577 219.568l-5.542-.758-1.687-.654-1.721-.654-1.859-.723-4.613-3.201-3.752-4.2-2.651-4.957-1.446-5.439-.138-5.612 1.205-5.507.241-.517.964-1.996.069-.104.103-.206.551-1.102.31-.654.069-.103.172-.345 3.787-4.647.447-.379 1.343-1.101 1.377-1.067 1.377-1.067 1.411-1.033 1.446-.999 1.446-.998 1.446-.964 1.48-.929 1.48-.895 1.412-.826.103-.069.998-.551 6.3-2.685.413-.069 5.37-.861 5.646.517m33.048 9.914l2.272 8.916m-6.437 26.232l-2.41 2.651-.103.138-3.65 4.062m-3.545 2.788l-.62.448m-1.824 1.342l-.62.448m-5.853 3.924l-1.067.654m9.089-7.126l.585-.482m134.738 148.337l-.482 1.962-.034.723-.275 5.749v.172l-.035.448-.31 6.162-.447 8.881m5.164-38.245v38.246m-13.943-161.213l-1.686.93-.104.034-.068.035-5.508-5.508-.241-1.756-8.021-5.06m20.345 14.596l-.31 2.1-1.101 1.653"/><path d="M395.092 232.615l-.861-1.962-1.756-1.205-2.099-.103-1.859.998m28.365-96.941l-.034-.034m2.135-.792l-2.135.792-.344 1.962"/><path d="M416.539 135.296l.344-1.928 2.134-.792"/><path d="M420.704 134.057l-1.722-1.446v-.069l1.722 1.515zm0 0l-.207 1.273m2.651-.034l.034-.688-.241-1.136"/><path d="M414.094 135.296l-.034-.103.034-1.17.345-1.136.619-.999.861-.792 1.033-.55 1.17-.241 1.171.034 1.136.344.998.62.792.861.551 1.032.068.345.173.826-.035.929M251.472 274.51h-7.987l-1.171.103-1.342.069-1.48.069-.689.034-.895.035-1.687.034-1.755.034-1.756.035h-5.198l-1.584-.035-1.48-.034-1.308-.069h-.172"/><path d="M219.388 278.71l.069.104.309.103.551.103.758.103.963.069 1.136.069 1.309.069h.137l1.343.034 1.583.035 1.687.034h3.512l1.755-.034 1.756-.035.619-.034 1.068-.034 1.583-.069 1.48-.069 1.343-.069 1.17-.103h7.987l2.066-.826v-4.441h-8.159"/><path d="M251.472 278.986v-4.441l2.065-.792m37.936 17.625l.069-.309.138-.379.034-.138.138-.275.034-.069.172-.138m-.068 22.824h-.172l-.138-.173-.034-.068-.138-.345-.035-.068-.172-.586m.826-21.619l.173.069.103.138m260.699-97.938l-.827-.103-.757-.31-.654-.516-.516-.654-.31-.758-.103-.826.103-.826.31-.757.516-.655.654-.516.757-.31.379-.069.413-.068.826.103.758.31.654.516.516.654.31.757.103.827-.103.826-.31.757-.516.654-.654.517-.758.309-.585.069-.206.069z"/><path d="M552.138 186.072l-.757.31-.654.516-.482.655-.31.757-.103.826.103.826.31.758.516.654.654.482.757.309.827.104m1.445-2.031l.207-1.79-1.446-1.067"/><path d="M554.513 190.238l-1.687.723h-.034l-1.446-1.067.207-1.79 1.618-.689.069-.034"/><path d="M553.308 187.347l1.446 1.101-.206 1.79h-.069l-1.618.689M397.02 381.123v-27.092l.206-4.165.069-1.102.379-7.987.137-2.65.207-3.925.413-1.205.585-1.79.069-.241.034-.241.035-.206.034-.62.035-.792.034-.963.035-1.102.034-1.205.034-1.308.035-1.377v-17.729l.034-.138.035-.068.344-.792m-8.571-10.362l-6.231 11.189-.035.068-.034.138-.035.207-.034.275-.035.31-.034.379v15.112l-.034 1.446v.034m15.387 25.509h-.034l-.034-.276-.035-.551-.034-.757v-4.028l.034-.895.035-.723.034-.516.034-.241"/><path d="M398.018 354.031l-.035-.138v-3.683l.035-.275.034-.138"/><path d="M398.018 349.797l.034.138v3.58l-.034.275-.035.138m2.169-13.219l.035.034.034.276.035.551.034.757v3.993l-.034.895-.035.723-.034.517-.035.275m3.064-10.637l-.069-.276-.034-.516-.034-.689v-3.717l.034-.827.034-.688.035-.482.034-.207m0-.034l.069.31.035.516.034.689v3.683l-.034.827-.035.688-.034.482-.035.241m.275-42.239v2.134l-.034.516-.034.344-.035.173-.034-.035-.035-.241-.034-.413v-2.031h-5.921m6.954.275v-2.513m-.069 0l-.757 1.791h-5.887m2.547 8.02v1.859l-.034.654-.035.516-.034.31-.034.104-.035-.104-.034-.31-.035-.516v-1.997h-6.403"/><path d="M403.285 296.301l-1.136 2.719-2.031 4.889h-6.437"/><path d="M393.474 304.425l.241-.551v.516m3.649-8.089l.034-.069.172-.378v.447m-36.937 143.276l-.138.379v-83.515M76.87 290.242h.963m6.541 0l.103-.379.757-3.235v-.035l.723-3.064m-.86 6.713l.103-.379.757-3.236v-.034l.758-3.271m1.824 6.92l-.103-.378-.861-3.236v-.035l-.035-.137-.826-3.099m2.41 6.886l-.103-.379-.86-3.236v-.034l-.07-.276-.55.138m3.579 3.786l.104-.379.757-3.236v-.034l1.102-4.682m-.241 30.811l2.341 2.409m72.257-51.878v-12.462m-89.607 39.451h128.818m-111.227-3.614h111.88m12.084-7.884v-4.372m.482-24.82l.137-.241.035-.034.034-.035.276-.344.068-.069.276-.275.034-.035.344-.275.069-.035.345-.206.103-.069.31-.138.206-.068.207-.069.275-.069h.103l.345-.035.172-.034.206-.034.379-.035h.069l.551-.034h.034l.757-.035h.207l.757-.034h.448l.792-.035h9.535l.551.035h.551l1.274.069h1.445l.551.034.31.035.276.034.275.034.551.138h.034l.448.207.137.069.31.172.172.137.241.172.207.207.172.172.103.138.207.241.069.138.172.309.034.104.138.344.034.103.104.379v.069l.068.413v23.064m-25.336-24.889l-34.976 1.102m34.287 13.047h-.034m8.916 93.566l.516-.379.723-.516 1.033-.757m.516-.379l.276-.206m-.413 6.058l.482-.378.137-.104.104-.068m10.981-125.926l.619-.103.379-.069m.62 3.546l-.448.034m.654.723h-.068m.24-.035l-.068.035h-.035m.757-1.928l-.998.069m7.987.447l-5.439.999-2.272.413-.103.034m-53.359 74.255H77.282m173.467-162.004l-.207-.069h-.069m4.613 84.169l-1.136.207-3.098.551-.379.069m17.522 7.263l-.791.172-.551.138-1.308.31-.414.103-2.65.62m-8.71 31.67l7.505-.068m6.438-137.596h.068m-12.496 136.047h-1.515m14.39-135.909l.275.103m4.166 132.982v4.407m1.549-123.688l1.205.344.585.173m-4.613 196.875l1.652-2.169m-13.529 17.798l11.395-14.975.516-.688m-.034.275l-.31.413-11.567 15.216m13.529-17.764l-1.652 2.169m16.455-114.29l.207-.034.344-.069m.551 10.12l-.276.069m2.995 75.218l.138.103m.379-8.089h-.413m.206-22.824h.413m-.034 35.457h-3.098m3.442-37.351l-.069-.069m.276.483l-.103-.241m.309.86l-.103-.344m.24-24.854l-.102.034m.137 25.99l-.034-.172-.069-.275m1.825-144.928l-3.133 3.856m3.786 55.939h-.068m60.484-134.807l-57.696 70.881-3.373 4.131m2.272 174.12l-3.787 3.03m2.065-171.642l-3.683-1.652m-25.337 213.915l6.059-7.986 1.102-1.446 2.685-3.546.998-1.308 20.999-27.609m1.721-116.149l-1.17 2.237m-32.222 155.807l6.059-7.986 1.102-1.446 2.547-3.339.998-1.308 21.068-27.712m-3.201-1.86h2.651m-4.441 4.441l4.544-3.718m2.479-115.116h-.413l-4.338.069m11.463 60.071l-.309 2.926-.069.517-.379 3.408-.034.413-.035.172-.034.172-.207 1.859v.344l-.31 2.927v.172l-.103.964v.034l-.206 1.79-.241 2.307-.069.654m2.168-20.208v.103l-.069.516m7.23-23.064h.034l.069-.034 1.171-.345.413-.137m6.059 16.145l-.62.276-.138.068h-.034l-.413.172-.448.207m-28.297 55.837h-.413m.206-22.48h4.751m32.566-5.542l.86-.62m0-7.16v7.16m.173 37.007h-31.499m31.67-8.365h-.034m0-22.48h.207m1.445 20.277h2.548m-5.095-7.78h5.095l.034-.035m.104-.482h-2.926m-.138 12.909h2.926m1.549-15.318l.172-.138.138-.138.172-.172m-6.541-19.932h6.335m.516-125.996v-3.58l-.034-2.891-.104-7.023.31-5.542.103-1.859.104-2.238.034-.379.93-7.676.275-2.341 1.48-7.884.379-1.996 2.1-8.09.447-1.652 2.72-8.228.447-1.343 3.374-8.33.413-.999 4.097-8.4.31-.653 1.549-2.686 1.273-2.237.173-.31.137-.275.241-.413 1.102-1.928.344-.585.207-.345 5.542-8.365.034-.034.723-.964.31-.413 5.061-6.644.206-.241 6.438-7.333 6.231-6.23.24-.242.655-.654 2.444-2.134 4.2-3.684.929-.826 6.782-5.163 1.239-.93 6.851-4.544 1.549-1.033 6.885-3.924 1.859-1.067 2.065-.999 6.988-3.408 2.376-.964 6.919-2.822 6.713-2.238.895-.31 1.928-.62 1.377-.344 5.232-1.342 2.341-.586.826-.206 2.548-.482.688-.138.585-.103h.035l.723-.138.413-.069.172-.034.275-.034.414-.07h.068l.551-.103.172-.034h.069l3.202-.62 6.299-.757 3.684-.447 6.127-.31 3.925-.207h.998l4.923.069 2.306.034h1.825l5.714.448 4.304.344 5.507.826 4.441.654 5.302 1.136 4.509.964 5.095 1.48 4.579 1.309L537.68.109l.447.172M332.163 257.607l1.584-1.377 1.136-.998 1.549-1.342.31-.276.275-.241.138-.137.516-.448 24.958-21.929m-30.5 26.886l.206-.172.104-.103 2.375-2.066.069-.069.895-.791.241-.207.344-.31.31-.275.069-.069.275-.241.138-.138.447-.413 25.234-22.169m-5.164-164.275l-11.153-9.089m44.683 236.705h13.012m3.787-184.62l-.137-.344-.069-.138m2.031 4.751l.137.413v.034m12.944 19.416l.035.172.034.069m30.501-21.275l.034-.241.034-.172m4.647-.998l.035-.207v-.069m10.534-.103l.034-.068m-2.409 48.022l2.547 2.961m-2.513-2.961l2.513 2.926m1.102-50.742l.034-.069m13.839 3.477l.034-.068m2.651 158.525l.034.068.034.034m2.135-156.149l-.034.034v.034m3.27 2.445l-.034.068m-61.139 15.698l.207-.275m-.172-.034l-.035.034m108.714-93.326l.068-.103m.31.275l.034-.035.035-.068M542.43 1.9l1.687.62 4.234 1.859.448.207.723.31m3.82 187.374h-.068m.137.343h-.103M582.156 18.63l.103-.102.035-.035m.93 91.983l.102-.069m.173.482l.034-.035.069-.034m1.377-80.554l.241.172m1.893 86.062l-.103.068m.55-93.91l-.068.069-.034.034m2.1 8.159l.963.895 3.684 3.408m21.446 133.5l.207-.035h.034m2.927-25.611l.138-.035.103-.034"/></g></svg>