<svg width="126" height="109" fill="none" xmlns="http://www.w3.org/2000/svg"><path d="M63.3.1l-.2-.1-31.7 16.9h-.1l-.1.1L0 33.6v10.2l14.1 8.5-14 7.5V70l62.7 37.9.3.2 62.7-37.9.2-.1V59.8l-14.1-7.5 13.9-8.4.2-.1V33.6L63.3.1zM63.1 71l-8.4-5 14.1-8.5 8.5 4.9L63.1 71zm38.6-34.6l-16.5 10-9.5-5.2 29.7-17.5 9.2 4.9-12.9 7.8zM58.4 50.3L49 44.9l32.3-18.5 9.4 5-32.3 18.9zm33.2-19.6l-9.3-5 13-7.5 9.2 4.9-12.9 7.6zM81 25.3l-16.8 9.6v-.1l-9.5-5.2 30.1-16.9 9.4 5L81 25.3zm-10.4-5.8l-9.5-5.1 13.3-7.3 9.4 5-13.2 7.4zm-10.5-4.4l9.5 5.1-32.1 18.1-9.5-5.5 32.1-17.7zM12.2 40.3L1.6 33.9 31.4 18l10.7 5.8-29.9 16.5zm14.8-7l9.5 5.5-13.9 7.8-9.4-5.7L27 33.3zm26.7-3.1l9.6 5.3L33 52.8l-9.4-5.7 30.1-16.9zm-5.8 15.2l9.4 5.4-14 8.2-9.4-5.7 14-7.9zm26.9-3.6l9.5 5.2-30.5 18.4-9.4-5.7 30.4-17.9zm3.5 20l-8.5-4.9L102 37.4l8.9 4.7-32.6 19.7zm24.7-25l12.7-7.6 8.9 4.7-12.8 7.7v-.1l-8.8-4.7zM63.1 1.1l10.3 5.5-30.3 16.7-10.6-5.8L63.1 1.1zm-62 33.6l61.5 37.1v8.5L1.1 43.2v-8.5zm0 26.3l61.5 37.1v8.5L1.1 69.5V61zm62.5 45.6v-8.5L125.1 61v8.5l-61.5 37.1zm60.9-46.5L63 97.2 1.5 60.1l13.6-7.3 47.7 28.8.3.2L111 52.9l13.5 7.2zM63.6 80.3v-8.5l61.5-37.1v8.5L63.6 80.3z" fill="#111"/></svg>