<svg width="691" height="366" fill="none" xmlns="http://www.w3.org/2000/svg"><path fill="#fff" d="M105 59h93v7h-93z"/><mask id="a" maskUnits="userSpaceOnUse" x="0" y="0" width="691" height="366"><path fill="#C4C4C4" d="M0 0h691v366H0z"/></mask><g mask="url(#a)" stroke="#fff" stroke-linecap="round" stroke-linejoin="round"><path d="M62.77 255.196l-.645.666-.252.26m286.012-1.533l.055.058.028.029M143.183 358.95h-.056m143.875-98.171l.028.087m-137.795 14.635h.365m-.365 27.711h-.337m183.83-195.678l-.056.087-.028.058m-41.356 39.164l.028-.058v-.029m-124.345 93.313l.084-.029.14-.059m2.27 6.248l-.056.029-.141.058h-.028m-1.737-6.652l.168-.058.112-.029.448-.144m2.354 6.479l-.364.144-.028.029-.308.116m-23.872-1.562h.083m-1.203-4.311l.056-.028.168-.058.196-.058.504-.145.112-.029m-1.345-3.557l.252-.058.112-.029h.056l.645-.174m-1.598-2.516l.896-.202.281-.058.42-.087h.028m51.722 111.275l3.783-.029 3.67-.029m161.442-99.85l.084.029.056.03m22.694-113.618l-.027.029-.056.029m17.008 64.676h.196M229.227 354.814l-.28 1.909-.728 4.975m.841-6.277h-.113M117.771 160.785l.336.087.672.173.28.087.673.174.896.231.14.029 4.848 1.331.28.086 1.765.492M89.977 264.018v-9.256M355.31 71.175l-.028.058-.028.058M135.982 356.375l1.85 1.302.224.174.532.376.224.173.533.376.336.232 1.401.983 1.345.926 21.938 15.33.616.434 3.363 2.343 2.437 1.706m-53.74-223.937h.084m278.84 57.966h.168M149.235 303.79h-.169M384.954 48.961l.084-.116m-17.904-6.335l-.028.059-.056.086m-5.016-3.095l.056-.087.028-.029m31.577 17.182l-.196.231-2.241 2.69M357.944 36.9l-.196.289m4.623 2.547l.028-.03.056-.087m4.37 2.69l-.056.086-.028.058m22.639 9.893l-.056.058-.028.058M100.175 337.344l.112-.087.056-.029m-29.504 3.76v-3.095M355.59 71.436l-.028.057-.028.03m-36.648 68.61l-.028.029m-.7-.869l-.028.058M121.16 264.77v-5.437m145.836-3.848v.058m-115.744-53.887h.644m-22.386-41.739l1.961.607 1.373.434.112.029 1.457.463m-17.287-4.657l1.737.521 2.886.867 1.401.405.084.029m-22.975 59.21h-.309m12.16-46.425l.281.059m115.324 55.593l.056-.029m133.367-37.169h.055M239.734 314.666l-.028.665v1.707l-.028.549-.028.376-.028.203-1.569 11.396-1.653 11.889-.308 2.256-.673 4.83-.028.145-.056.376-.448 3.239M48.648 255.659l.084.029.14.029.197.028 3.278.261 3.306.26.252.029h4.315l.364-.029.336-.029.28-.029.253-.029.196-.029.14-.029.084-.028.028-.029m.869-.897l-.056.029-.112.029-.196.028-.252.029-.308.029-.365.029-.42.029-.476.029-.505.029h-4.622l-.365-.029-.308-.029-3.334-.26-2.886-.232-.392-.029-.224-.028-.169-.029-.084-.029m2.662-11.541h-.701l-.28.029-.252.029-.196.028-.14.029-.084.029-.028.029.028.029.084.029.14.029.196.029 3.278.202 3.306.203h5.268l.28-.029.252-.029.196-.029.14-.029.084-.029.029-.029-.029-.029-.084-.029-.14-.028-.196-.029-6.612-.405h-4.54zm-2.634 1.041l.112.029.168.029.224.029 3.278.202 3.334.203.308.029h5.492l.476-.029.42-.029.365-.029.308-.029h.224l.196-.029.113-.029.028-.029"/><path d="M126.231 163.012l1.429.521 2.074.752 1.036.376 2.13.752 5.772 3.905.112.087 4.791 5.38 3.362 6.421 1.765 7.058.028 7.289m-1.681 7.057l-1.933 3.761-.056.115-1.317 2.575-4.735 5.409-.449.376-.448.376-.476.376-.448.376-.449.376-.448.376-.476.347-.477.347-.476.347-.476.347m-5.716-1.012l.476-.376.477-.405.476-.405.476-.405m158.276-18.772v.029l-3.558 22.735v.029l10.171 2.112 11.599.81 11.6-.781 11.403-2.314 11.012-3.847 10.422-5.294 9.667-6.652 8.742-7.897 7.677-8.996 6.472-9.95 5.155-10.76 3.755-11.338 2.269-11.773.785-11.975-.757-11.975-2.241-11.772-3.727-11.368-4.567-9.603-.448-.954-.112-.203-2.41-3.731-.028-.058-.14-.231-.028-.058-1.261-1.938-2.577-3.992-7.257-8.562-.14-.173-.252-.29-2.326-2.111-.168-.145-.841-.752-4.23-3.847-9.19 1.302h-.056l-.168.145-12.609 10.76"/><path d="M295.575 210.507l-.7-.318-.589-.492-.448-.636-.28-.723-.084-.781.112-.781.308-.723.476-.608.617-.463.7-.289.757-.087M49.041 243.395l6.584.405m129.613 24.528l1.009-.781m6.977-101.815l-.168-.087-.196-.116-.196-.144-.168-.174-.224-.231-.365-3.847v-.232l-.028-.491v-.376l-.224-6.624.224-7.723.197-2.256.308-3.529.168-1.938.112-.81 1.037-6.826 1.625-7.55 2.101-7.433 2.55-7.261 2.998-7.086 3.446-6.856.112-.202.476-.81.785-1.36 2.466-4.251 3.222-4.83 1.036-1.534 4.651-6.074 5.016-5.756 5.351-5.41 1.177-1.04 2.325-2.054 2.186-1.938 5.996-4.657 6.248-4.252 6.5-3.818 6.725-3.384 5.94-2.517 1.008-.434 7.089-2.458 1.541-.434 5.716-1.562 3.67-.752.476-.03.225.03.224.058.224.115.196.145.168.145.168.173.14.203.112.231.084.231.028.232-4.37 6.074-2.662 3.731-.308.434-6.557 9.14-.168.232-.028.029-4.035 5.64-6.724 9.372-32.501 45.325-1.597 2.228-1.205 1.677-.028.058-.504.694-6.052 8.446-13.225 18.455-.112.173-3.923 5.467-.056.087-3.558 4.975-.056.058-5.156 7.202-.224.087-.224.058-.252.029h-.252l-.252-.029-.225-.058h-.224zm117.369 33.726l8.657-1.041M129.117 345.269l-.953.665-.952 1.562-.953 2.429-.925 3.298-.644 3.066-.224 1.041-.813 4.86-.448 3.355v18.252h6.64m7.202-37.429l-.701-.896-.644-.174-.224-.058m-5.632 38.557v-18.252l.42-3.355.784-4.86.225-1.041.616-3.066.308-1.157.561-2.083.028-.058.588-1.561.308-.868.897-1.562.812-.608.084-.057m194.308-80.064l-1.793-9.372m1.148 6.855l-.112.086.645 2.314.084.087m-21.518-7.347l19.669-1.996h.056l18.969-5.929m2.437 6.479l-.084.116 1.065 2.14.112.087-.056-.145-3.474-8.677"/><path d="M343.15 256.7l.168 1.765-5.856 2.487-1.373-.376-6.304 4.599-.224-.752-.449-1.562-.084-.087m18.045-8.677l.925.579.448.26.112.058m-1.485-.897l-1.737.029-1.457.955-.757 1.619m6.248-.318l-.925-1.417m.113.058l.924 1.446m-.196.029l.112.087 1.093 2.14 5.323-5.785 1.429.087 5.268-3.616-.505-1.706m-59.482-143.932l-2.382.319-5.435 2.314-1.065.462-5.212 4.137-.364.289-1.625 2.169-.056.058-2.606 3.5-2.689 6.711-.841 6.508-.084.694m-.028.001l.112.867.196 1.62.588 4.715 2.69 6.71 1.037 1.389"/><path d="M284.619 146.409l-.952-1.273-2.662-6.681-.616-4.947-.197-1.619-.084-.608m-93.861 153.188v-33.843m-1.009 17.702v-21.347m46.82 106.792h2.521l.365-1.476.784-3.239.084-.376.028-.145 1.177-4.83.14-.608.392-1.648 1.205-4.86 1.709-7-1.709 7-.112 7.145-.028 1.157-.841 3.673-.14-4.83-.056-2.257m-5.576 22.879l-.925 3.761-.028.144-.056.174-.028.144-1.233 5.062-.364 1.475-.336 1.389-1.849 7.578-.196.752-.056.203-.225.925-.448 1.88-.028.087-.196.781-.728 3.037-.673 2.777-.168.637-.056.231-.084.347-.196.752-.056.231-.028.145-.168.636-.589 2.401-.224.897-.252 1.012-.14.521-.308 1.215-.589 2.429-.112.463v51.776M114.24 225.982l-.925.492m5.435-3.095l-.896.549-.897.521M348.642 35.858l-.336-.116-2.241-.839-7.705-2.285-7.846-1.764-7.929-1.215-7.985-.665-2.41-.03h-.812l-4.791-.057-1.121.058-6.893.376-7.957.983-7.873 1.533-4.371 1.157-3.306.897-.084.029-4.875 1.677-2.746.926-7.425 3.124-7.229 3.615-6.976 4.108-6.697 4.57-6.388 5.033-3.082 2.777-2.55 2.314-.42.376-5.688 5.843-5.295 6.218-4.483 6.046-.392.55-4.427 6.912-.897 1.62-.84 1.504-.449.81-1.793 3.269-3.502 7.433-3.026 7.666-2.522 7.867-2.017 8.012-1.485 8.128-.841 7.289-.112.955-.14 2.545-.308 5.727.112 8.273-2.83 3.384-.896 1.07M313.759 26.718L331.607 1.61l.784-1.765.925-2.169.841-2.083.756-1.938.644-1.822.561-1.706.448-1.562.336-1.447.225-1.301.112-1.157v-1.013l-.084-.665-1.037-3.76L321.296-32l-3.502.347L272.376 32.3M142.398 359.934l-.028-.984-.084-3.818.252-1.909.252-1.938.589.984.028 1.099"/><path d="M143.127 358.95l.084-.029.028-.029.084-.173.084-.376.084-.55.056-.665.028-.723v-1.475l-.028-.637-.056-.52-.084-.376-.028-.029-.056-.145"/><path d="M143.323 353.252h-.084l-.056.145-.028.057-.085.376-.084.55-.056.665-.028.723v1.476l.028.636.056.521.084.376.085.173"/><path d="M141.109 359.933h1.289l.589.926.252-1.967m-.477-7.579h-.756m144.687-86.108l1.794-9.372m-1.541 6.883l-.253 2.401.028.087m-17.175-15.301l18.94 5.929h.028l19.725 1.996v9.546l-.056-.087-.196-2.401"/><path d="M302.188 262.63l-.505 1.706h-6.304l-1.149-.896-7.537 1.735.056-.462.197-1.938-.028-.087m19.864-.897l.729 1.012.252.347.056.058m-1.037-1.417l-1.597-.665-1.709.318-1.288 1.186m5.911 2.198l-.336-1.678m.085.058l.336 1.707m-.197-.029l.056.086.196 2.401 7.061-3.239 1.289.665 6.192-1.273.168-1.764m-56.961-3.066l3.53-8.822h-.028l-17.455-9.632-5.1 7.867-.028.058 1.121-2.111.028-.058"/><path d="M266.716 256.324l-.7 2.285v.087"/><path d="M281.678 259.332l-.813 1.562-6.192-1.272-.953-1.099-7.733.202.084-.26.617-2.054v-.087m19.668 3.095l.729 1.562.028.058m-.756-1.62l-1.457-.955-1.737-.028-1.485.896m5.407 3.327v-1.707m0 .058v1.736m-137.99 40.495l.252-.058.056-.058 2.129-1.736 1.878-1.533m-5.464-.81l-.084-.81-.084-.954-.056-.666-.028-.318-.084-1.446-.056-1.417v-.492l-.028-.607-.028-1.389v-2.053l.028-2.083.056-2.054.084-2.024.112-1.938.028-.492.112-1.302.168-1.562v-.087l.028-.231.169-1.244v-.029l.196-1.243.056-.203.168-.839.224-.781.252-.549.252-.289 3.11-1.736"/><path d="M149.431 275.617l.028.058.084.145.056.086.028.116.084.232.056.144.028.145.084.318.028.174v.057l.028.145.028.174"/><path d="M148.814 297.079l-.084-.318-.056-.318-.028-.145-.028-.202-.028-.145-.084-.55-.056-.433-.112-1.129-.028-.433v-.174l-.056-.636-.028-.319-.056-1.041-.056-1.417v-.289l-.028-1.186v-1.504l.028-1.505.056-1.475.084-1.417.084-1.331.084-.867.028-.376.14-1.128.056-.434.084-.521.028-.202.028-.203.028-.145.028-.144.028-.116.141-.492.028-.144.168-.463.168-.26v-.029l.168-.087m.784 1.91l-.056-.319v-.057l-.14-.666-.168-.491-.168-.29-.168-.115m-1.625 24.124v.058l.196 1.214.112.521.084.463.224.723.225.463.084.087.112.086.056.029m180.13-40.466l-.644-1.591-.476-.434-.813-.752-1.709-.318-1.597.665-1.037 1.417M141.81 348.508l-.028-1.128-.616-1.013h-4.651l-.533 3.934.141 4.946.644.984h4.623l.252-2.054m-5.52 1.07h4.651"/><path d="M141.39 356.231l-.616-.984-.028-1.012-.028-.983-.056-1.938-.028-1.013m.532-3.934l-.252 1.996-.253 1.938h-4.679m5.548 3.935h.112l.028-.058.084-.145.084-.405.057-.376.028-.173.056-.666v-.115l.028-.637v-1.533l-.028-.665-.056-.55-.085-.376-.028-.029-.084-.144"/><path d="M141.726 348.364h-.112l-.056.144-.028.058-.085.405-.084.55-.056.665-.028.752v1.504l.028.665v.116l.056.434.084.376.085.174m165.14-227.554l.448-.578.645-.81.084-.087.056-.058 5.407-6.942.056-.057.617-.81.056-.058 4.399-5.669 2.773-3.558.309-.405 4.174-5.38.393-.434.448-.376.476-.318.533-.261.532-.173.56-.116.561-.029.56.058.56.116.533.202.504.261.476.347.421.405.364.462.308.492.252.55.168.549.113.579.028.578-.057.579-.112.578-.196.55-.252.492"/><path d="M179.158 275.009l.056-.636v-.029l.084-.897.084-.723.056-.52.421-3.876.084-.781.112-1.013.028-.347.028-.144 1.008-9.69.056-.405.028-.318.029-.145.028-.347.028-.26.112-1.128v-.116l.112-1.128.14-1.36.028-.173.084-.868v-.116l.028-.289.028-.231.112-.955.028-.289v-.116l.168-1.735v-.058l.112-1.041.028-.174.112-1.07.028-.232.028-.289.028-.318.168-1.533.084-.926.085-.925 1.232-1.765.673-.954.476-.694 1.009-1.476 9.358-13.479.56-.81.505-.723.112-.173 13.224-19.033.028-.058 1.289-1.88 1.597-2.285 1.99-2.864.056-.057 18.548-26.698h59.651l.14-.174.196-.26.056-.087 1.429-1.822.336-.434 4.736-6.074.168-.232.952-1.214.028-.029 1.513-1.938.056-.058.056-.058v-.029l.14-.173.197-.261.028-.029.392-.52.336-.434.056-.058.168-.203.336-.433.113-.116 1.905-2.459.14-.202.644-.839.028-.029.168-.231.281-.376.028-.029.448-.579.056-.058.616-.781.028-.029.645-.838.028-.058 1.008-1.273.029-.058 5.491-7.029.14-.173 2.018-2.603.504-.637.028-.058.084-.115 1.877-2.401.028-.058.981-1.273.028-.057 5.744-7.376 2.998-3.847.308-.376 6.304-8.07.112-.145.728-1.07.589-1.157.42-1.215.28-1.273.112-1.273-.056-1.301-.224-1.273-.364-1.244-.532-1.157-.673-1.099-.812-.983-.925-.868-1.037-.752-1.12-.608-1.177-.433-1.233-.29-1.233-.115-1.261.057-1.232.232-1.205.376-1.121.55-1.065.694-.952.839-.841.954-5.716 7.318-.336.434-2.858 3.673-4.903 6.248-.056.058-.728.955-.056.057-4.231 5.409-.645.81-2.185 2.806-6.865 8.793-.028.029-.756.984-.028.029-.392.491-4.063 5.207-.7.868-.645.838-.084.116-2.466 3.153-.14.173-.644.81h-61.921l-8.854 12.727-4.819 6.913-.084.116-2.998 4.339-.084.116-2.353 3.384-.084.115-.085.145-.056.058-1.513 2.169-.028.058-1.765 2.517-.084.115-6.276 9.025-13.729 19.756-.112.144-4.623 6.682-1.149 1.678-7.705 11.107-1.709 2.458-.112.145-.028.174-.028.231-.028.26-.084.752-.028.232-.028.202-.028.376m-10.479 55.016l-.7 1.562-1.233 2.748-.42.925-.085.174-.392.868-.504 1.128-.392.867-.056.145-.14.318-.141.318-.224.492-.252.579-.056.115-.336.723-.084.145-.168.376h21.294l.168-.145.504-1.128"/><path d="M291.232 147.016l.084-.26.085-.203.252-.52.336-.492.112-.145.252-.318 3.278-4.194.196-.26.028-.029.057-.058.588-.752.028-.029.42-.549 5.015-6.422.028-.029.617-.781.056-.058.28-.347"/><path d="M179.074 274.373l.084-.896.056-.637.056-.636.421-3.876.084-.781.112-1.012.056-.492.112-1.07 1.037-9.835.14-1.388.028-.145.112-1.128.168-1.591.028-.173.056-.492.168-1.649.028-.231.224-2.054.252-2.314.028-.202.028-.261.028-.318.281-2.632.084-.665 2.521-3.616 1.009-1.475 9.302-13.392 1.065-1.533.112-.174 14.485-20.855 1.597-2.285 2.13-3.095 18.548-26.698h59.735l.308-.376 1.485-1.88.337-.434 4.735-6.074 1.12-1.446.028-.029 1.513-1.938.057-.058.056-.058.14-.202.224-.289.392-.492.336-.434.056-.058 2.494-3.182.14-.202.672-.868.477-.607.476-.608 1.345-1.735.028-.058 6.528-8.359.14-.174 2.578-3.297.084-.116 1.877-2.401.028-.058 6.781-8.677 2.998-3.847.308-.376 6.388-8.186m-168.39 189.343l.589-1.272.896-2.025"/><path d="M332.923 107.244l-.084.116-.252.376-4.651 5.987-.308.405-2.69 3.442-4.707 6.046-.028.058-.7.896-.028.058-4.68 6.016-.644.81-.308.405-.028.058-1.709 2.198-1.233 1.591-6.809 8.736-.084.115-.028.029-.7.897-.028.029-4.343 5.582-.392.434-.365.318-.056.058-.028.029-.252.174-.084.058-.168.115-.532.261-.561.173-.56.116h-.252l-.336.029-.561-.058-.56-.116-.532-.202-.505-.26-.476-.348-.42-.405-.084-.115-.056-.058-.225-.26-.224-.348-.084-.144-.252-.55-.168-.578-.112-.579-.028-.578v-.087l.028-.202.028-.29.112-.578m15.467-20.449l1.092-1.417 5.52-7.116.056-.058 5.071-6.508 2.774-3.557.308-.405 4.287-5.525.392-.434.449-.376.476-.318.532-.26.561-.174.56-.116.56-.029.561.058.56.116.533.202.504.261.476.347.42.405.365.463.308.491.252.55.168.578.112.579.028.578-.056.579-.112.578-.196.55-.252.521m-41.72 39.8l.084-.26.113-.29.252-.52.336-.492 3.586-4.628.196-.26.028-.029.057-.058 1.036-1.331 5.015-6.45.028-.029.617-.81m-78.424 79.573l12.581 15.822-6.389 6.594-.14.145 1.513-1.851m12.721 8.62l-1.345 1.128-5.267-3.616-.449-1.388-7.2-2.864m18.015 11.975l.617-1.533-.084-1.794-.981-1.475-1.569-.723-1.709.26m-77.808-.578l-.196.116-.532.347-.365.405-.224.231-.056.116-.336.636-.196.868v.145l.028.723.252.839.448.752.028.029.589.578.756.405h.028l.421.116.364.087.84-.029.112-.029.701-.232"/><path d="M169.324 246.287l.056-.029.112-.058.561-.347.504-.549.084-.087.392-.781.196-.868-.028-.868-.252-.839-.448-.752-.616-.607-.757-.405-.112-.029-.728-.173-.841.028-.224.058-.617.174"/><path d="M169.576 246.201l.729-.463.28-.318.28-.318.392-.781.196-.839-.028-.868-.252-.839-.448-.752-.616-.607-.757-.405-.448-.116-.393-.086-.84.029-.42.144-.393.116m-17.595-3.992h12.132v18.975"/><path d="M150.271 236.106v6.942l.197.116 1.092.723.252.173.841.579.056.029 1.681 1.128 1.737 1.186v7.607m5.296 0h-5.296l-.952.434"/><path d="M161.423 255.023h-6.248v-7.694l-2.69-1.822-.056-.029-.981-.666-.308-.202-1.681-1.128-.196-.116v-7.26m18.043-.462l-.056.028-.14.058-.532.232-.336.144-.673.29-1.457 1.214-.336.463-.252.347-.336.492-.196.26-.14.376-.533 1.418-.028.347v.087l-.112 1.041-.056.434.168 1.099.112.81.112.289.617 1.475.084.087.812 1.07.28.347 1.513 1.128.057.029 1.204.492.365.145.112.058 1.849.202.98-.145.869-.144.504-.232.757-.347.336-.144.112-.058m-5.659-13.393h.056l.644-.116.813-.116.336-.057 1.849.202 1.737.694 1.513 1.128 1.177 1.504.756 1.765.281 1.909-.084.694-.028.318-.084.926-.281.723-.392 1.07-1.093 1.562-1.429 1.186-.028.029"/><path d="M170.193 246.084l.448-.202.364-.145.701-.549.532-.723.336-.839v-.087l.028-.318v-.029l.056-.492-.112-.868v-.029l-.336-.838-.42-.579-.112-.173-.701-.55-.812-.347-.169-.029-.7-.087h-.084l-.616.087-.197.029"/><path d="M168.708 235.209l1.821-.29 1.569.174.28.029 1.233.492.477.202 1.485 1.128 1.148 1.475.757 1.736.28 1.88-.14 1.215-.028.318-.028.376-.701 1.736-.98 1.388-.084.145-1.429 1.185"/><path d="M168.624 246.519l.84-.116.701-.289.14-.058.336-.26.392-.289.532-.723.337-.839.056-.376v-.058l.056-.492-.112-.926-.337-.838-.532-.723-.7-.55-.813-.347-.756-.116-.14-.029h-.085l-.616.087-.112.029h-.084l-.813.347-.42.347m-20.734 4.425l-.672.318-.617.405-.392.347-.168.145-.504.55-.421.607-.336.665-.252.694-.168.724-.056.752.028.752.14.752.224.723.308.694.393.636.476.579.532.521.589.433.644.347.672.261.701.173.728.058.729-.029.728-.144.673-.232"/><path d="M149.711 255.456l-.7.232-.729.144-.728.029-.729-.058-.7-.173-.673-.26-.644-.348-.588-.433-.533-.521-.476-.579-.392-.636-.309-.694-.224-.723-.14-.752-.028-.752.056-.752.168-.724.252-.694.337-.665.42-.607.504-.55.252-.231.309-.261.616-.405.084-.029.589-.289.084-.029.616-.202.504-.087.196-.029.701-.029h.028l.728.058.112.029.617.145.672.26.617.318.028.029.252.173.028.029.28.203.028.029.084.087.448.433.477.579.168.289.112.174.112.173.308.695.224.723.084.434.028.202.028.116.029.752-.057.752-.028.115-.112.55-.028.058-.084.26-.168.434-.336.665-.42.608-.505.549-.56.492-.476.318-.14.087-.561.26-.056.029h-.056zm-4.623-22.04l.14-.029.42-.086h.028l.308-.058 1.177-.232 1.765-.115.337-.029h14.429m-9.162 30.949l.953-.492m-4.511-.809h2.914l1.625.81v7.607m4.175 0h-4.203l-.953.549"/><path d="M154.978 255.804h7.453v4.715h14.822v10.991h-22.751v-7.694l-1.625-.838h-2.914"/><path d="M149.963 258.263v4.743l1.009-.491V257.8m4.006-1.996l-5.015 2.459 1.009-.463 4.09-1.996m-19.949-11.079l.897.376.056.029.42.174 2.074.896-.421 1.273-.252 1.302-.084 1.33.084 1.331.252 1.301.421 1.273.56 1.186.728 1.099.421.492-.897.81-.364.318-.673.607-.42.376-.168.145-.168.145-.056.057-.028.029m7.649-19.032l-.196.058-1.037.347m-.364-3.818l1.289-.434m-.673.145l.645-.145.084-.029 1.008-.202.056.347.365 2.776.084.608v.087"/><path d="M146.405 239.981l-.616.116-.224.058-.252.058-.168.029m-.197.058l-1.065-2.632-.336-.839-1.065.289"/><path d="M143.911 240.675l-.756-1.88-.673-1.677 1.682-.579m-7.145 6.219l2.101 1.244.476.289"/><path d="M140.885 237.928l.197.318.028.058.196.376.588 1.041.42.723.449.781-.981.694-.084.058-.981.868-.056.058-.812.954-.252.405-.141.203-.336.492-.168-.087-2.662-1.591-.42-.26"/><path d="M140.885 237.928l-1.485 1.012-1.344 1.215-1.177 1.388-.28.434-.729 1.099.504-.144.617-.174.98-1.504 1.177-1.359 1.317-1.215.589-.405"/><path d="M143.463 233.792l-2.017.723-.28.145-.561.289-1.065.55-1.765 1.214-1.597 1.447-1.401 1.648-1.176 1.823-.337.723-.672 1.301-.701 2.083-.42 2.169-.112 1.765-.028.434.14 2.198.42 2.169.701 2.083.953 1.967.168.231.056.058.476.752.112.174.028.029.252.405.112.173.421.492.756.897.224.289.056.058.084.086 1.289 1.157.168.174.084.058.785.549.28.203.504.347.112.087.084.058.785.405 1.037.52.42.145 1.597.549 2.101.434 2.13.145 2.129-.145.869-.173.7-.145.533-.116.98-.347v7.087"/><path d="M135.113 244.725l-.56 1.736-.336 1.793-.113 1.822.113 1.822.336 1.794.56 1.735.785 1.649.98 1.533.056.087.056.058.084.115.113.116.28.318m5.996-25.512l1.261-.26.42-.087.112-.029.28-.057 2.13-.145h31.212V273.1"/><path d="M153.017 294.939l-.056-1.533v-.376l-.028-.724-.028-1.272v-17.963h26.001m-47.043-53.134l-.812.549-.813.55-.812.52-.841.521-.84.521-.841.491-.84.492-.869.463-.869.463-.868.434-5.015 1.822-.869.318-.476.174m.28-2.459l.897-.521.896-.521m-40.683-48.623l-4.567 5.785-3.138 6.711-1.54 7.289.167 7.463 1.85 7.202 3.418 6.566 4.819 5.554 5.94 4.252 1.653.665 5.071 2.025 4.063.578 3.11.434h.112l4.987-.521 1.513-.144.589-.058m31.801 29.648l-.337-.376-.98-1.504-.785-1.649-.56-1.735-.336-1.793-.112-1.823.112-1.822.336-1.793.336-1.013"/><path d="M116.229 160.235l-.448-.029h-.056l-.196-.029-2.102-.202-2.633-.232-2.102-.202-3.698.607-3.755.608-6.92 3.066-1.401.81-1.401.839-1.373.867-1.373.897-1.345.897-1.317.925-1.316.955-1.29.983-1.288 1.013-1.26 1.012-1.262 1.041-1.233 1.071 3.503 4.483.98 1.273 1.009 1.301-3.278 4.137-.448.925-.056.087-.056.116-.225.462-.028.058-.084.203-.308.665v.029l-.224.463v.029l-.392.839-.028.057-.28.608-1.037 4.946.112 5.062 1.26 4.917.617 1.186 1.71 3.297 3.277 3.79 1.71 1.243 2.325 1.649.28.116 2.522 1.012 1.765.694 1.009.145 3.446.492.42.058m3.418 36.011v-11.02l-.028-.145v-.029l-.028-.086-.028-.116m-11.319 10.76h-.14l-.28-.029-.197-.058-.084-.029m.281.087l.112.029.309.03m9.188-11.426h-2.942l-1.232-.029-.981-.029h-.168l-1.037-.029-.896-.029h-.169l-.28-.029-.28-.029-.56-.058-.252-.029-.169-.028-.224-.058-.028-.058.14-.058.309-.058h.112"/><path d="M62.77 253.836l26.533.897.672.029.757.029h.364l5.015.173.197.029.196.029.196.029.196.029.196.029.196.029.196.029.197.029.196.029.196.029.196.058.196.057.196.058.196.058.084.029.112.029.112.029-.784-.058-.112-.029m1.065.087l2.045-.087m308.847-58.457l-8.545-3.644m6.108 2.776l.028.145 2.214.723h.196m-17.876 14.405l9.302-17.963.028-.087 5.744-19.582m6.5 1.504l.056.145 2.325.26.224-.029-.224-.058-8.826-1.822 1.934-20.305v-.087l-1.934-20.305v-.058"/><path d="M410.814 180.859l1.513.839-1.232 6.392-1.065.984.196 7.983-.925-.318-1.288-.434h-.197m3.082-20.276l1.485-.723.084-.029"/><path d="M410.899 176.028l-.925 1.504-.028 1.794.869 1.533m3.109-5.553h-1.569m.113-.058h1.681m-.169.173l.197-.029 2.325.26-1.681-7.78.869-1.186v-6.537l-1.654-.521M116.313 345.876h1.149l.561-.029.504-.029h.168l.392-.029.477-.058.448-.058.42-.058.364-.057.309-.087.252-.087.168-.087.196-.202.028-.029.757-.723v-10.789h-4.483l-.421.376-.532.463-.672.578m-.084 2.43h-4.371l-1.709 1.447-.056 3.124h6.136m-6.081-3.125h6.052m.028 7.029v-10.934 10.934z"/><path d="M116.313 334.942h1.121l.533-.028m-.001 0l.56-.029.505-.029.476-.058.448-.058.42-.057.365-.058.308-.058.252-.058.168-.058.785-.694.224-.174m18.352-112.46l-.448.318-.757.55m57.774 122.613v7.173l.084 2.256v.434m-.196-2.691l7.565-.087m91.004-141.442l-.644-.202-.589-.376-.476-.492-.336-.608-.168-.665.028-.694.196-.665.364-.608.476-.492.589-.347.644-.173.673.029h.028l.644.202.588.376.477.492.336.607.168.666-.028.694-.196.665-.364.608-.477.491-.588.347-.645.174-.7-.029z"/><path d="M296.64 204.953h-.672l-.645.174-.588.347-.476.491-.337.608-.196.665-.028.694.168.666.337.607.476.492.588.347.365.116.28.086m.307-1.127l1.289-.723.028-1.533m.029 0l-1.261-.781"/><path d="M296.22 209.147l-1.261-.781.028-1.533 1.289-.723m.028-.028l1.261.781-.028 1.533-1.289.723m50.685 40.784l17.483-9.661 15.326-12.987m-14.401 17.094l1.513.55.112.058m-1.625-.608l-1.681.376-1.233 1.244-.42 1.735"/><path d="M369.571 248.168l-.14-.058-1.457-1.88.056-.145-1.176-1.215m.14.058l1.177 1.215"/><path d="M367.975 246.229l.14.058 1.457 1.88 4.118-6.739 1.429-.203 4.483-4.628-.812-1.562m10.115-103.753l.56-.376.448-.521.309-.608.14-.694-.028-.694-.197-.665-.364-.579-.504-.462-.588-.319-.673-.144-.672.029-.645.202-.56.376m2.773 4.455l-.645.202-.672.029-.672-.145-.589-.318-.504-.463-.364-.578-.197-.665-.028-.695.14-.694.309-.607.448-.521"/><path d="M386.103 126.855l-.449.521-.308.608-.14.665.028.694.196.665.364.579.505.463.588.318.645.144.672-.029.644-.202"/><path d="M389.156 128.476l-1.092-1.041-1.345.433"/><path d="M389.241 128.418l-.337 1.504-.084.029-1.344.434-1.093-1.042.308-1.446v-.029"/><path d="M386.747 127.84l1.401-.463 1.093 1.041-.084.058-.309 1.446m11.18-39.801l-7.677 5.293m7.48-5.149l.196-.173m16.28 41.189l.224-.116-.252.058-8.826 1.822-5.744-19.553v-.058l-9.33-18.02v-.029l-8.069-10.153m2.998-4.627l1.513-.838 4.483 4.628.196 1.475 6.528 4.252-.252.202-1.569 1.302-.196.173m-177.33 112.952l.28.521.645 1.244 2.55 4.888-7.677 5.293"/><path d="M220.15 212.388l-.561 1.677-1.149 1.186m1.71-2.864l-.364-1.735-.645-.694-.56-.608-.448-.116-.561-.144m.7 6.132l-1.821 1.504m183.577 0l-7.677-5.293-.056.057-12.524 15.765 6.416 6.623.14.145-.168-.058-1.793-1.562.028-.144"/><path d="M397.814 215.396v.144l2.046 1.157.196.029"/><path d="M403.67 200.991l1.345 1.128-2.409 6.046-1.233.752-1.317 7.867-.897-.491-1.148-.666-.197-.029m6.836-19.322l1.569-.405.112-.029m-1.68.434l-1.205 1.273-.364 1.736.56 1.677m4.147-4.802l-1.569-.318m.112-.029l1.597.319m-145.864-49.723v.058l-.028.579v.173"/><path d="M262.121 146.698l-.057-.289h.057l.336.058.588.087 3.334.52.449.058.588.087m70.075-73.267L320.96 60.878l-.897-.694-2.073-.897-2.214-.289-1.401.203-.7.086-.14.03-2.074.896-.112.087-1.513 1.186-.168.115-14.569 13.335-13.281 12.148-9.386 8.59-.028.03-.589-.29-1.597-.52h-.056l-.644-.203-.056-.028-.336-.116-2.746-.52-1.457-.088-1.345-.057-2.045.173-.757.058-2.746.579-2.661.925-2.522 1.273-2.326 1.59-2.129 1.881-1.877 2.14-1.597 2.372-1.289 2.545-.981 2.719-.644 2.806v.145l-.28 2.748.028 1.33.028 1.562.056.289.028.116.364 2.43.756 2.777m2.018 4.743l.056.202.28.868.28 1.07.225 1.1.168 1.099.112 1.128.056 1.128v1.128l-.056 1.128-.14 1.128-.197 1.099-.7.926-.588.983-.449 1.071-.336 1.099-.196 1.128-.056 1.157.056.723m-.477-22.908l.112.26.196.492.785 1.909.448 1.012.392 1.042"/><path d="M262.121 147.22l.028-.26v-.261h.056l.112.029.589.087 2.689.405m-22.386-22.476l.308.752.785 1.909.448 1.013.336.867m-14.373 218.269l.028-.087.028-.232.028-.347.028-.433v-2.401l-.028-.29-.028-.173-.028-.029-.028.087-.028.231-.028.347-.028.434v2.401l.028.289.028.174.028.029zm1.288-4.339v-3.442l-.224-5.814-.028-.521-.028-.491v-.319l-.056-1.591-.112-3.037-.028-.491-.308-7.955-.533-14.462h-13.925l-11.627 21.578-.057.144-.056.232-.056.347-.056.434-.028.52-.028.579-.028.636-.028.695-.028.752-.028.752v1.562"/><path d="M221.69 333.265v-2.314l.028-.752.028-.694.028-.636.029-.579.028-.52.028-.434.028-.347.028-.232.028-.144.196-.521.14-.376.056-.145.896-2.227.225-.578m-.113 53.25l-.056-.145v-.116l-.028-.347-.028-.752v-.231l-.028-.781v-3.616l.028-1.157.056-.983.028-.55v-.202l.056-.463.056-.145m5.661-11.107l-.056-.087-.028-.376-.028-.607v-4.021l.028-.781v-.26l.028-.897.028-.723.028-.144.028-.319.028-.173v-.029"/><path d="M223.399 366.471l.057.173.056.492.028.752.028.983v2.401l-.028 1.244-.028 1.157v.029l-.028.954-.056.753-.057.376v.115l-.056.174m8.686-32.859l-1.261 5.351-.644 2.748-.589 2.487-.392 1.649.056-.202.056-.463.028-.723v-.261l.028-.636.028-1.041V349l-.028-.839-.028-.578v-.029l-.028-.376-.028-.087v-.029m.393-39.425v1.706l-.028.723-.029.608-.028.405-.028.202h-.056l-.028-.231-.028-.463-.028-.636v-1.591h-6.388m7.678-3.297l-.757 1.909-.252.665h-6.36m.616 14.289v1.62l-.028.867-.029.752-.028.55-.056.318-.056.058v-.029l-.028-.173-.028-.434-.028-.637-.028-.81v-1.243h-7.256"/><path d="M229.34 308.303l-1.121 2.777-.056.173-1.877 4.657-1.233 3.095-1.177 2.921h-7.229m-.028.868v-.868l-.281.578-.14.29m6.726-14.492l.308-.665v.665m161.273-76.015l-1.345-.925-.448-.058-1.261-.174-1.569.723-.981 1.476-.084 1.793"/><path d="M384.337 232.403l.168.029 1.793 1.562 2.774-7.433 1.345-.463 3.502-5.438-1.092-1.389m-240.034-16.053h.028v.231l.028.232h-.925v.376l.029.173v.174l.028.144v.029h-.449m.364-2.226v.896"/><path d="M151.477 203.768l.028.173v.232l.028.173v.145l.028.144v.029m1.26-1.446l-.532.029-.308.029h-.085.169"/><path d="M151.953 205.358h.084l.308-.058h.056l.084-.028.28-.145.056-.029.028-.029.057-.029.224-.202.056-.029.056-.087.168-.26.028-.058.028-.087.112-.318.028-.058v-.463l-.028-.087-.056-.318v-.058l-.028-.086-.14-.29-.028-.057-.028-.029-.028-.029-.028-.029-.196-.232-.028-.058-.084-.057-.169-.116-.084-.058-.056-.029-.084-.029-.308-.115-.056-.029h-.084l-.252-.029m-.953 2.053h-.252m.868-1.446l.393-.029m-.337.955v-.058l-.056-.867h-.056m-.785.983l.336-.029.449-.029h.112-.084m.084.463h-.14"/><path d="M151.448 203.276l-.14.029h-.701m.617-1.562l-.42.202-.364.318-.253.405-.168.463-.028.492.056.347v.087m.589-.261v-.463h.056l.028.319v.144m-.645.29l.196.434m1.626-2.169h-.449v.896m1.345-.029h-.729m-.588.55h-.365m-.784.81l.252.318.252.173.141.116.28.116.14.058.196.029h.308m-.279-.724v-.086l-.056-.839h-.084m-.589.057h.224m53.739 161.605l-4.399.607-.728.116-1.205.202-5.155.897-6.249 1.389-5.267 1.533-4.175 1.648-2.97 1.736-1.709 1.793-.28 1.389-.084.433m-36.704-204.095l-5.071-5.698-6.249-4.252m-5.968 182.69l-1.372 1.88-6.305 8.533-.056.087-.616.897-.644 1.012-.589 1.041-.532 1.099-.448 1.099-.393 1.129-.336 1.157-.168.694-.112.463-.224 1.185-.168 1.215-.084 1.215-.029 1.215v4.223m13.169-17.644l.028-.954.085-1.1.14-1.099.168-.867m27.682-45.21l-1.905 1.59-.645.955-8.293 11.252-3.558 4.83m-23.676-92.415h.448v-.029l-.028-.145v-.144l-.028-.174-.028-.174v-.231m-.504-1.417h.448v.897h.813"/><path d="M109.645 232.374l.028.174v.057l.028.174.028.174v.144l.028.145v.029h.084m.392-.954l-.112.029.112-.029zm0 0h.813l-.028-.232v-.058m-.87 1.88h.056l.169-.029.14-.029.084-.029.056-.029.28-.144.084-.029.028-.029.252-.203.084-.058.028-.057.168-.261.056-.086.028-.058.113-.319.028-.086v-.058l.028-.318v-.174m-3.026.492h.84m-.868-.463h.701l.14-.029h.112l-.056-.925m.14 2.256l-.056-.925"/><path d="M109.645 232.375l.112-.029-.897.058"/><path d="M108.776 231.941v.231l.028.232h.084l-.028-.463"/><path d="M109.308 230.407l-.308.145-.364.318-.252.405-.084.231-.084.232-.028.491.084.463.196.434.308.376.392.261.448.144.477.029m-.476-2.979v.897m11.852 127.357l.056-.434.28-1.764-.084-.723-.336-2.864.196-1.186.196-1.099.56-2.603.056-.318h2.214l.028.318.28 3.702.925-3.702-.14-2.922-.084-1.388-.028-.289-.113-2.112v-.173l-.028-.608v-.202h-2.998"/><path d="M117.266 347.67l.364 4.599h3.95m2.803-7.174l.672-2.632.084-.26.28-1.128.057-.203"/><path d="M121.665 345.096h2.69l.56 7.144v-.029l.196-.752.393-1.504.336-1.388-.14-2.922-.084-1.388.364-1.273.756-1.909M316.364 13.557l1.457 1.099 1.737-2.17.196-.23.196-.232.168-.203.14-.173.141-.145.112-.116.084-.086.084-.058.056-.03h.028v.145l-1.597 6.075-.14.26-.169.29-.196.317-.196.348-.224.347-.224.376-.252.376-.252.405-.281.405-.28.434-.28.433-.308.434-3.39 4.802"/><path d="M307.091 26.63l9.302-13.074 2.578-3.644.588-.84.224-.317.224-.29.196-.26.197-.26.168-.232.168-.202.14-.174.14-.144.112-.116.084-.058.056-.029h.028l-.056.29-.084.289-.084.318-.084.318-.028.087-.084.231-.112.347-.112.347-.112.376-.14.377-.141.404-.14.377-.028.028-.168.405-2.157 3.385m-184.334 204.21l-.784.579-.785.578m3.531 14.781l-2.689 1.302-4.764 1.938-.812.202-2.214.579-1.961.492-5.099.607-5.128-.087-5.071-.781-4.931-1.446-4.707-2.112-4.4-2.718-4.006-3.298-2.633-2.806m2.998 37.401l.028.086.224.087.392.087.56.058.28.029.449.029h.224l.672.029h.14l.897.028 1.149.029 1.233.029 1.317.029h4.174l1.373-.029 1.345-.029 1.261-.057h.224l.953-.058.42-.029.644-.029.953-.058.784-.087.645-.087.476-.086.168-.058.14-.029.113-.087M94.01 241.602l.197-.058.616-.058 1.009-.058 1.317-.058 1.54-.029 1.682-.029h3.25l1.373.029 1.065.029.7.058.28.058-.168.058-.616.087-1.009.058-1.317.057-1.569.029-1.681.029h-3.306L96 241.775l-1.065-.058-.672-.057-.252-.058zM202.358 89.716l-.252-.26-.448-.434-.561-.55-.7-.636-.785-.723-.896-.81-.981-.868-1.037-.897-1.064-.925-1.093-.926-1.093-.925m-42.111 73.324h-.112l-.253-.115-.392-.261-.504-.347-.645-.462-.756-.579-.841-.665-.924-.752-1.009-.81-1.065-.868-1.092-.897-1.121-.925-1.093-.926 51.33-65.081.56-.723"/><path d="M226.565 59.056l-1.12-.231-3.755-.463-3.754-.116-3.755.231-3.726.579-3.671.897-3.586 1.214-3.446 1.533-3.307 1.852-3.138 2.14-2.942 2.401-2.745 2.661-2.494 2.893-51.946 65.833-7.229 9.14m55.729 140.286l-.476.463m-1.569 0h1.569l-.028.463-.056 1.07-.028.405-.028.579-.084.896-.084.781-.084.637-.113.491-.112.348-.112.202-.084.029h-.028l-.112-.116-.112-.289-.112-.434-.084-.578-.056-.405-.028-.318-.084-.868-.056-.955v-.029l-.056-1.07-.028-.839zm0 0v-3.991l.028-1.244v-.174l.028-1.041.028-.434.028-.723.028-.376.028-.723.084-.984v-.029l.084-.896.084-.781.112-.637.112-.491.028-.087.084-.231.112-.174h.112"/><path d="M180.139 303.356l.084-.029.084-.029.168-.174.897-4.801.308-1.707v-6.71h-2.045m-.729-16.805v17.934l.028 1.272v.723l.056 1.909.056 1.36.028.434.112 1.591v.029l.113 1.417.14 1.215.168.983.14.579.028.144.168.463.14.174.028.029m.449-25.946l.112.144.112.318.112.463.084.608.084.723.084.868.056.954.056.955v.086l.028 1.128v3.992m.476-5.206v-7.434l.812-.636 1.121-.897"/><path d="M179.607 287.679h1.654l.224-.203 2.661-2.487v-2.257l.028-1.128.028-1.099.056-1.041.057-.983.056-.897.084-.81.084-.723.084-.608.084-.462.084-.348.084-.202.028-.058.056-.029m-1.289 6.393l-1.934 1.707"/><path d="M183.67 273.477v7.289h-1.934m3.223-6.422l.084.058.084.203.084.347.084.462.084.608.056.694.056.81.056.897.028.983.028 1.041.028 1.071v2.227l-.028 1.099v.029m-1.849 3.037v6.537m2.493-26.871l-1.008.781-5.156 3.876-.7.521m-25.974 26.843l.028.173v.087l.168 1.128v.058l.084.347.028.116.084.434.028.057.141.521.056.145.084.173.056.116.084.202.224.203m31.884-52.123l.057-.116.196-.694.084-.723v-.724l-.084-.723-.196-.694-.141-.376M355.479 70.915l.224-.665.028-.694-.14-.694-.309-.637-.448-.52-.56-.376-.645-.232-.672-.029-.673.145-.616.318-.504.463-.252.376-.141.203m.001.087l-.224.665-.028.694.14.694.308.636.448.52.56.377.645.231.672.03.673-.145.616-.319.505-.462.196-.29.168-.289"/><path d="M355.478 70.915l-.056.087-.308.492-.504.463-.617.318-.672.144-.673-.029-.644-.231-.561-.376-.448-.52-.308-.637-.14-.694.028-.695.196-.636v-.029"/><path d="M354.106 70.887l.448-1.36-.981-1.157"/><path d="M353.63 68.283l-.057.116-1.428.29"/><path d="M352.172 68.601l1.457-.318.98 1.157-.476 1.447h-.028l-1.429.289-.981-1.157.449-1.36.028-.058zM184.874 285.567l-.336.405-.28.434-.224.463-.168.492-.028.115-.084.376-.028.521v18.772h7.733l.364-.462v-12.785l.28-.318v-5.872h-.308"/><path d="M192.131 287.708l-.28.289-.028-.289v-.232l-.112-.52-.168-.492-.224-.463-.28-.434-.336-.405-.393-.347-.42-.289-.448-.231-.477-.174-.504-.116-.504-.028-.505.028-.504.116-.476.174-.28.144-.169.087-.42.289-.028.029-.364.318"/><path d="M191.487 307.145v-18.772l-.028-.376v-.145l-.028-.173-.056-.347-.169-.492-.224-.463-.28-.434-.336-.405-.392-.347-.421-.289-.448-.231-.476-.174-.505-.116-.504-.028-.504.028-.505.116-.392.145-.084.029-.448.231-.42.289-.253.232-.112.115M358.14 36.495l-4.959-2.054m-231.32 331.624l.56 2.546h-2.213l-.561-2.546.309-2.921.028-.232.028-.202m3.978-5.698l-.28 1.765-.336 2.198-.196 1.302v.057l-.477-3.124h-2.241m11.487-17.903l-.252 3.991m1.064-.001l.084-.896-.784-2.806-.14-.318h-1.009"/><path d="M131.443 345.297l-.28-.607-.14-.289-.169-.347-.084-.174.112-2.574.085-2.054-.841-1.07-.224-.058h-.953"/><path d="M129.958 338.124l-.084 3.182-.056 1.533h-.084l-.392-.029-.365-.029h-.112m-1.008.984l-.42.781-.393.752-.168.318v.029l-.056-1.851-.028-.954-.028-1.128-.028-.637h-1.289"/><path d="M128.894 342.81l.028-3.558v-1.215h-2.158l-.812.521-.308.463v1.995"/><path d="M127.829 339.079v.318l.028 3.413v.926h-1.037"/><path d="M128.949 338.066l-.112.087-.7.462-.281.463v.029h-2.185m-2.072 14.319l.308 2.863.084.723h-2.214m2.829-8.764l-.616 2.921-.196 1.1m-1.093 6.941l-.14 1.013-.28 2.111-.056.405-.364 3.356h-2.242m.393-3.385l.168-1.301.168-1.186.14-1.013m.897-5.785h2.213l.196-1.186M348.306 35.742l-2.242-.838-7.705-2.285-7.845-1.765-7.929-1.215-7.985-.665-2.438-.029-5.575-.087-1.149.058-6.865.376-7.957.984-7.873 1.533-4.399 1.186-3.362.896-4.903 1.678-2.718.926-7.425 3.123-7.201 3.616-6.976 4.108-6.697 4.57-6.388 5.033-3.082 2.776-2.97 2.662-5.66 5.842-5.295 6.22-4.483 6.045-.392.52-4.427 6.913-.897 1.62-1.289 2.314-1.793 3.24-3.502 7.433-3.026 7.665-2.522 7.868-2.017 8.012-1.485 8.128-.841 7.289-.112.955-.42 8.272.112 8.273v4.83m168.67-124.464l-.812-.348-2.83-1.272-1.513-.579m41.551 27.566l.56-.636.421-.492.28-.318.14-.174-.14.174-.28.318-.421.463-.56.607-.14.145"/><path d="M387.756 59.114l2.157 2.054 3.727 3.558-.113.144-9.778 13.624-.14.203-1.849 2.574M135.142 265.117l.504-.029.476-.028m-11.964.26l4.623-.058h1.485l1.177-.029 1.009-.029m53.795-13.681l.112-.29.168-.752v-1.764l-.084-.55-.168-.578m-.028 1.244v-2.806m223.979-136.208l-8.545 3.645m6.276-2.401l2.073-1.099.197-.145M399.551 97.93l1.653-.52 3.502 5.438-.084 1.475 5.604 5.496-.449.231-1.625.868-.196.145m-10.058-19.351l-1.009 1.041-.56 1.678m.364 1.764l1.205 1.273 1.681.434m-282.061 60.801h-.645l-.168.029v.231l.028.174.028.173v.174l.028.144v.029h-.42m.28-2.314v.896m-.448-.868v.897m.028.492l.029.173v.058l.028.174.028.173v.174l.028.144v.029m1.26-1.445l-.7.029h-.14l-.084-.029h.14m-.001.029h.757v.289"/><path d="M116.397 159.685l-.056-.896-.112-.029h-.84m.868-1.36l.365-.029m-.309.955l-.056-.926-.056-.029h.448"/><path d="M115.417 158.384l.897-.058-.112-.029-.141.029m0-.029h-.701"/><path d="M116.929 156.736l-.476-.029-.448.087-.421.202-.364.318-.252.405-.14.463-.028.492.084.463.056.144.028.087.112.232"/><path d="M115.388 158.818l-.028-.231v-.232l.056.029.028.434m2.943-.434v-.028l-.056-.319v-.057l-.028-.087-.113-.232-.028-.058-.028-.057-.056-.058-.196-.232-.056-.057-.084-.058-.252-.174-.056-.029-.084-.029-.28-.115-.056-.029m-1.654 3.152l.337.231m20.678 201.492l-.028-1.215-.673-.983h-4.735l-.56 4.078.14 5.062.7.955h4.736l.28-2.112"/><path d="M135.954 369.537l-.672-.955-.028-1.07-.112-3.992.28-2.053.28-2.025m.393 8.07h.084l.028-.087.056-.145.084-.404.084-.579.056-.694.028-.781v-1.533l-.028-.665-.056-.55-.084-.376-.084-.174"/><path d="M136.29 361.467l-.112.029-.084.144-.028.058-.084.405-.084.579-.057.694-.028.781v1.562l.028.665.057.55.084.376.084.173m282.566-214.074h-9.246m9.021.088l.225-.088m-5.464-15.185l1.709.173 1.233 6.393-.645 1.33 3.139 7.289-.813.087-1.513.145-.196.058m-2.326-21.781l-1.148.492-1.149 1.33m2.606-1.764l.196-.115 2.241-.666-4.455-6.508.365-1.417-2.41-6.045-1.709.173m-216.638 36.011l.224 6.624v.347l.028.521v.231l.365 3.847.168.203.168.173.196.145.196.116m2.381-42.809l-1.625 7.549-1.037 6.797-.14.839m95.123-101.787l-.028-.232-.084-.231-.112-.232-.14-.202-.169-.174-.168-.144-.196-.145-.224-.116-.224-.057-.224-.03-.477.03-3.67.752-5.66 1.562-1.569.433-7.088 2.459-1.037.434-5.884 2.487-6.724 3.385-6.501 3.818-6.248 4.252-5.968 4.657-2.157 1.909-2.326 2.053-1.204 1.07-5.352 5.41-5.015 5.756-4.651 6.074-1.037 1.533-3.222 4.83-2.466 4.252-.784 1.36-.476.81-.113.202-3.474 6.884-2.998 7.087m194.672 106.734l1.597-.087h.14m-1.737.087l-1.429 1.012-.701 1.649.252 1.764m4.988-3.905l-1.485-.636m.112 0l1.513.636m15.242-60.481l1.317-1.041.056-.029m-1.989 2.718l.308 1.764 1.149 1.33m.561-5.813l1.653-.347m-337.09 135.89l-.224.115-.14.058-4.847 2.748-1.934 1.099-5.099 2.893-12.692 7.173-.925.579-.868.665-.813.752-.757.81-.588.781-.084.116-.588.954-.505.984-.42 1.041-.336 1.07-.252 1.099-.14 1.128-.056 1.128v63.288h58.11l1.709-1.822v-3.269"/><path d="M118.471 345.818l-1.233 1.678-6.501 8.822-.28.405-.7.984-.645 1.012-.588 1.07-.28.579-.252.491-.477 1.128-.42 1.129-.336 1.157-.056.173-.252 1.012-.225 1.186-.168 1.215-.084 1.215-.028 1.215v7.578m41.915-78.676l-.056-.52-.028-.376-.112-1.273-.028-.232-.028-.491-.056-1.099-.084-1.794v-.376l-.028-.723-.028-1.099v-2.112l.028-2.14.056-2.112.084-2.053.112-1.967.028-.521.084-1.099.028-.231.14-1.533.028-.145.028-.174.141-1.157.028-.202.224-1.302.028-.086.224-.984.252-.81.252-.549.252-.29 2.69-1.504m-3.081 36.85l.14-.029.168-.058.757-.636v-3.211h-.701m-2.381-11.541V303.5l-.028.348-.057.809-.084.579-.112.578-.14.579-.224.694v.029l-.112.376-.224.55-.252.52-.28.521-.645.955-7.957 10.789-3.474 4.743"/><path d="M145.929 308.65l.28-.492.252-.521.224-.52v-.029l.112-.376.112-.318.112-.376.141-.55.112-.579.084-.578.028-.492.028-.665v-3.066l.084.839h-.084m-68.449-9.488v-.058l-.029-1.793v-.174h68.057v.203l.028 2.024v-2.227m-57.017-23.487l-7.425 2.575-.476.318-.448.665-.449.983-.42 1.273-.392 1.562-.224 1.099-.14.723-.309 1.996v.029l-.028.289-.224 1.967-.084.926-.14 1.475-.168 2.488-.084 2.545-.028 2.574m70.383-20.912l-.309.318-.308.665-.252.868-.028.087-.28 1.273-.252 1.562-.14 1.099-.084.723-.197 1.996v.029l-.028.289-.14 1.967-.056.925-.084 1.476-.112 2.487-.056 2.545-.028 2.575m2.101 14.434l-.056-.029-.196-.174-.225-.463v-.028l-.224-.753-.224-.983-.196-1.244-.056-.549m-.42 1.33l.056.463.14 1.301.056.434.112.665.056.405.252 1.215.029.116.224.781.28.578.252.203.056.029m1.092-3.992l-.756.607-.252.087m-28.915 52.47v-.318l.028-1.1.084-1.099.14-1.099.084-.434m64.246-188.677l-24.6 35.49-.084.116-2.213 3.182-1.934 2.777-.084.144-1.289 1.88-5.351 7.695-12.132 17.499-1.653 2.401-.477.665-.476.665-.588.868-.533.781-.532.781-.476.694-.981 1.418-.476.694m-.028-.028l-.757 2.227-.504 2.285-.252 2.343v2.343l.252 2.343.504 2.285.757 2.227.644 1.417.028.058.308.666.113.173.028.058.392.636.672 1.128.112.174 1.177 1.533.112.145.168.173.533.55.084.086.084.087.084.087.672.694.056.058.14.116.729.607.728.608.112.086 1.934 1.273 1.008.521m63.714-40.003l.196-.058 1.878-.695.112-.173 12.468-17.384"/><path d="M148.479 270.353h2.241l1.317-.145h.028l.42-.057.42-.058m29.056-21.867l1.261-1.157.056-.058.728-.665.196-.174.589-.549.056-.029.168-.145.224-.202 1.009-.926 17.343-15.735.476-.665 1.093-1.533.112-.174 12.3-17.181.028-.029 3.082-4.31.056-.058 11.516-16.053 1.093-1.504 14.513-20.248m-142.838-6.682l20.986-10.239.308-.116.309-.116.308-.087.308-.057.308-.029h.673l.308.029.308.057.308.087h.028l.281.087.056.029.224.087h.028l2.802 1.301 15.998 7.434 2.802 1.302.392-.203 34.211-16.69M357.944 39.676l-.701-.318-.812-.347-2.83-1.273-1.513-.55m35.668 21.925l-.169-.144h-.028l-.252-.232h-.028"/><path d="M247.691 166.888l-14.597 20.363-1.093 1.504-11.347 15.822-15.494 21.607-.113.174-1.092 1.533-.561.81-17.147 15.533-1.009.925-.028.029-.252.232-.224.202-1.513 1.388-1.233 1.128m24.712-20.797l.112.087-.224.086m-70.409 34.566l.084.116.336.405.953.867.252.232.532.492.252.173.28.203.141.086.196.145.588.405.504.347 2.102 1.07 2.213.781 2.298.463 2.325.145 1.205-.087 1.121-.087 1.289-.26m-8.21-35.925l-.673.232-1.176.405-.365.115-.14.058-1.961.984-1.933 1.33-1.766 1.591-1.541 1.822-1.288 1.996-1.037 2.17-.757 2.285-.448 2.372-.14 2.4v.174m25.525-16.748l-.812-.405-2.214-.781-.532-.115-.14-.029h-.028l-1.569-.318-2.326-.145-.28.029-2.045.144-.813.174-.616.116-.476.087-.393.086"/><path d="M157.557 232.838l-1.009-.521-2.213-.781-.421-.087-.224-.057h-.084l-1.541-.319-2.325-.144-.309.029-.252.029-1.765.115-1.233.261-.168.029-.868.173m-15.663-81.772h.028l.253.116 2.801 1.301 15.999 7.405 2.83 1.302m66.74 49.317l-12.441 17.355-.112.174-1.092 1.533-.421-.318M127.66 238.13l1.877-.491 2.914-.752 1.99-.81m1.765 95.279v-4.021m-2.97 4.02h2.97l.813-.752v-4.338m268.752-212.917l.869-1.533 1.205-.838m-18.213-58.343l-.056.058-.532.492-.673.376-.756.173-.757-.029-.728-.231-.644-.434-.533-.578-.364-.695-.168-.78.028-.782.224-.752.336-.55.028-.028.056-.087"/><path d="M385.066 48.817l.533-.492.672-.376.757-.174.756.03.729.23.644.435.532.578.365.694.168.781-.028.781-.224.752-.365.608"/><path d="M389.633 52.634l.028-.03.392-.636.224-.752.028-.78-.168-.782-.364-.694-.532-.578-.645-.434-.728-.232-.757-.029-.756.174-.673.376-.56.55m4.147 3.703l-.505.463-.588.318-.644.145-.673-.029-.644-.203-.561-.375-.448-.521-.308-.608-.14-.665.028-.694.196-.665.308-.492.056-.087m-18.044-6.827l-.056.116-.364.55-.589.52-.448.232-.252.116-.476.115-.281.058-.756-.058-.729-.26-.644-.434-.504-.607-.197-.376-.168-.319-.084-.433-.056-.347v-.116l.028-.694.224-.724v-.029"/><path d="M362.007 39.618l.224-.376.14-.202.588-.52.701-.348.756-.145.757.058.42.145.308.116.112.086.533.376.504.608.336.723.14.78-.056.782-.112.376-.112.347"/><path d="M367.302 42.25l.084-.231.168-.52.056-.782-.14-.78-.336-.724-.505-.607-.532-.377-.112-.086-.364-.116-.365-.116-.756-.058-.757.145-.7.347-.589.52-.196.32-.112.173-.112.173"/><path d="M362.455 27.614l.533-1.041 20.397-17.587.224-.173.224-.145.253-.144.252-.116.28-.087.28-.058.28-.029h.281l.28.03.28.057.28.058.252.087 12.048 4.975.448.231.421.26.392.319.364.347.308.405.253.434.224.463.168.491.112.492.056.52v.521l-.056.52-6.584 36.186-.168.607-.253.579-.308.52-.392.492-.448.405-.505.347-.56.26-.588.174-.617.087h-.616l-.505-.087-.084-.029-.588-.202-.925-.376-.084-.03-2.325-.954-.14-.058-1.485-.607-.056-.029-.645-.26-1.261-.52-.336-.145-10.086-4.166-2.942-1.214-3.755-1.562-.056-.03-2.129-.867-.309-.116-1.316-.55-.084-.028-.028-.03-.589-.288-.588-.405-.533-.463-.252-.29-.028-.028-.196-.232-.392-.607-.112-.232-.196-.405-.112-.318-.14-.376-.141-.723-.056-.723.028-.723.141-.723.028-.087.196-.607.56-1.447 2.101-5.409"/><path d="M362.567 27.643l-.112-.03-9.106-1.85h-.28l-.084.029-.084.028-.084.058-.084.058-.085.058-.084.058-.056.087-.112.173-2.746 6.017-.532 1.388m13.448-6.074l.421-1.07"/><path d="M352.368 26.313l-2.914 7.52-.616 1.62m-.196.405l.196-.405 2.521 1.041.897.377"/><path d="M351.864 37.651l.224-.492.141-.289.364-.954.308-.781.252-.694.757-1.967 1.036-2.661m.028 0l5.211 2.169.112.058.504.202-2.689 5.149m8.797 4.802l-.14.202-.224.376-.504.463-.477.26-.112.058-.644.145-.672-.029-.645-.231-.56-.376-.449-.521-.308-.607-.056-.26-.084-.435.028-.694.224-.665m2.775-.29l-1.401.29"/><path d="M365.593 42.076l.28-.839.168-.462-.84-.984-.14-.173.056-.116"/><path d="M365.621 42.048h-.028l-1.401.289-.981-1.128v-.029l.392-1.186.028-.116.028-.115m1.962 2.285l.28-.84.196-.607-.84-.983-.141-.174-1.428.319m24.824 11.859l-.084.029-1.289.52-1.149-.954.224-1.417v-.087m1.29-.405l-1.289.52"/><path d="M388.456 51.65l.224-1.417-1.149-.954.084-.116"/><path d="M388.512 51.622l.225-1.504-1.149-.955-1.373.55m-19.249-7.636l.084-.231.14-.405.028-.695-.14-.665-.308-.607-.448-.52-.477-.319-.084-.058-.196-.058-.42-.144-.673-.03-.644.145-.588.319-.505.462-.168.26-.196.319"/><path d="M366.966 42.076l-.056.116-.309.463-.504.463-.588.318h-.056l-.617.115-.672-.028-.645-.232-.56-.376-.448-.52-.308-.608-.028-.087-.113-.607.029-.694.196-.637v-.029m27.065 12.642l.364-.579.197-.665.028-.694-.14-.665-.309-.608-.448-.52-.56-.377-.645-.202-.672-.029-.645.145-.588.318-.504.463m-.028.028l-.056.087v.029l-.308.492-.196.665-.029.694.141.665.308.608.448.52.56.377.645.202.672.029.645-.145.588-.318.448-.434.028-.029.028-.029M97.597 333.149l-.42.319-.477.347-.784.781-.672.867-.56.955-.45 1.041-.055.203-.252.896-.056.434-.112.694-.028.752v.348l.112 1.128.056.202.224.897.392 1.041.532.984.645.896.756.81.84.694.925.579 1.01.463 1.036.318 1.064.173 1.093.029 1.093-.115 1.065-.261 1.008-.405.953-.549.868-.666m4.539-9.603l-.224-.983-.392-1.042-.504-.983-.645-.897-.756-.81-.841-.694-.924-.578-.981-.463-1.037-.318-1.064-.174-1.065-.029-1.065.116-1.036.26-1.009.405-.925.521h-.028"/><path d="M97.597 333.149l.952-.55 1.009-.405 1.065-.26 1.092-.116 1.093.029 1.065.174 1.036.318 1.009.463.925.578.84.694.757.81.644.897.533.984.392 1.041.224 1.012.028.087.112 1.128-.028 1.128-.112.81-.056.318-.308 1.07-.449 1.042-.56.954-.672.868-.757.723-.056.029"/><path d="M102.5 340.901h1.793v-.115l.028-.318.028-.463h-1.484l-.309-.029v-.405l.028-.347.028-.347v-.116l.028-.203.028-.318v-.086l-.448-.029-.28-.029h-.14m-.224 3.152v-.405l-.308-.029"/><path d="M101.827 338.037v.087l-.028.318-.028.203v.115l-.028.347-.028.347v.087l-.028.145-.028.173"/><path d="M104.797 342.81l.588-.723.393-.868.168-.926-.056-.954-.309-.897-.504-.781-.7-.607-.841-.405-.896-.174-.925.058-.869.318-.532.376-.224.174m-.14.116l-.588.723-.392.868-.168.926.056.954.308.897.504.781.701.607.84.405.897.174.925-.058.868-.318.617-.434.14-.087"/><path d="M99.923 340.669h.056l.28.029.168.029h.112l.308.029.337.029h.084m-1.29-1.012h.142l.196.029.168.029h.112l.308.029.336.029h.393l.224-.174m.84.983l-.196.203-.028.318v1.446m-.897-1.417v1.331m.14-.116l-.14.116.448.029.449.029"/><path d="M99.979 339.772l-.028.463-.028.463.14-.116m1.765.059l-.112 1.822.728.029m.252-1.794l1.625.087m-2.746.058l.253-.202-1.766-.116.057-.781m1.765 0l.084-1.678m7.173 7.405l.056-.029.28-.29.448-.433.673-.868.56-.955.392-.925"/><path d="M105.19 343.764l-.7.434-1.121.347-1.177.029-1.149-.289-1.036-.578-.84-.839-.617-1.042-.336-1.157-.028-.723v-.491l.28-1.186.56-1.071.617-.665"/><path d="M97.57 340.409l.027.723.337 1.186.616 1.042.868.838 1.037.579 1.149.289 1.177-.029 1.149-.347 1.008-.636.28-.29.533-.578.56-1.07m-7.088-5.352l.14-.086.28-.174.616-.376 1.149-.347 1.177-.029 1.149.289 1.036.579.869.839m.924 2.95v.492l-.28 1.186m-8.713-1.678v-.492l.28-1.185.56-1.071.812-.896m6.36.694l.616 1.041.337 1.186.028.723m-12.357-2.747H71.343l-.084.029-.196.057-.14.058-.084.058v.058"/><path d="M93.87 338.962l-4.174.116-1.149.029h-2.774l-.532-.029-.504-.029-.505-.029-.952-.058-11.152-.809-.364-.029-.308-.029-.252-.058-.196-.058-.14-.058-.056-.058m-.001 3.154l.057.057.14.058.196.058.252.058.308.029.364.029 4.904.347 1.008.087 5.268.376.952.058.505.029.504.028.532.029h2.774l1.149-.029 4.203-.115m233.785-145.927l8.097-3.327 7.621-4.396 6.977-5.38 6.248-6.277 5.407-7.058 4.455-7.723 3.447-8.272m-59.371 45.702l-8.714-.116-8.63-1.302-4.398-1.301m0 0l-.056.029m83.523-51.632l1.26-8.909.112-8.996-1.008-8.937-2.13-8.707-3.138-8.128-.028-.115-.028-.058-.028-.058-.112-.174-.028-.057-2.437-4.484-.085-.145-.168-.318-.028-.057-.616-1.129-.785-1.475-1.4-1.938-.337-.462-3.474-4.802-6.08-6.45-6.808-5.583-4.343-2.661-.14-.087-2.998 2.575-.533.433-.056.058-11.291 9.632-.28.26-22.807 19.438-.645.55-9.89 8.417-.28.26-.729.723-.784.781-.225.232-.84 1.099-1.037 1.359-.28.463-1.289 2.227-1.205 2.864-.14.55-.336 1.214-.252.955-.084.289"/><path d="M293.557 166.483l-.056.376-.084.578-.308 1.938v.029l-.505 3.269-.028.116-3.754 23.978-3.558 22.764.028.058m65.423-151.451l.504-.608.617-.433.728-.26.757-.059.756.145.701.347.588.52.42.637.252.752.056.781-.14.781-.336.723-.028.058-.448.55-.617.433-.728.26-.757.059-.756-.145-.701-.347-.588-.52-.42-.637-.252-.752-.056-.781.14-.781.308-.636v-.087zm35.499 58.169l.701-.347.756-.145.757.058.728.261.617.433.504.608.336.723.14.781-.056.781-.252.752-.42.636-.589.521-.056.029-.056.029-.588.289-.757.145-.756-.058-.729-.26-.616-.434-.504-.608-.336-.723-.141-.781.056-.781.253-.752.42-.636.532-.463.056-.058zm-25.02 63.114l.757-.029.728.202.673.376.56.55.392.665.224.752.028.781-.196.752-.364.694-.532.579-.645.405-.728.231h-.757l-.728-.202-.673-.376-.56-.55-.392-.665-.224-.752-.028-.781.196-.752.364-.695.532-.578.645-.405.7-.202h.028zm-64.807 15.157l.112.029.645.086.7.319.588.491.449.637.28.723.084.781-.112.781-.308.723-.477.607-.616.463-.7.289-.757.087-.756-.116"/><path d="M296.388 204.578h.084l.644.086.701.319.588.491.448.637.281.723.084.781-.112.781-.309.723-.476.607-.616.463-.701.289-.756.087-.757-.116m65.647-21.028l.728-.029.729.202.672.376.56.55.393.665.224.752.028.781-.196.752-.364.694-.533.579-.644.405-.729.202m24.181-69.014l.644-.318.756-.145.757.058.728.26.617.434.504.608.336.723.14.781-.056.781-.252.752-.42.636-.56.492m-38.693-63.202l.476-.579.616-.434.729-.26.756-.058.757.145.7.347.589.52.42.637.252.752.056.781-.14.781-.308.665m-59.68 80.122l-.084.145m-6.976 44.978l3.726-23.921.532-3.384.309-1.996.168-1.07m2.157-13.565l.14-.926v-.057l.028-.203-1.878-1.157-2.045-1.678-.336-.26-.589-.636m-3.754-4.918l-1.037-1.938-1.121-2.893-.728-3.037-.364-3.095.028-2.372v-.752l.084-.665.336-2.43m18.745 19.699l-.309-.058-1.821-.694-1.709-.926-1.569-1.157-1.121-1.099-.056-.058-.224-.202-.252-.319-.308-.405m-2.745-5.061l-.364-1.215-.336-1.967-.084-1.996.196-1.996.392-1.822.028-.116v-.029m.027.029l.673-1.88.896-1.764.757-1.099.364-.55 1.317-1.475 1.485-1.273.14-.087 1.513-.983 1.765-.839 1.849-.578 1.905-.348 1.934-.086 1.064.115m5.324 1.707l.953.521 1.569 1.157 1.429 1.359 1.233 1.533 1.036 1.707.028.086m1.709 6.48l.028 1.128-.196 1.996-.224.983-.224.955-.14.405-.028.057-.196.55-.336.897-.897 1.764-.504.723-.617.897-1.317 1.446-1.485 1.273-1.317.839-.336.231-1.765.839-1.849.578-.925.174"/><path d="M313.955 117.311l.981.52 1.569 1.157 1.429 1.36 1.232 1.533 1.037 1.706.028.087m-26.309 10.847l-.112-.405-.309-1.822-.056-1.851.168-1.851.393-1.822m9.919 17.817l-.729-.174-1.681-.636-1.597-.868-1.457-1.07-1.317-1.273-.252-.318-.42-.52m21.35.058l-1.233 1.36-1.373 1.186-1.513.983-1.625.781-1.373.434m7.957-4.108l.196-.26.449-.636.476-.695.896-1.764.365-.983.196-.521.028-.058.112-.318.224-.955.224-.983.196-1.996-.028-1.128m-13.365-14.463l-1.036-.116-1.934.087-1.905.347-1.849.578-1.765.839-1.457.926-.196.115-1.485 1.273-1.317 1.475-.336.492-.785 1.128-.896 1.764-.673 1.852m12.385 8.561l4.371-.491.14-.261.588-1.33.644-1.533.029-.058.532-1.244-.785-1.128-1.793-2.545-1.345.144-1.064.116h-.028l-1.934.202"/><path d="M309.892 134.232h-.028l-4.343.463m-.813-7.84l-.112.29-.448 1.041-1.233 2.835.168.231.308.434 2.13 3.008-.14.26-2.27-3.21-.196-.261"/><path d="M309.332 131.484l-.224.376-.084.116-.42.405-.505.289-.56.145-.589-.029-.56-.174-.504-.318-.392-.434-.281-.52v-.029l-.14-.55.028-.607.168-.579m2.634-12.959l-.308-.029-1.793.058-1.765.318-1.709.55-1.625.78-1.093.724-.42.26-.421.376-.952.81-1.233 1.359-.336.492-.701 1.041-.84 1.649-.617 1.678-.028.058v.029l-.392 1.793-.168 1.851.056 1.851.308 1.823.14.433m2.521 5.179l.421.521.252.318 1.317 1.273 1.457 1.07 1.597.868 1.681.636.728.174m8.266-11.455l-.028.057-.336.55-.112.174-.308.491-1.037 1.042-.308.173-.953.55-1.401.347-1.457-.029-1.401-.434-.112-.058-1.12-.723-1.009-1.07-.7-1.302-.028-.144m5.939-7.607h.168l1.401.434 1.233.781 1.008 1.07.701 1.302.028.087.308 1.388-.028 1.273v.231l-.42 1.446m-1.569 11.339l1.373-.434 1.625-.781 1.513-.984 1.373-1.186 1.205-1.359.616-.897.42-.607.841-1.649.252-.694.308-.868.028-.058.028-.087v-.028l.393-1.823.14-1.62m-1.29-6.855l-.224-.52-.952-1.562-1.149-1.417-1.317-1.273-1.457-1.07-1.065-.579"/><path d="M312.217 133.161l.421-1.417v-.289l.028-1.215-.337-1.446v-.029l-.672-1.273-1.009-1.07-1.233-.781-1.401-.434h-.196m-2.52 4.368l-.168.579-.028.607.14.578v.029l.28.521.392.434.504.318.561.174.588.029.561-.145.504-.289.42-.405.028-.058.168-.289.056-.116.028-.029.056-.202.028-.058.084-.318.028-.608-.14-.578-.28-.521-.392-.434-.504-.318-.561-.174-.588-.029-.561.145-.504.289-.42.405-.084.145-.196.318v0zM131.499 258.754h-2.494l-1.12.029h-.084l-.785-.116-1.009.029-.952.029m.757.116l-.785-.116v.145m-3.867 5.9h-2.101v-5.466l.084-.058.224-.058h2.129l.392-.058.533-.058.672-.058.785-.058.868-.057h.281l.7-.029h.084"/><path d="M135.141 264.048v1.185l-.98.029-1.037.029-.729-.115h-.14l-1.148.029h-4.596l-1.036-.029h-.084l-1.261.115h-.224l-.729-.029-.784-.029v-5.495l1.345-.116h-.056l-.757-.058-.644-.058h-.028l-.477-.058-.364-.057-.196-.058-.056-.058h-2.101"/><path d="M121.16 264.77l.056.058.196.058.365.058.504.057h.112m9.134-6.189h-2.269l-1.009.029h-1.261l-.644.029-.533.029h-.308l-.448.029-.336.029-.701.057-.588.058-.477.058-.364.058-.224.058-.112.058v.029l.028.029.168.057.308.058.421.058.532.058.644.029.701.029h.056l.728.029h.112l.897.029h4.035l1.008-.029h.084"/><path d="M131.976 259.708l-.869.029h-4.595l-.7-.029h-.42m-.001 5.496v-5.496l-.364.029-.981.087m-1.681-.057l.785.029.532.028h.336v5.525m8.322-.144v-4.889m2.802 4.772h.252l.7-.058m126.083-13.103l-1.093 1.389-5.856-2.488-.728-1.273-7.621-1.359m19.865 4.773l.42 1.706v.029m-.42-1.735l-1.233-1.243-1.681-.376-1.625.578m4.65 4.397l.309-1.649"/><path d="M267.164 254.676l-.168.868-.168.838m-128.829-33.235l-.841.55m-24.543 113.704l-.056-.434-.252-1.07-.393-1.041-.504-.984-.644-.896-.729-.81-.841-.695-.924-.578-.981-.434-1.036-.318-1.065-.174-1.065-.029-1.065.116-1.036.26-1.009.405-.953.521m9.695 13.71l.056-.029.728-.723.673-.868.56-.954.168-.405m39.199-140.315h.812m-.644 0l1.345-5.64-.029-8.302-1.484-6.016-.505-2.025-2.774-5.293-1.064-1.996-5.436-6.103-6.724-4.541-2.382-.839-1.205-.434-4.034-1.446-3.699-.347-.924-.087-3.363-.318-.672.115-.728.116h-.113l-.028.145v.086l-.084.232-.112.231-.14.203-.14.173-.168.174-.112.058-.084.057-.196.116-.224.087-.225.058-.224.029h-.224l-.224-.029m42.532 42.23l-.112-.116-.168-.144-.196-.116-.196-.087-.225-.058-.224-.028h-.252l-1.065-.029h-.784l-1.821-.029h-.869.14m-43.317 28.693l.112-.029.141-.029h.42l.224.058.224.087.196.116.196.144.168.174.085.115.056.058.112.203.084.231.056.203v.029l.028.144h.168l.728-.087 2.998-.318.449-.058 2.661-.289.168-.058.925-.347.953-.347 4.987-1.793 1.121-.579.924-.492.897-.491.896-.521.897-.521.897-.549.868-.55.869-.578.868-.579.841-.578.84-.608.785-.578.448-.318.505-.347.504-.376.504-.376.505-.376.476-.377.476-.376.477-.376.476-.405.476-.404.476-.405.673-.579 2.353-2.69 2.886-3.326 3.251-6.335m1.035-3.297l-.224.029-.224.029-.224.087-.196.116-.196.144-.168.174-.14.173-.141.203-.112.231-.084.232-.028.231v.231l.028.232.056.231.084.203v.029l.028.057.085.174.14.202.168.174.168.145.084.057h.616m1.626.173l.056-.028.197-.116m-.701.261h.084l.225-.059m.531-.288l.056-.029.168-.174m.168-2.372l-.028-.058-.168-.173m.532 1.619v-.318m-.14.752l.028-.058.084-.231m-.083-1.099l-.028-.057-.112-.203m-.393-.521l-.056-.058-.112-.087-.084-.058"/><path d="M152.57 201.83l-.056-.029-.225-.087m-.673 3.615h.141m1.652-.954l-.14.202-.056.058m.337-1.649l.056.232v.086m-35.472 27.884v.058l-.056.232-.084.202-.112.203-.14.202-.168.174-.169.144-.196.116-.196.087-.224.058m-5.715.925l.196-.144.056-.058m.084-.116l.14-.203.028-.087m.084-.114l.084-.232.028-.087m.028-.144l.028-.232v-.087m.001-.173v-.029m-1.626 2.025l.168-.03h.057m.532-.202l-.085.058-.224.086m35.192-66.237l5.239 5.9 3.699 7.029 1.933 7.752.028 8.012m-24.713-35.722l1.205.434 1.177.433 4.931 1.765M99.39 229.655l3.306 1.331 4.763.665.84-.145"/><path d="M107.459 231.651l.056-.173.112-.203.14-.202.168-.174.196-.145.197-.115.224-.087.224-.058m6.529-70.403l-.224-.087-.225-.115-.196-.145-.168-.145-.14-.202-.14-.203-.084-.144m35.051 55.796l-1.653 1.909-.644.549-.449.376-.448.376-.448.376-.449.376-.476.376-.476.348-.477.347-.476.347-.476.347-.477.347-.448.318-.756.55-.813.578-.812.579-.813.549-.84.55-.841.52-.841.521-.84.492-.869.492-.868.462-.869.463-1.065.55-6.724 2.429m22.219-27.363l1.681-7.087m-15.298 23.257l.476-.347.476-.348"/><path d="M114.94 159.338l-.112-.029-.701-.202-3.026.492-.308.144m22.724 1.274l7.256 2.603 4.007 2.719.112.087 2.27 1.533 5.183 5.842 3.67 6.971 1.906 7.665.028 7.926-1.009 4.252-.028.087-.252 1.041m-17.063.809l1.793-7.491m-23.34-37.574l-.028-.058-.168-.173m.421.637l-.028-.058-.112-.202m.252.722v-.058l-.056-.231v-.029m4.847.579l.196.058m-6.024-1.793l-.056-.029-.225-.087h-.028m.701.375l-.056-.029-.196-.144h-.028m-9.107 59.961l.813-.434.785-.433.784-.463.785-.463.784-.463.757-.492.756-.491.757-.521.756-.521.729-.52.868-.637.56-.405.449-.318.448-.318.448-.318.449-.318.448-.347.42-.347.42-.348.421-.347.42-.347.308-.26m-19.108-37.4l5.072-.839 2.493.232 2.382.231.224.029.168.058.42.144.589.203 3.67 1.301 4.287 2.922 3.474 3.905 2.438 4.657 1.261 5.119v5.294m-1.177 5.148l-2.41 4.686-3.67 4.223"/><path d="M112.502 171.429l.113.029 4.426 1.591 4.007 2.719 1.317 1.504.084.087 1.821 2.054 2.298 4.338 1.176 4.802v4.946l-.56 2.401-.56 2.401-.196.404-2.046 3.963-3.502 4.021-.028.029-.308.26-.421.347-.42.347-.42.347-.42.318-.421.319-.42.318-.336.26-.084.058-.028.029-.42.289-.449.318-.56.405-.869.637-.728.52-.729.521-.728.492-.757.491-.756.463-.757.463-.756.463-.785.434-.784.434-.785.405-.224.115-4.931 1.765-2.634.26-1.597.174h-.084l-.28.028m4.932.955l-2.102.232-1.373.144-1.4.145"/><path d="M112.503 171.43l-4.763-.434-3.727.608-1.009.173-5.015 2.198-.14.058-.813.463-1.232.752-1.233.752-1.205.781-1.205.81-1.177.839-1.176.839-1.149.867-1.149.897-1.12.897-1.093.925-.364.319-2.662 3.384-.42.52-.14.29-.057.086-.14.319-.476 1.012-.056.116-.168.347v.029l-.364.781-.085.173-.14.289-.196.405-.196.434-.98 4.628.112 4.744 1.176 4.57 2.186 4.165.224.261 2.83 3.268 3.782 2.69 2.27.926 1.036.405.981.405 4.54.636m-1.626-44.777l-1.261.752-1.233.781-1.233.81-.84.55-.393.26-1.204.839-.785.578-.392.29-1.177.867-1.149.897-1.148.926-1.121.954"/><path d="M98.298 218.027l-4.511-.636-1.373-.55-1.401-.549-1.513-.608-3.755-2.69-3.054-3.529-2.157-4.165-1.177-4.57-.112-4.715.98-4.628.197-.433.784-1.678.056-.087.085-.173.448-.926.252-.55.056-.086.14-.29 3.082-3.905.364-.318 1.093-.925 1.12-.897 1.121-.897 1.15-.867 1.176-.839 1.177-.839 1.177-.81 1.204-.781 1.205-.752 1.149-.694.084-.058.813-.463 5.127-2.256.336-.058 4.371-.723 4.595.434m26.897 8.33l1.85 7.492m-5.24 22.041l-1.961 2.228-.084.115-2.97 3.413m-2.885 2.343l-.505.376m-1.485 1.128l-.505.376m-4.763 3.298l-.869.549m7.398-5.988l.476-.405m109.664 124.639l-.392 1.648-.028.608-.224 4.83v.145l-.028.376-.252 5.178-.365 7.462m-.169 22.388l1.541-7.954.253-1.331 1.204-6.19.028-.144.028-.174.028-.145 1.261-6.421m.029-32.165v32.136m-2.13-7.434l-.028-.086-.028-.261-.028-.405v-3.152l.028-.521.028-.405.028-.26.028-.087"/><path d="M238.417 349.058l.028.087.028.26.028.405v3.124l-.028.521-.028.405-.028.26-.028.087m1.205-5.496l-.028-.087-.028-.26v-3.413l.028-.521.028-.376.028-.231.028-.058"/><path d="M239.622 343.707l.028.086.028.261v3.413l-.028.52-.028.376-.028.232-.028.087m-4.455 37.515l.112-2.14.393-7.897.364-7.607.028-.318.252-5.438.056-1.128m-7.144-135.427l-1.373.781-.084.029-.056.029-4.483-4.628-.197-1.475-6.528-4.252m16.559 12.264l-.252 1.765-.897 1.388"/><path d="M233.01 228.99l-.701-1.649-1.429-1.012-1.709-.087-1.513.839m23.088-81.452l-.028-.029m1.737-.666l-1.737.665-.28 1.649"/><path d="M250.465 147.219l.28-1.62 1.737-.665"/><path d="M253.855 146.178l-1.401-1.215v-.058l1.401 1.273zm0 0l-.168 1.07m2.158-.028l.028-.579-.196-.954"/><path d="M248.475 147.22l-.028-.087.028-.984.28-.954.505-.839.7-.665.841-.463.952-.203.953.029.925.29.812.52.645.723.448.868.056.289.14.695-.028.781M116.117 264.191h-6.5l-.953.087-1.092.058-1.205.058-.561.029-.728.029-1.373.029-1.429.029-1.429.028h-4.231l-1.288-.028-1.205-.029-1.065-.058h-.14"/><path d="M90.004 267.721l.056.087.252.087.448.086.617.087.784.058.925.058 1.065.058h.112l1.092.029 1.29.028 1.372.029h2.858l1.429-.029 1.429-.028.504-.029.869-.029 1.289-.058 1.204-.058 1.093-.058.953-.087h6.5l1.681-.694v-3.731h-6.64"/><path d="M116.117 267.952v-3.731l1.681-.665m30.877 14.809l.056-.26.112-.318.028-.116.112-.231.028-.058.14-.116m-.056 19.177h-.141l-.112-.144-.028-.058-.112-.29-.028-.057-.14-.492m.673-18.166l.14.058.084.116m180.663 103.176v-15.909l-.953-2.661-.056-.029-.084-.029-.112-.028-.14-.029-.168-.029-.168-.029-.197-.029-.224-.029-.224-.029-.252-.029h-19.809v.984m-102.856-1.013h-4.259l-3.446.173-3.418.405-3.39.608-3.335.81-3.306 1.041-3.222 1.244-3.138 1.417-3.054 1.62-2.97 1.822-2.858 1.996-2.718 2.169-1.344 1.186"/><path d="M165.009 376.652l2.213-1.736 2.886-2.024 2.998-1.823 3.11-1.648 3.194-1.447 3.278-1.243 3.335-1.042 3.39-.838 3.418-.608 3.474-.405 3.475-.202-1.205 2.719m110.028-4.195l-.028.058-.084.174-.504.231-.28.058-.561.144-1.176.145-1.401.116-1.513.029-1.541-.029-1.457-.087-1.289-.145-1.009-.202-.252-.087-.42-.145-.252-.231-.028-.029m33.286 2.517l-21.49 5.091-.869.202-.42.087h-16.083l-.14.029-14.793 1.938-.112.029-.113.029-.084.028-.084.029-.084.029-.084.029-.084.029h-.028l-.056.029-.056.029-.056.029-.056.029-.028.029"/><path d="M308.604 362.161l-.309-.231-.588-.203m-10.171-.029l-.056.029-.505.231-.084.203-.028.057"/><path d="M297.536 362.595v-.868h-57.017M361.614 195.12l-.673-.087-.616-.26-.532-.434-.421-.55-.252-.636-.084-.694.084-.695.252-.636.421-.55.532-.433.616-.261.309-.058.336-.057.672.086.617.261.532.434.42.549.252.636.085.695-.085.694-.252.636-.42.55-.532.434-.617.26-.476.058-.168.058z"/><path d="M360.83 189.883l-.616.261-.532.434-.393.549-.252.636-.084.695.084.694.252.636.421.55.532.405.616.26.673.087m1.176-1.707l.168-1.504-1.177-.897"/><path d="M362.763 193.383l-1.373.608h-.028l-1.176-.897.168-1.504 1.317-.579.056-.029"/><path d="M361.782 190.954l1.177.926-.168 1.504h-.056l-1.317.578m-126.839 159.81v-22.764l.168-3.5.056-.925.308-6.711.113-2.227.168-3.298.336-1.012.476-1.504.056-.203.028-.202.028-.174.028-.52.028-.666.028-.81.028-.925.028-1.013.028-1.099.028-1.157v-14.896l.028-.116.028-.058.281-.665m-6.977-8.706l-5.071 9.401-.028.058-.028.115-.028.174-.028.231-.028.261-.028.318v12.698l-.029 1.215v.029m12.525 21.433h-.028l-.028-.232-.028-.462-.028-.637v-3.384l.028-.752.028-.607.028-.434.028-.203"/><path d="M235.391 331.008l-.028-.115v-3.095l.028-.232.028-.115"/><path d="M235.391 327.451l.028.115v3.009l-.028.231-.028.116m1.766-11.108l.028.029.028.232.028.463.028.636v3.355l-.028.752-.028.608-.028.434-.028.231m2.493-8.938l-.056-.231-.028-.434-.028-.578v-3.124l.028-.695.028-.578.028-.405.028-.174m0-.028l.056.26.028.434.028.578v3.095l-.028.695-.028.578-.028.405-.028.202m.225-35.491v1.794l-.028.434-.028.289-.028.145-.028-.029-.028-.203-.028-.347v-1.706h-4.82m5.66.231v-2.112m-.057 0l-.616 1.504h-4.791m2.074 6.739v1.562l-.028.55-.028.434-.028.26-.028.087-.028-.087-.028-.26-.028-.434v-1.678h-5.211"/><path d="M239.678 282.501l-.924 2.285-1.653 4.107h-5.24"/><path d="M231.692 289.327l.197-.463v.434m2.97-6.796l.028-.058.14-.319v.377m-30.063 120.386l-.112.318v-70.172M47.724 254.733v-10.471m-72.932 33.149H79.637m-90.527-3.037h91.058m9.836-6.624v-3.674m.391-20.855l.113-.203.028-.028.028-.029.224-.29.056-.057.224-.232.028-.029.28-.231.056-.029.28-.174.084-.058.253-.115.168-.058.168-.058.224-.058h.084l.28-.029.14-.029.168-.029.309-.028h.056l.448-.029h.028l.616-.029h.168l.617-.029h.364l.644-.029h7.762l.448.029h.448l1.037.058h1.177l.448.029.252.028.224.029.224.029.449.116h.028l.364.174.112.057.252.145.14.116.196.144.169.174.14.145.084.115.168.203.056.115.14.261.028.086.112.29.028.087.084.318v.058l.056.347v19.379m-20.621-20.912l-28.467.926m27.906 10.962h-.028m7.257 78.618l.42-.318.589-.434.84-.636m.422-.319l.224-.173m-.337 5.091l.393-.319.112-.086.084-.058m5.547 7.347l-.056.029-.533.434m4.287 1.417l-.084.058-1.653 1.446m1.43-116.539l.504-.086.308-.058m.084 114.63l-.028.029-.056.029-.532.463m1.037-112.172l-.365.029m.532.607h-.056m.196-.028l-.055.029h-.028m.616-1.62l-.813.058"/><path d="M116.733 232.692l-4.427.839-1.849.347-.084.029m-43.428 62.392h-92.601m141.185-136.121l-.168-.058h-.056m3.754 70.721l-.924.174-2.522.463-.308.057m14.261 6.104l-.644.144-.449.116-1.064.26-.337.087-2.157.521m-7.089 26.611l6.108-.058m4.96 77.49h.112m.168-193.103h.056m.112 195.59h6.388m-16.671-81.278h-1.233m11.712-114.197l.225.088m3.389 111.736v3.703m1.261-103.927l.981.289.476.145M118.358 356.29h3.363m13.701 5.177h.812m1.541-5.236l.028 1.418m3.083-9.285h.784m-.084 5.871h-.056m.98-.983h.756m-.812 7.636h.561m-10.9-33.611l1.345-1.822m-11.011 14.955l9.274-12.582.421-.579m-.028.231l-.253.348-9.414 12.784m11.011-14.925l-1.345 1.822m13.393-96.03l.168-.03.281-.058m.448 8.504l-.224.058m2.437 63.2l.112.088m.309-6.798h-.337m.168-19.177h.337m-.029 29.793h-2.522m2.802-31.384l-.056-.058m.225.405l-.084-.203m.252.724l-.084-.289m.196-20.884l-.084.029m.113 21.838l-.028-.145-.056-.231m1.485-121.774l-2.55 3.24m3.081 47.002h-.056M201.041 92.06l-46.959 59.556-2.746 3.471m1.85 146.303l-3.082 2.545m1.681-144.22l-2.998-1.388m-20.622 179.739l4.931-6.71.897-1.215 2.185-2.979.813-1.099 17.091-23.198m1.401-97.594l-.953 1.881m-26.225 130.915l4.931-6.711.897-1.215 2.073-2.806.812-1.099 17.148-23.284m-2.606-1.562h2.157m-3.613 3.73l3.698-3.123m2.018-96.726h-.337l-3.53.058m9.329 50.475l-.252 2.459-.056.434-.308 2.863-.028.347-.028.145-.028.145-.168 1.562v.289l-.252 2.458v.145l-.084.81v.029l-.169 1.504-.196 1.938-.056.55m1.765-16.98v.087l-.056.434m5.885-19.38h.028l.056-.029.953-.289.336-.116m4.931 13.566l-.504.232-.113.058h-.028l-.336.144-.364.174m-23.03 46.916h-.337m.168-18.888h3.866m26.506-4.657l.7-.521m0-6.016v6.016m.141 31.094h-25.637m25.776-7.028h-.028m0-18.888h.168m1.177 17.036h2.073m-4.146-6.536h4.147l.028-.029m.084-.406h-2.382m-.113 10.847h2.382m1.262-12.871l.14-.115.112-.116.14-.145m-5.324-16.748h5.155m.421-105.866v-3.008l-.028-2.43-.084-5.9.252-4.657.084-1.562.084-1.88.028-.319.757-6.45.224-1.967 1.205-6.624.308-1.677 1.709-6.798.364-1.388 2.214-6.913.364-1.128 2.746-7 .336-.839 3.334-7.057.252-.55 1.261-2.256 1.037-1.88.14-.26.112-.232.196-.347.897-1.62.28-.492.168-.289 4.511-7.029.028-.029.588-.81.252-.347 4.119-5.582.168-.203 5.24-6.16 5.071-5.236.196-.203.533-.55 1.989-1.792 3.418-3.095.757-.695 5.519-4.338 1.009-.781 5.576-3.818 1.26-.868 5.604-3.298 1.513-.896 1.681-.84 5.688-2.863 1.933-.81 5.632-2.371 5.463-1.88.729-.26 1.569-.522 1.121-.289 4.258-1.128 1.906-.492.672-.173 2.074-.405.56-.116.476-.087h.028l.589-.115.336-.058.14-.03.224-.028.336-.058h.056l.449-.087.14-.029h.056l2.605-.52 5.128-.636 2.998-.377 4.987-.26 3.194-.173h.813l4.006.057 1.878.03h1.485l4.651.375 3.502.29 4.483.694 3.614.55 4.315.954 3.67.81 4.147 1.244 3.727 1.099 2.493.925.365.145M181.792 249.99l1.289-1.157.924-.839 1.261-1.128.252-.231.225-.203.112-.116.42-.376 20.313-18.425m-24.824 22.591l.168-.145.084-.087 1.933-1.735.056-.058.729-.665.196-.174.28-.26.252-.232.056-.058.224-.202.112-.116.365-.347 20.537-18.628m-1.905 122.902l-7.565.087m7.565 4.021l-4.791.058-2.662.028m5.156-265.125l-9.078-7.637m29.811 284.738h.14m-.728-19.409h5.912m-.056 0h.561m-.897 14.636l-.196 1.417-.869 5.93-.028.289m3.334-25.801h.253m-.869-62.912h10.591m3.082-155.124l-.112-.289-.056-.116m1.653 3.991l.112.347v.029m10.534 16.314l.028.145.028.058m24.825-17.877l.028-.202.028-.145m3.782-.838l.028-.174v-.057m8.574-.087l.028-.058m-1.961 40.35l2.074 2.488m-2.047-2.488l2.046 2.459m.897-42.635l.028-.058m2.829 235.564v-.058m8.435-232.585l.028-.057m2.156 133.198l.028.058.028.029m1.738-131.203l-.028.029v.028m2.662 2.054l-.028.058m-49.761 13.19l.168-.231m-.14-.029l-.028.029m88.483-78.416l.055-.086m.252.231l.028-.03.028-.057m1.962-33.235l1.373.52 3.446 1.562.364.174.588.26m3.111 157.439h-.056m.111.289h-.084m23.48-146.185l.084-.088.028-.029m.757 77.287l.083-.057m.14.405l.028-.029.056-.029m1.122-67.685l.196.144m1.54 72.313l-.083.058m.447-78.908l-.056.058-.028.029m1.71 6.856l.785.752 2.998 2.863m17.454 112.172l.169-.029h.028m2.382-21.52l.112-.029.084-.029"/></g></svg>