<svg width="68" height="96" fill="none" xmlns="http://www.w3.org/2000/svg"><g clip-path="url(#clip0)" stroke="#111" stroke-miterlimit="10"><path d="M34.023 55.497h9.89s1.65-10.286 9.892-7.589c1.969.64 4.579 3.017 4.579 9.555v35.794a2.46 2.46 0 002.473 2.468 2.46 2.46 0 002.472-2.468l.046-46.949c0-.594.504-1.097 1.1-1.097a3.261 3.261 0 003.25-3.245V3.108c0-1.6-1.328-2.925-2.93-2.925-1.603 0-2.931 1.325-2.931 2.925v36.435a2.343 2.343 0 01-2.335 2.331h-.962a5.721 5.721 0 01-5.724-5.714v-2.743c0-4.434-1.42-9.052-4.304-11.566-2.794-2.468-6.457-3.245-7.373-1.828-1.007 1.508.32 3.383 2.656 5.988 2.885 3.292 2.748 5.577 2.748 9.966 0 3.154-2.198 6.766-5.678 7.177v4.754h-6.87"/><path d="M34.023 55.497h-9.937s-1.648-10.286-9.89-7.589c-1.97.64-4.58 3.018-4.58 9.555v35.794a2.46 2.46 0 01-2.473 2.469 2.46 2.46 0 01-2.472-2.469l-.092-46.903c0-.594-.504-1.097-1.099-1.097a3.261 3.261 0 01-3.25-3.246V3.154c0-1.6 1.328-2.925 2.93-2.925 1.603 0 2.931 1.325 2.931 2.925V39.59a2.343 2.343 0 002.336 2.33h.961c3.16 0 5.724-2.56 5.724-5.713v-2.743c0-4.434 1.42-9.052 4.305-11.566 2.793-2.468 6.456-3.246 7.372-1.828 1.007 1.508-.32 3.382-2.656 5.988-2.885 3.292-2.747 5.577-2.747 9.966 0 3.154 2.197 6.765 5.678 7.177v4.754h6.96"/></g><defs><clipPath id="clip0"><path fill="#fff" d="M0 0h68v96H0z"/></clipPath></defs></svg>