<svg width="126" height="109" fill="none" xmlns="http://www.w3.org/2000/svg"><path d="M126 43.8V33.5L63.3.1 63 0 0 33.5v10.2l14.1 8.5L0 59.7V70l62.7 37.9.3.2 62.8-37.9.2-.1V59.8l-14.1-7.5 13.9-8.4.2-.1zM63 1.1l61.5 32.7-22.1 13.4-39.1-20.8-.2-.1-39.4 21L1.6 33.9 63 1.1zM24.7 47.8l38.4-20.4 38.4 20.4L63 71 24.7 47.8zm37.8 24v8.5l-46.3-28 7.4-4 38.9 23.5zm1 0l38.9-23.5 7.4 4-46.3 28v-8.5zM1 43.2v-8.5l21.6 13-7.4 4L1 43.2zm61.5 63.4L1 69.5V61l61.5 37.1v8.5zM125 69.5l-61.5 37.1v-8.5L125 61v8.5zm-.5-9.4L63 97.2 1.5 60.1l13.6-7.3 47.6 28.7.3.2 47.9-28.9 13.6 7.3zm.5-16.9l-14.2 8.5-7.4-4 21.6-13v8.5z" fill="#111"/></svg>