<svg width="117" height="92" fill="none" xmlns="http://www.w3.org/2000/svg"><path d="M116.004 32.875c-.2-3.2-2-6-5-7.6l-45.3-23.4c-4.8-2.5-10.6-2.5-15.4 0l-45.3 23.5c-2.9 1.5-4.8 4.3-5 7.6v22.2c-.1 3.3 1.6 6.3 4.5 8l45 26.4c2.6 1.5 5.6 2.3 8.5 2.3 2.9 0 5.9-.8 8.5-2.3l44.9-26.4c2.9-1.7 4.6-4.7 4.5-8v-22.3h.1zm-5.4-6.6c2.7 1.4 4.3 4 4.4 6.9.1 2.9-1.4 5.6-4 7.1l-6.3 3.7-39-20.2c-2.3-1.2-4.7-1.8-7.2-1.9v-20.7c2.3.1 4.6.6 6.7 1.7l45.4 23.4zm-60.6 40.6l-37.6-22.2 38.3-19.9c4.6-2.4 10-2.4 14.5 0l38.4 19.9-37.5 22.2c-5 2.9-11.1 2.9-16.1 0zm-44.5-40.6l45.3-23.4c2.1-1.1 4.4-1.6 6.7-1.7v20.7c-2.5.1-5 .7-7.2 1.9l-38.9 20.2-6.2-3.7c-2.6-1.5-4.1-4.2-4-7.1 0-2.9 1.6-5.5 4.3-6.9zm-4.4 11.4c.8 1.5 1.9 2.7 3.5 3.6l5.7 3.4-5.2 2.7c-1.7.9-3 2.2-3.9 3.8v-13.5h-.1zm4 24.6c-2.6-1.5-4.1-4.2-4-7.1.1-2.9 1.7-5.5 4.4-6.9l5.8-3 38.2 22.6c2.5 1.5 5.2 2.2 8 2.3v20.8c-2.6-.1-5.1-.8-7.4-2.2l-45-26.5zm105.9 0l-44.9 26.4c-2.3 1.4-4.9 2.1-7.5 2.2v-20.8c2.8-.1 5.6-.8 8.1-2.3l38.2-22.6 5.8 3c2.7 1.4 4.3 4 4.4 6.9 0 3-1.5 5.7-4.1 7.2zm.1-15l-5.2-2.7 5.7-3.4c1.5-.9 2.7-2.1 3.5-3.6v13.5c-1-1.5-2.3-2.9-4-3.8z" fill="#111"/></svg>