<svg width="126" height="117" fill="none" xmlns="http://www.w3.org/2000/svg"><path d="M96.8 72.7L126 55.1V33.3L63.2.1 63 0 0 33.3v21.8l63 38 26.1-15.8c.1.2.1.4.2.6.2.7.5 1.3.8 2-2.6 5.7-2.8 12.4-.4 18.9 3.1 8.5 11.8 17.6 26.7 17.6h.5V95.1h-.5c-13.3 0-21.5-7.4-25.2-15.1 1.4-2.7 3.2-5.2 5.6-7.3zm11.1-27.8L125 34.5V54l-17.1-9.1zm-1-.5L63.5 21.2V1.4l61 32.3-17.6 10.7zM62.5 21.2L19.1 44.4 1.5 33.7l61-32.3v19.8zM18.1 44.9L1 54V34.5l17.1 10.4zm1 .6l43.4 26.3v19.8l-61-36.8 17.6-9.3zM63 71L20.1 45 63 22.1 105.9 45 63 71zm33.3-19l10.6-6.4 17.6 9.4-34.8 21c-2.6-9.1-.1-18.4 6.6-24zM63.5 91.7V71.9l29.3-17.8c-4.9 6-6.5 14.3-4.1 22.4L63.5 91.7zm52.4 4.4v19.5c-14.1-.2-22.3-8.9-25.3-17-2.2-5.9-2.1-12.1.1-17.4 4 7.6 12.2 14.7 25.2 14.9zM90.7 78.8c-.2-.4-.3-.8-.5-1.1-.1-.3-.2-.5-.3-.8l3.4-2.1c-.9 1.3-1.8 2.6-2.6 4z" fill="#111"/></svg>