<svg width="135" height="82" fill="none" xmlns="http://www.w3.org/2000/svg"><path d="M126.8 14.8l-8.2 1.5V6.1L110.4 0 0 20v40.5l8.2 6.1 8.2-1.5v10.1l8.2 6.1 110.4-20V20.8l-8.2-6zm-.3 1l6.8 5-14.7 2.7v-6.3l7.9-1.4zM17.4 36.2l6.9 5.1v21.3l-6.9 1.2V36.2zm7.4 4.4l-6.8-5 99.6-18v6.3L24.8 40.6zm92.8-15.8v21L25.2 62.6v-21l92.4-16.8zm-.7-18.7L8.4 25.8l-6.8-5L110.1 1.1l6.8 5zM1 21.4l6.9 5.1v38.6L1 60V21.4zm7.8 44.1V26.7L117.6 7v9.5L16.3 34.9v29.2l-7.5 1.4zm8.6-.6l6.9-1.2v16.2l-6.9-5.1v-9.9zm7.8 15.4V63.5l93.4-16.9v-22l15.4-2.8v38.8L25.2 80.3z" fill="#111"/></svg>