<svg width="101" height="101" fill="none" xmlns="http://www.w3.org/2000/svg"><path fill-rule="evenodd" clip-rule="evenodd" d="M1.227.727h-.5v94.289a5.373 5.373 0 005.393 5.393h94.063v-5.757h-.88l.753-.844.303-.34-.31-.333-3.625-3.897-.075-.08-.102-.042C84.5 84.327 64.37 74.802 45.457 56.03 26.736 37.12 16.807 16.63 12.02 4.89l-.042-.102-.08-.075L8 1.087 7.67.779l-.34.299-1.073.945V.727h-5.03zm43.549 56.038l-.027-.027-.016-.016C25.95 37.74 15.965 17.19 11.136 5.37L7.65 2.128 6.257 3.355v1.217c4.717 11.562 13.253 31.996 31.168 50.496l.007.007c.807.865.823 2.215-.013 3.05l-1.948 1.949c-.5.5-1.148.761-1.766.864l-.018.003-.019.002-6.887.635h-.01c-.463.033-.911.3-1.195.76L19.46 72.395l-.007.012c-.341.526-.246 1.272.235 1.762l.022.01.072.037.058.057c.287.288.722.434 1.189.4.479-.047 1.26-.027 1.746.592.416.502.44 1.01.456 1.352l.005.098c.01.176.027.29.07.39.038.092.112.206.289.341l.006.005.006.004a1.2 1.2 0 00.463.248c.137.035.268.04.448.043h.029c.163.003.385.006.614.067.26.07.51.207.75.448.296.296.442.671.51 1.014.07.344.068.69.042.97-.032.351.097.716.33.983.554.622 1.508.739 2.221.311h.002l9.874-6.025.008-.005c.39-.228.677-.666.752-1.21l.633-6.87v-.003c.057-.728.395-1.332.87-1.807l1.948-1.948c.828-.828 2.23-.83 3.06-.003 18.548 17.96 38.588 26.313 50.13 30.975l-.004.009h1.676l1.044-1.17L95.767 90C83.95 85.175 63.76 75.596 44.776 56.764zM6.257 60.99v29.404a4.257 4.257 0 004.258 4.258h29.63V75.693a2.422 2.422 0 01-.738.677l-.005.003-9.869 6.02-.003.003c-1.098.659-2.59.503-3.485-.505l-.003-.003a2.341 2.341 0 01-.575-1.733 2.45 2.45 0 00-.026-.684c-.045-.223-.126-.392-.237-.503a.649.649 0 00-.302-.189c-.101-.027-.209-.03-.4-.033H24.5a2.794 2.794 0 01-.68-.075 2.19 2.19 0 01-.837-.434 1.82 1.82 0 01-.6-.745 2.136 2.136 0 01-.145-.717l-.006-.093c-.02-.348-.03-.544-.23-.784l-.006-.006-.005-.007c-.146-.187-.443-.26-.87-.217l-.01.001c-.683.053-1.394-.145-1.916-.629l-.023-.011-.065-.032-.053-.05c-.834-.779-1.084-2.082-.445-3.077l6.113-10.053.002-.003c.207-.336.477-.616.79-.824H6.256zm0-1v-3.44h19.799a2.627 2.627 0 002.63-2.63v-2.263h4.029V57.5c0 1.355-1.136 2.49-2.49 2.49H6.256zm0-4.44h19.799c.902 0 1.63-.727 1.63-1.63v-3.263h4.343C18.142 34.635 10.684 17.932 6.257 7.208V55.55zm27.458-2.987c.966 1.07 1.962 2.137 2.988 3.197.459.495.441 1.227.01 1.659l-1.949 1.948c-.312.312-.744.502-1.206.582l-.952.088a3.485 3.485 0 001.109-2.537v-4.937zm7.48 15.869a3.479 3.479 0 012.44-1.01h5.076a127.513 127.513 0 01-3.248-3.038l-.006-.006c-.44-.439-1.21-.439-1.649 0l-1.948 1.948c-.34.341-.546.733-.58 1.18v.008l-.085.918zm9.33.596v4.422H47.26c-.901 0-1.63.728-1.63 1.63v19.572h48.026c-10.685-4.376-27.12-11.708-43.132-25.624zM44.63 75.08v19.572h-3.486v-23.74c0-1.355 1.136-2.49 2.49-2.49h5.89v4.029H47.26a2.627 2.627 0 00-2.63 2.629zM1.727 95.016V1.726h3.53v88.668a5.257 5.257 0 005.258 5.258h88.668v3.757H6.12a4.373 4.373 0 01-4.393-4.393z" fill="#111"/></svg>