<svg width="90" height="83" fill="none" xmlns="http://www.w3.org/2000/svg"><path d="M86.95 39.827L64.246 53.463c-1.455-5.867.257-11.735 4.537-15.316l7.043-4.233 11.122 5.913zM45.757 66.415l17.484-10.536c.109.328.245.634.377.93l.046.102c-1.766 4.002-1.87 8.662-.198 13.166C65.67 76.09 71.847 82.5 82.37 82.5h.846V66.86h-.846c-8.837 0-14.306-4.81-16.838-9.869.919-1.713 2.081-3.288 3.6-4.62l20.124-12.073.243-.145V24.585l-.267-.14L45.87 1.625h0l-.01-.005-.138-.069-.23-.114-.226.12-43.5 22.886-.267.14v15.568l.243.146 43.5 26.117.258.155.257-.155zm18.96-7.428c2.944 4.896 8.446 9.259 16.808 9.549v12.402c-9.188-.33-14.526-6.04-16.5-11.346v-.001c-1.342-3.58-1.406-7.313-.308-10.604zm-.002-3.942l-.02.032-.007-.016.027-.016zm-2.057-.699l-16.314 9.795V51.698l17.962-10.862c-2.322 3.906-2.96 8.751-1.648 13.51zm11.449-21.39L45.5 50.212 16.892 32.955l28.608-15.2 28.608 15.2zm13.701 5.327L77.517 32.83l10.292-6.23v11.684zM46.346 3.79l40.604 21.4-11.153 6.75-29.45-15.67V3.79zM4.051 25.19l40.604-21.4v12.48L15.204 31.94 4.051 25.19zm-.86 1.408l10.293 6.231L3.19 38.283V26.599zm41.464 37.473l-40.6-24.38 11.116-5.847L44.655 51.63v12.443z" fill="#FF711C" stroke="#FF711C"/></svg>