<svg width="62" height="62" fill="none" xmlns="http://www.w3.org/2000/svg"><path d="M60 0H2C.897 0 0 .897 0 2v2c0 1.103.897 2 2 2v56h58V6c1.103 0 2-.897 2-2V2c0-1.103-.897-2-2-2zM6 6v26H4V6h2zm46 26v-8H34v8H24V20h30v12h-2zm-2 0H36v-6h14v6zM8 20h6v12H8V20zm4-5v-1h10v1c0 1.654-1.346 3-3 3h-4c-1.654 0-3-1.346-3-3zm4-4a1 1 0 112 0 1 1 0 01-2 0zm0 9h6v12h-6V20zm22-5v-1h10v1c0 1.654-1.346 3-3 3h-4c-1.654 0-3-1.346-3-3zm4-4a1 1 0 112 0 1 1 0 01-2 0zm12 7h-5.026A4.948 4.948 0 0050 15v-3h-4.184c.112-.314.184-.648.184-1 0-1.654-1.346-3-3-3s-3 1.346-3 3c0 .352.072.686.184 1H36v3c0 1.13.391 2.162 1.026 3H32V6h22v12zm-24 0h-2V6h2v12zm-4 0h-3.026A4.948 4.948 0 0024 15v-3h-4.184c.112-.314.184-.648.184-1 0-1.654-1.346-3-3-3s-3 1.346-3 3c0 .352.072.686.184 1H10v3c0 1.13.391 2.162 1.026 3H8V6h18v12zm4 42H20V50h4v-2h-4V38h9a1 1 0 011 1v21zM18 48h-4v2h4v10H8V39a1 1 0 011-1h9v10zm24-10h6v1a1 1 0 01-1 1h-4a1 1 0 01-1-1v-1zm1 4h4c1.654 0 3-1.346 3-3v-1h3a1 1 0 011 1v5H36v-5a1 1 0 011-1h3v1c0 1.654 1.346 3 3 3zm-1 4h6v1a1 1 0 01-1 1h-4a1 1 0 01-1-1v-1zm-6 0h4v1c0 1.654 1.346 3 3 3h4c1.654 0 3-1.346 3-3v-1h4v6H36v-6zm6 8h6v1a1 1 0 01-1 1h-4a1 1 0 01-1-1v-1zm-6 0h4v1c0 1.654 1.346 3 3 3h4c1.654 0 3-1.346 3-3v-1h4v6H36v-6zm20 6V39c0-1.654-1.346-3-3-3H37c-1.654 0-3 1.346-3 3v21h-2V39c0-1.654-1.346-3-3-3H9c-1.654 0-3 1.346-3 3v21H4V34h54v26h-2zm2-28h-2V6h2v26zM2 4V2h58l.002 2H2z" fill="#FF711C"/><path d="M40 28h-2v2h2v-2zm8 0h-2v2h2v-2zm-4 0h-2v2h2v-2zm-32 0h-2v2h2v-2zm8-6h-2v8h2v-8z" fill="#FF711C"/></svg>