<?xml version="1.0" encoding="utf-8"?><svg viewBox="0 0 80 72" xmlns="http://www.w3.org/2000/svg" xmlns:xlink="http://www.w3.org/1999/xlink"><style>:root>svg{display:none}:root>svg:target{display:block}</style><svg fill="none" viewBox="0 0 31 17" id="arrow-bottom" xmlns="http://www.w3.org/2000/svg"><path d="M29 1.25l-13.5 13.5L2 1.25" stroke="#111" stroke-width="3"/></svg><svg fill="none" viewBox="0 0 46 46" id="arrow-go-top" xmlns="http://www.w3.org/2000/svg"><path d="M23 0a23 23 0 100 46 23 23 0 000-46zm0 43.7a20.7 20.7 0 110-41.399A20.7 20.7 0 0123 43.7zM12.42 22.195l1.633 1.61L21.85 16.1v18.4h2.3V16.1l7.797 7.797 1.633-1.61L23 11.615l-10.58 10.58z" fill="#000"/></svg><svg fill="none" viewBox="0 0 31 18" id="arrow-top" xmlns="http://www.w3.org/2000/svg"><path d="M2 16.534l13.5-13.5 13.5 13.5" stroke="#111" stroke-width="3"/></svg><svg fill="none" viewBox="0 0 80 53" id="icon-additive" xmlns="http://www.w3.org/2000/svg"><mask id="ada" maskUnits="userSpaceOnUse" x="0" y="0" width="80" height="53" fill="#000"><path fill="#fff" d="M0 0h80v53H0z"/><path fill-rule="evenodd" clip-rule="evenodd" d="M2 22.251L40.237 2l38.237 20.251v6.166L40.237 51.39 2 28.417v-6.166zm.607 5.864l37.327 22.428v-5.138L2.607 22.977v5.138zm37.63-25.45L2.91 22.493l37.327 22.428 37.327-22.488L40.237 2.665zm.304 47.878l37.327-22.428v-5.138L40.54 45.405v5.138zm-16.206-28.11c0-5.32 7.162-9.673 15.902-9.673 8.74 0 15.902 4.352 15.902 9.672s-7.101 9.672-15.902 9.672c-8.8 0-15.902-4.352-15.902-9.672zm1.154 2.417c1.76 3.87 7.708 6.71 14.748 6.71 7.04 0 12.989-2.84 14.749-6.71-1.82-3.93-7.83-6.71-14.749-6.71-6.919 0-12.928 2.78-14.748 6.71zm-.304-.786c2.185-3.869 8.194-6.529 15.052-6.529 6.859 0 12.867 2.66 15.052 6.53a5.072 5.072 0 00.243-1.633c0-5.017-6.858-9.068-15.295-9.068-8.436 0-15.295 4.05-15.295 9.068 0 .544.061 1.088.243 1.632z"/></mask><path fill-rule="evenodd" clip-rule="evenodd" d="M2 22.251L40.237 2l38.237 20.251v6.166L40.237 51.39 2 28.417v-6.166zm.607 5.864l37.327 22.428v-5.138L2.607 22.977v5.138zm37.63-25.45L2.91 22.493l37.327 22.428 37.327-22.488L40.237 2.665zm.304 47.878l37.327-22.428v-5.138L40.54 45.405v5.138zm-16.206-28.11c0-5.32 7.162-9.673 15.902-9.673 8.74 0 15.902 4.352 15.902 9.672s-7.101 9.672-15.902 9.672c-8.8 0-15.902-4.352-15.902-9.672zm1.154 2.417c1.76 3.87 7.708 6.71 14.748 6.71 7.04 0 12.989-2.84 14.749-6.71-1.82-3.93-7.83-6.71-14.749-6.71-6.919 0-12.928 2.78-14.748 6.71zm-.304-.786c2.185-3.869 8.194-6.529 15.052-6.529 6.859 0 12.867 2.66 15.052 6.53a5.072 5.072 0 00.243-1.633c0-5.017-6.858-9.068-15.295-9.068-8.436 0-15.295 4.05-15.295 9.068 0 .544.061 1.088.243 1.632z" fill="#fff"/><path d="M40.237 2l.468-.884-.468-.248-.468.248.468.884zM2 22.251l-.468-.883L1 21.65v.601h1zm76.474 0h1v-.602l-.532-.281-.468.883zm0 6.166l.515.858.485-.292v-.566h-1zM40.237 51.39l-.515.857.515.31.515-.31-.515-.857zM2 28.417H1v.566l.485.292.515-.857zm37.934 22.126l-.515.857 1.515.91v-1.767h-1zM2.607 28.115h-1v.566l.485.291.515-.857zm37.327 17.29h1v-.566l-.485-.292-.515.858zM2.607 22.977l.515-.857-1.515-.91v1.767h1zm.303-.484l-.469-.883-1.561.83 1.515.91.515-.857zM40.237 2.665l.468-.884-.468-.248-.469.249.47.883zm0 42.256l-.515.857.516.31.515-.31-.516-.857zm37.327-22.488l.516.856 1.515-.912-1.563-.828-.468.884zm.304 5.682l.514.858.486-.292v-.566h-1zM40.54 50.543h-1v1.767l1.515-.91-.515-.857zm37.327-27.566h1v-1.768l-1.515.91.515.858zM40.54 45.405l-.515-.858-.485.292v.566h1zM25.489 24.85l-.908-.42-.193.416.19.418.91-.414zm29.497 0l.91.414.19-.418-.193-.416-.907.42zm-29.8-.786l-.95.318.714 2.132 1.106-1.958-.87-.492zm30.103 0l-.87.492 1.105 1.958.714-2.132-.949-.318zM39.77 1.116L1.532 21.368l.936 1.767L40.705 2.884l-.936-1.768zm39.173 20.252L40.705 1.116l-.936 1.768 38.237 20.251.936-1.767zm.532 7.05V22.25h-2v6.166h2zM40.752 52.245L78.99 29.275l-1.03-1.715-38.237 22.972 1.03 1.715zM1.485 29.275l38.237 22.971 1.03-1.714L2.515 27.56l-1.03 1.715zM1 22.25v6.166h2v-6.166H1zm39.449 27.435L3.122 27.258l-1.03 1.715L39.419 51.4l1.03-1.714zm-1.515-4.281v5.138h2v-5.138h-2zM2.092 23.834l37.327 22.428 1.03-1.715L3.122 22.12l-1.03 1.714zm1.515 4.281v-5.138h-2v5.138h2zm-.227-4.739L40.706 3.548l-.938-1.766L2.441 21.61l.939 1.766zm37.372 20.688L3.425 21.636l-1.03 1.714 37.327 22.428 1.03-1.714zm36.296-22.488L39.721 44.064l1.032 1.714L78.08 23.289l-1.032-1.713zM39.769 3.55l37.327 19.768.936-1.768L40.705 1.781 39.77 3.55zm37.584 23.71L40.026 49.685l1.03 1.714 37.326-22.427-1.03-1.715zm-.485-4.282v5.138h2v-5.138h-2zM41.056 46.262l37.326-22.428-1.03-1.714-37.326 22.427 1.03 1.715zm.485 4.281v-5.138h-2v5.138h2zM40.237 11.76c-4.524 0-8.685 1.124-11.748 2.987-3.042 1.85-5.154 4.54-5.154 7.685h2c0-2.174 1.47-4.32 4.194-5.977 2.703-1.643 6.493-2.695 10.708-2.695v-2zM57.14 22.432c0-3.145-2.111-5.835-5.154-7.685-3.062-1.863-7.224-2.987-11.748-2.987v2c4.216 0 8.006 1.052 10.71 2.695 2.722 1.656 4.192 3.803 4.192 5.977h2zM40.237 33.104c4.554 0 8.716-1.124 11.772-2.987 3.038-1.852 5.13-4.543 5.13-7.685h-2c0 2.178-1.458 4.323-4.171 5.977-2.695 1.643-6.484 2.695-10.73 2.695v2zM23.335 22.432c0 3.142 2.093 5.833 5.13 7.685 3.057 1.863 7.219 2.987 11.772 2.987v-2c-4.247 0-8.036-1.052-10.73-2.695-2.713-1.654-4.172-3.8-4.172-5.977h-2zm16.902 8.128c-3.392 0-6.494-.685-8.935-1.812-2.458-1.134-4.156-2.67-4.903-4.312l-1.82.828c1.013 2.228 3.169 4.047 5.885 5.3 2.732 1.261 6.125 1.996 9.773 1.996v-2zm13.839-6.124c-.747 1.641-2.445 3.178-4.903 4.312-2.442 1.127-5.544 1.812-8.936 1.812v2c3.649 0 7.041-.735 9.774-1.996 2.716-1.253 4.872-3.072 5.885-5.3l-1.82-.828zM40.237 19.14c3.332 0 6.42.67 8.87 1.791 2.467 1.128 4.196 2.666 4.972 4.34l1.814-.841c-1.045-2.256-3.23-4.073-5.954-5.318-2.739-1.252-6.115-1.972-9.702-1.972v2zm-13.841 6.13c.776-1.673 2.505-3.211 4.97-4.339 2.451-1.12 5.54-1.791 8.871-1.791v-2c-3.587 0-6.963.72-9.702 1.972-2.723 1.245-4.909 3.062-5.954 5.318l1.815.84zm13.841-8.735c-3.553 0-6.907.689-9.678 1.898-2.759 1.203-5.012 2.957-6.245 5.14l1.742.983c.952-1.687 2.796-3.197 5.303-4.29 2.494-1.089 5.573-1.73 8.878-1.73v-2zm15.923 7.038c-1.232-2.183-3.485-3.937-6.244-5.14-2.771-1.21-6.126-1.898-9.679-1.898v2c3.306 0 6.385.642 8.879 1.73 2.506 1.094 4.35 2.604 5.303 4.291l1.741-.983zm-1.628-1.14c0 .468-.052.9-.19 1.314l1.896.635c.225-.674.294-1.331.294-1.95h-2zm-14.295-8.069c4.07 0 7.712.98 10.302 2.513 2.611 1.547 3.993 3.542 3.993 5.555h2c0-3.004-2.047-5.543-4.974-7.276-2.949-1.746-6.955-2.792-11.32-2.792v2zm-14.295 8.068c0-2.013 1.382-4.008 3.994-5.555 2.59-1.533 6.23-2.513 10.301-2.513v-2c-4.366 0-8.372 1.046-11.32 2.792-2.927 1.733-4.975 4.272-4.975 7.276h2zm.192 1.315a4.08 4.08 0 01-.192-1.315h-2c0 .619.07 1.276.295 1.95l1.897-.635z" fill="#fff" mask="url(#ada)"/></svg><svg fill="none" viewBox="0 0 24 24" id="icon-basket" xmlns="http://www.w3.org/2000/svg"><path d="M7 19a1.25 1.25 0 100 2.5A1.25 1.25 0 007 19zm11 0a1.25 1.25 0 100 2.5 1.25 1.25 0 000-2.5zm0-1v-1H7.48L7 14.86l13-2.5V5H4.5L4 3H1v1h2.22L6.7 18H18z" fill="#fff"/></svg><svg fill="none" viewBox="0 0 11 8" id="icon-checkbox" xmlns="http://www.w3.org/2000/svg"><path fill-rule="evenodd" clip-rule="evenodd" d="M10.397.795c.35.272.395.754.1 1.077L5.556 7.267a.856.856 0 01-.576.27.875.875 0 01-.611-.193L.585 4.234a.722.722 0 01-.067-1.08.88.88 0 011.172-.06L4.837 5.68 9.228.887a.88.88 0 011.17-.092z" fill="#fff"/></svg><svg fill="none" viewBox="0 0 33 33" id="icon-close" xmlns="http://www.w3.org/2000/svg"><path fill="#C2CCE4" d="M7.779 24.279l16.5-16.5.942.943-16.5 16.5z"/><path fill="#C2CCE4" d="M8.721 7.779l16.5 16.5-.943.942-16.5-16.5z"/></svg><svg fill="none" viewBox="0 0 22 21" id="icon-comparison" xmlns="http://www.w3.org/2000/svg"><path fill-rule="evenodd" clip-rule="evenodd" d="M11.363 6.029l4.714-4.64L14.666 0 8.54 6.029l6.125 6.028 1.41-1.389-4.713-4.64z" fill="#fff"/><path fill-rule="evenodd" clip-rule="evenodd" d="M10.048 5.023H21.1v2.01H10.048v-2.01zM9.738 14.067l-4.714-4.64 1.41-1.389 6.126 6.029-6.126 6.028-1.41-1.389 4.714-4.64z" fill="#fff"/><path fill-rule="evenodd" clip-rule="evenodd" d="M11.052 15.072H0v-2.01h11.052v2.01z" fill="#fff"/></svg><svg fill="none" viewBox="0 0 76 46" id="icon-delivery" xmlns="http://www.w3.org/2000/svg"><g clip-path="url(#aiclip0)" fill="#fff"><path d="M72.833 41.192h-4.908c-.95 0-1.583-.641-1.583-1.603 0-1.763-1.425-3.205-3.167-3.205-1.742 0-3.167 1.442-3.167 3.205 0 .962-.633 1.603-1.583 1.603h-6.65c-.95 0-1.583-.641-1.583-1.603V11.38c0-.962.633-1.603 1.583-1.603h11.558c1.267 0 2.534.481 3.484 1.443l8.075 8.495c.791.961 1.266 2.083 1.266 3.366v14.905c-.158 1.764-1.583 3.206-3.325 3.206zm-3.641-3.206h3.641V23.081c0-.481-.158-.802-.475-1.122l-8.075-8.495c-.316-.32-.791-.481-1.108-.481H53.2v25.003h3.642c.633-2.724 3.166-4.808 6.175-4.808 3.008 0 5.541 1.923 6.175 4.808z"/><path d="M67.925 28.69H57.95c-.95 0-1.583-.64-1.583-1.603v-9.296c0-.961.633-1.602 1.583-1.602h3.8c.475 0 .792.16 1.108.48l6.175 6.572c.317.32.475.64.475 1.122v2.724c0 .962-.633 1.603-1.583 1.603zm-8.233-3.205H66.5v-.481l-5.383-5.61h-1.425v6.09zM14.092 46c-3.484 0-6.334-2.885-6.334-6.411s2.85-6.411 6.334-6.411c3.483 0 6.333 2.885 6.333 6.41 0 3.527-2.85 6.412-6.333 6.412zm0-9.777c-1.742 0-3.167 1.443-3.167 3.206s1.425 3.205 3.167 3.205c1.741 0 3.166-1.442 3.166-3.205 0-1.603-1.425-3.206-3.166-3.206zM63.017 46c-3.484 0-6.334-2.885-6.334-6.411s2.85-6.411 6.334-6.411c3.483 0 6.333 2.885 6.333 6.41 0 3.527-2.85 6.412-6.333 6.412zm0-9.777c-1.742 0-3.167 1.443-3.167 3.206s1.425 3.205 3.167 3.205c1.741 0 3.166-1.442 3.166-3.205.159-1.603-1.425-3.206-3.166-3.206z"/><path d="M51.617 41.192H18.842c-.95 0-1.584-.641-1.584-1.603 0-1.763-1.425-3.206-3.166-3.206-1.742 0-3.167 1.443-3.167 3.206 0 .962-.633 1.603-1.583 1.603H3.167C1.425 41.192 0 39.749 0 37.986V27.087c0-.962.633-1.603 1.583-1.603h50.034c.95 0 1.583.641 1.583 1.603V39.59c0 .801-.633 1.603-1.583 1.603zm-31.35-3.206h29.766V28.69H3.167v9.296h4.75c.633-2.725 3.166-4.808 6.175-4.808 3.008-.16 5.383 1.923 6.175 4.808z"/><path d="M51.617 28.69H1.583C.633 28.69 0 28.049 0 27.087V4.808C0 2.084 2.217 0 4.75 0h43.7c2.692 0 4.75 2.244 4.75 4.808v22.28c0 .96-.633 1.602-1.583 1.602zm-48.45-3.206h46.866V4.808c0-.961-.791-1.602-1.583-1.602H4.75c-.792 0-1.583.801-1.583 1.602v20.676z"/><path d="M18.05 12.502H1.583C.633 12.502 0 11.86 0 10.899c0-.962.633-1.603 1.583-1.603H18.05c.95 0 1.583.641 1.583 1.603 0 .961-.633 1.603-1.583 1.603zM13.3 18.913H1.583C.633 18.913 0 18.27 0 17.31c0-.962.633-1.603 1.583-1.603H13.3c.95 0 1.583.641 1.583 1.603s-.633 1.603-1.583 1.603z"/></g><defs><clipPath id="aiclip0"><path fill="#fff" d="M0 0h76v46H0z"/></clipPath></defs></svg><svg fill="none" viewBox="0 0 10 10" id="icon-discount" xmlns="http://www.w3.org/2000/svg"><path d="M4.099 3.918c-.444.424-.999.636-1.665.636-.665 0-1.225-.217-1.678-.65a2.126 2.126 0 01-.665-1.582C.09 1.7.313 1.172.756.74 1.21.307 1.77.09 2.434.09 3.1.09 3.654.308 4.1.74c.443.424.665.951.665 1.582 0 .631-.222 1.163-.665 1.596zM.743 9.747L7.552.28h1.705L2.434 9.747H.743zm1.054-6.803a.858.858 0 00.624.244c.25 0 .457-.081.624-.244a.86.86 0 00.25-.622.815.815 0 00-.25-.608.858.858 0 00-.624-.244.858.858 0 00-.624.244.84.84 0 00-.236.608c0 .244.078.451.236.622zM7.579 9.91c-.665 0-1.225-.216-1.678-.65a2.126 2.126 0 01-.665-1.581c0-.622.222-1.15.665-1.583.453-.432 1.013-.649 1.678-.649.657 0 1.207.217 1.65.65.454.432.68.96.68 1.582 0 .622-.227 1.15-.68 1.582-.443.433-.993.649-1.65.649zm-.638-1.61a.858.858 0 00.624.244c.25 0 .458-.086.624-.257a.844.844 0 00.25-.608.815.815 0 00-.25-.609.834.834 0 00-.624-.257.84.84 0 00-.86.866c0 .243.08.45.236.622z" fill="#fff"/></svg><svg fill="none" viewBox="0 0 80 72" id="icon-edging" xmlns="http://www.w3.org/2000/svg"><path d="M76.07 34.63L56.417 46.285c-1.227-5.005.264-9.996 3.957-13.05l6.12-3.631 9.576 5.026zM40.256 57.618l15.209-9.049c.092.26.202.503.307.736l.026.056c-1.538 3.463-1.623 7.49-.162 11.381C57.571 65.953 62.99 71.5 72.21 71.5H73.01V57.874H72.21c-7.676 0-12.428-4.113-14.637-8.443.795-1.457 1.8-2.796 3.107-3.928l17.575-10.41.245-.146V21.436l-.27-.14-37.879-19.68h0l-.01-.005-.12-.06-.227-.111-.224.116-38 19.74-.27.14V34.947l.245.145 38 22.526.256.152.255-.152zm16.55-6.316c2.59 4.184 7.375 7.884 14.602 8.152v10.559c-7.961-.309-12.582-5.201-14.293-9.74v-.002c-1.148-3.026-1.219-6.178-.31-8.968zm-1.892-4.187l-14.112 8.366V44.905l15.44-9.219c-1.92 3.331-2.435 7.415-1.328 11.429zm21.983-13.93l-8.791-4.598 8.79-5.255v9.853zm-12.044-4.482L40 43.506 15.147 28.703 40 15.665l24.853 13.038zM40.802 3.653L76.07 22.008l-9.606 5.74-25.662-13.482V3.654zM3.93 22.008L39.198 3.654v10.61L13.536 27.748l-9.606-5.74zm-.827 1.325l8.791 5.255-8.79 4.598v-9.853zm36.095 32.09L3.934 34.513l9.57-4.97 25.694 15.302v10.575z" fill="#fff" stroke="#fff"/></svg><svg fill="none" viewBox="0 0 20 16" id="icon-email" xmlns="http://www.w3.org/2000/svg"><path d="M0 3.32V16h20V3.32L10 9.1 0 3.32zM0 0v2.17l10 5.77 10-5.77V0H0z" fill="#FF7826"/></svg><svg fill="none" viewBox="0 0 32 31" id="icon-empty-star" xmlns="http://www.w3.org/2000/svg"><path d="M30.904 11.486a.5.5 0 01.292.906l-8.025 5.788a1.5 1.5 0 00-.548 1.684l3.074 9.37a.5.5 0 01-.768.562l-8.052-5.807a1.5 1.5 0 00-1.754 0L7.07 29.796a.5.5 0 01-.768-.561l3.074-9.37a1.5 1.5 0 00-.548-1.685L.804 12.392a.5.5 0 01.292-.906h9.934a1.5 1.5 0 001.426-1.034l3.069-9.389a.5.5 0 01.95 0l3.07 9.39a1.5 1.5 0 001.425 1.033h9.934z" stroke="#CACACA"/></svg><svg fill="none" viewBox="0 0 18 11" id="icon-filter-dropdown" xmlns="http://www.w3.org/2000/svg"><path d="M16 1.183l-7 7-7-7" stroke="#111" stroke-width="3"/></svg><svg fill="none" viewBox="0 0 56 57" id="icon-interior" xmlns="http://www.w3.org/2000/svg"><path fill-rule="evenodd" clip-rule="evenodd" d="M1.806.317h52.387c.997 0 1.807.81 1.807 1.807V3.93c0 .997-.81 1.807-1.806 1.807v50.58H1.806V5.737C.81 5.737 0 4.927 0 3.93V2.124C0 1.128.81.317 1.806.317zM5.42 29.221V5.737H3.613V29.22h1.806zm41.549-7.226v7.226h1.806V18.38H21.677v10.84h9.033v-7.226h16.258zM32.516 29.22h12.645V23.8H32.516v5.42zm-19.87-10.84h-5.42v10.84h5.42V18.38zm-1.807-5.418v.903a2.713 2.713 0 002.71 2.71h3.612a2.713 2.713 0 002.71-2.71v-.903h-9.032zm4.516-3.613a.904.904 0 100 1.807.904.904 0 000-1.807zm1.806 9.032h-2.71V29.22h5.42V18.38h-2.71zm17.162-5.42v.904a2.713 2.713 0 002.71 2.71h3.612a2.713 2.713 0 002.71-2.71v-.903h-9.032zm4.516-3.612a.904.904 0 100 1.807.904.904 0 000-1.807zm5.396 7.225h4.54V5.737H28.902v10.838h4.54a4.47 4.47 0 01-.927-2.71v-2.709h3.78a2.68 2.68 0 01-.167-.903 2.713 2.713 0 012.71-2.71 2.713 2.713 0 012.71 2.71c0 .318-.066.62-.167.903h3.78v2.71a4.47 4.47 0 01-.927 2.71zm-18.945 0h1.807V5.737H25.29v10.838zm-4.54 0h2.734V5.737H7.226v10.838h2.733a4.47 4.47 0 01-.927-2.71v-2.709h3.78a2.68 2.68 0 01-.167-.903 2.713 2.713 0 012.71-2.71 2.713 2.713 0 012.71 2.71c0 .318-.066.62-.167.903h3.78v2.71a4.47 4.47 0 01-.927 2.71zm-2.686 37.936h9.033V35.543a.904.904 0 00-.904-.903h-8.129v9.032h3.613v1.807h-3.613v9.032zm-5.419-9.032v-1.807h3.613V34.64H8.13a.904.904 0 00-.903.903v18.968h9.032v-9.032h-3.613zm30.71-10.839h-5.42v.903c0 .499.405.903.904.903h3.613a.903.903 0 00.903-.903v-.903zm-.903 3.613h-3.613a2.713 2.713 0 01-2.71-2.71v-.903h-2.71a.904.904 0 00-.903.903v4.516h16.258v-4.516a.904.904 0 00-.903-.903h-2.71v.903a2.713 2.713 0 01-2.71 2.71zm.903 3.613h-5.42v.903c0 .499.405.903.904.903h3.613a.903.903 0 00.903-.903v-.903zm-7.226.903v-.903h-3.613v5.42h16.258v-5.42h-3.613v.903a2.713 2.713 0 01-2.71 2.71H38.84a2.713 2.713 0 01-2.71-2.71zm7.226 6.323h-5.42v.903c0 .498.405.903.904.903h3.613a.903.903 0 00.903-.903v-.903zm-7.226.903v-.903h-3.613v5.419h16.258v-5.42h-3.613v.904a2.713 2.713 0 01-2.71 2.71H38.84a2.713 2.713 0 01-2.71-2.71zm14.452-14.452v18.968h1.806V31.027H3.613v23.484h1.806V35.543a2.713 2.713 0 012.71-2.71h18.065a2.713 2.713 0 012.71 2.71v18.968h1.806V35.543a2.713 2.713 0 012.71-2.71H47.87a2.713 2.713 0 012.71 2.71zm0-6.322h1.806V5.737h-1.806V29.22zM1.806 2.124V3.93h52.39l-.002-1.806H1.806zm32.517 23.482h1.806v1.807h-1.806v-1.807zm9.032 0h-1.807v1.807h1.807v-1.807zm-5.42 0h1.807v1.807h-1.806v-1.807zm-27.096 0H9.032v1.807h1.807v-1.807zm5.42-5.419h1.805v7.226h-1.806v-7.226z" fill="#fff"/></svg><svg fill="none" viewBox="0 0 80 69" id="icon-ldsp" xmlns="http://www.w3.org/2000/svg"><path d="M78.223 28.784l.277-.138V21.843l-.266-.141L40.416 1.619l-.038-.02-.04-.013-.18-.06-.203-.068-.19.1-38 20.144-.265.14V28.56l.242.146L9.49 33.36l-7.723 4.096-.266.14v6.777l.242.146 37.81 22.783.171.114.264.175.27-.163L78.12 44.65l.103-.052.277-.138V37.657l-.266-.141-7.724-4.096 7.61-4.585.103-.05zm-75.12-1.092v-3.944l11.518 6.91-3.44 1.854-8.078-4.82zm65.716 4.82l-3.44-1.854 11.518-6.91v3.944l-8.078 4.82zm-57.725 1.811l28.458 17.105.171.114.264.175.27-.163 28.65-17.23 7.176 3.84L40 59.861 3.917 38.163l7.177-3.84zm28.104 11.133v3.943L12.78 33.472l3.441-1.854 22.977 13.838zM67.22 33.471L40.802 49.4v-3.944l22.977-13.837 3.44 1.854zm-27.16-14.43l22.146 11.727L40 44.11 17.913 30.77 40.06 19.041zm-36.083 3.37L40.001 3.227l36.08 19.124-12.332 7.455-23.334-12.374h0l-.011-.006-.12-.06-.231-.115-.227.12L16.31 29.867 3.977 22.41zm-.874 17.151L39.198 61.27v3.944L3.103 43.507v-3.944zm37.699 25.65V61.27l36.095-21.707v3.944L40.802 65.214z" fill="#fff" stroke="#fff"/></svg><svg fill="none" viewBox="0 0 13 17" id="icon-location" xmlns="http://www.w3.org/2000/svg"><path d="M5.878 16.45L6.5 17l.622-.55C7.364 16.238 13 11.174 13 6.421a6.383 6.383 0 00-1.904-4.541A6.54 6.54 0 006.5 0a6.54 6.54 0 00-4.596 1.881A6.383 6.383 0 000 6.422c0 4.752 5.636 9.816 5.878 10.027zM6.5 5.046c.275 0 .545.08.774.232a1.36 1.36 0 01.211 2.117 1.398 1.398 0 01-1.518.298 1.39 1.39 0 01-.625-.506 1.364 1.364 0 01.173-1.738c.261-.258.616-.403.985-.403z" fill="#FF7826"/></svg><svg fill="none" viewBox="0 0 32 37" id="icon-notification" xmlns="http://www.w3.org/2000/svg"><path d="M30.192 24.13a4.84 4.84 0 01-1.392-3.394V12.87c0-3.414-1.349-6.687-3.749-9.1A12.765 12.765 0 0016 0c-3.395 0-6.65 1.356-9.051 3.77a12.905 12.905 0 00-3.749 9.1v7.866a4.84 4.84 0 01-1.392 3.394L0 25.964v4.601h32v-4.6l-1.808-1.835zM16 37a4.099 4.099 0 002.56-.906A4.137 4.137 0 0020 33.783h-8a4.137 4.137 0 001.44 2.311A4.099 4.099 0 0016 37z" fill="#FF891C"/></svg><svg fill="none" viewBox="0 0 11 13" id="icon-personal-area" xmlns="http://www.w3.org/2000/svg"><path d="M5.5 5.474a2.76 2.76 0 001.528-.461 2.725 2.725 0 00.417-4.21A2.754 2.754 0 004.448.207a2.747 2.747 0 00-1.235 1.008 2.727 2.727 0 00.342 3.456 2.757 2.757 0 001.945.802zm5.3 4.242a7.526 7.526 0 00-5.3-2.18 7.526 7.526 0 00-5.3 2.18L0 9.92v3.08h11V9.92l-.2-.205z" fill="#FF711C"/></svg><svg fill="none" viewBox="0 0 17 17" id="icon-phone" xmlns="http://www.w3.org/2000/svg"><path d="M.678 5.183a14.63 14.63 0 0011.14 11.139 3.53 3.53 0 004.068-2.415l.404-1.266-3.958-1.972-1.885 1.884a11.875 11.875 0 01-3.602-2.414A11.875 11.875 0 014.47 6.537l1.86-1.884L4.36.694l-1.267.404A3.53 3.53 0 00.678 5.183z" fill="#FF7826"/></svg><svg fill="none" viewBox="0 0 56 57" id="icon-play" xmlns="http://www.w3.org/2000/svg"><path d="M28.204 5.605a23.081 23.081 0 00-12.818 3.887 23.05 23.05 0 00-3.496 35.48 23.076 23.076 0 0025.143 5 23.07 23.07 0 0010.355-8.494A23.052 23.052 0 0037.033 7.36a23.083 23.083 0 00-8.829-1.756zm0 44.968A21.926 21.926 0 017.954 37.05a21.897 21.897 0 014.751-23.875 21.922 21.922 0 0123.887-4.749 21.917 21.917 0 019.837 8.069 21.9 21.9 0 013.694 12.171 21.925 21.925 0 01-6.427 15.484 21.948 21.948 0 01-15.492 6.424zm-4.338-14.989l12.09-6.918-12.09-6.918v13.836zm1.039-12.176l8.975 5.258-8.975 5.189V23.408z" fill="#2E2E2E" stroke="#2E2E2E"/></svg><svg fill="none" viewBox="0 0 75 54" id="icon-question" xmlns="http://www.w3.org/2000/svg"><path fill-rule="evenodd" clip-rule="evenodd" d="M33.745.116h33.967a7.226 7.226 0 012.621.474 6.873 6.873 0 012.226 1.38 6.378 6.378 0 011.49 2.074c.346.777.525 1.61.526 2.451v17.238c0 3.55-3.073 6.474-6.863 6.474h-.569l.036 9.49c.01 2.62-1.454 3.11-3.252 1.102l-9.51-10.592H33.745c-3.791 0-6.863-2.924-6.863-6.474V6.495c0-.841.18-1.674.525-2.45a6.38 6.38 0 011.49-2.075A6.874 6.874 0 0131.123.59a7.227 7.227 0 012.622-.474zM9.035 51.471v-7.065C4.053 44.09 0 40.121 0 35.378V18.75c0-4.946 4.405-8.867 9.676-8.867H21.86v13.57c0 6.092 5.458 11.178 11.95 11.178h18.654v.746c0 4.945-4.372 9.1-9.64 9.1H19.527L12.3 52.602c-1.796 2.022-3.265 1.5-3.265-1.132z" fill="#FF891C"/></svg><svg fill="none" viewBox="0 0 35 35" id="icon-saw" xmlns="http://www.w3.org/2000/svg"><path d="M.29 16.588c-.228-.494-.343-1.33-.267-1.862l.229-1.253c.114-.532.494-.608.836-.19l.343.456c.342.418.57.342.57-.19l-.076-3.495c0-.532.19-1.33.495-1.786l.722-1.064c.305-.418.685-.342.837.152l.152.57c.152.532.418.532.609.038l1.255-3.267c.19-.494.684-1.178 1.14-1.482l1.066-.722c.456-.266.76-.076.684.456l-.076.57c-.076.532.19.646.533.266l2.434-2.508c.38-.38 1.103-.798 1.597-.95l1.255-.266c.533-.076.723.228.457.684l-.304.494c-.267.456-.077.646.418.456L18.394.29c.494-.228 1.331-.342 1.864-.266l1.255.228c.57.19.646.57.19.912l-.457.342c-.418.342-.342.57.19.57l3.5-.076c.532 0 1.33.19 1.787.494l1.065.722c.418.304.342.684-.152.836l-.57.152c-.533.152-.533.418-.038.607l3.27 1.254c.495.19 1.18.684 1.484 1.14l.722 1.064c.267.456.076.76-.456.684l-.57-.076c-.533-.076-.647.19-.267.532l2.51 2.431c.38.38.8 1.102.951 1.596l.267 1.254c.076.531-.229.721-.685.456l-.495-.304c-.494-.266-.684-.076-.456.417l1.407 3.192c.228.494.343 1.33.267 1.861l-.229 1.254c-.152.494-.532.57-.874.152l-.343-.456c-.342-.418-.57-.342-.57.19l.076 3.495c0 .532-.19 1.33-.495 1.786l-.684 1.064c-.305.418-.685.342-.837-.152l-.152-.57c-.152-.532-.418-.532-.609-.038l-1.255 3.267c-.19.494-.684 1.178-1.14 1.482l-1.066.722c-.456.266-.76.076-.684-.456l.076-.57c.076-.532-.19-.646-.533-.266l-2.434 2.508c-.38.38-1.103.798-1.597.95l-1.255.266c-.533.075-.723-.228-.457-.684l.304-.494c.267-.456.076-.646-.418-.456l-3.195 1.406c-.494.228-1.331.342-1.864.266l-1.255-.228c-.532-.114-.608-.494-.19-.836l.457-.342c.418-.342.342-.57-.19-.57l-3.5.076c-.532 0-1.33-.19-1.787-.494l-1.065-.722c-.419-.304-.342-.684.152-.836l.57-.152c.533-.152.533-.418.039-.608l-3.271-1.253c-.495-.19-1.18-.684-1.484-1.14l-.722-1.064c-.267-.456-.076-.76.456-.684l.57.076c.533.076.647-.19.267-.532l-2.51-2.431c-.38-.38-.8-1.102-.951-1.596l-.266-1.254c-.077-.532.228-.721.684-.456l.495.304c.456.266.646.076.456-.418L.29 16.588zm17.229 2.66c.95 0 1.75-.798 1.75-1.748s-.8-1.748-1.75-1.748-1.75.798-1.75 1.748c0 .988.761 1.748 1.75 1.748z" fill="#fff"/></svg><svg fill="none" viewBox="0 0 20 20" id="icon-schedule" xmlns="http://www.w3.org/2000/svg"><path d="M10 0a10 10 0 100 20 10 10 0 000-20zm4.67 10.79h-5.5v-6.5h1v5.5h4.5v1z" fill="#FF7826"/></svg><svg fill="none" viewBox="0 0 21 21" id="icon-sort-01" xmlns="http://www.w3.org/2000/svg"><path fill="#FF711C" d="M0 0h8.816v8.816H0zM11.755 0h8.816v8.816h-8.816zM0 11.755h8.816v8.816H0zM11.755 11.755h8.816v8.816h-8.816z"/></svg><svg fill="none" viewBox="0 0 23 21" id="icon-sort-02" xmlns="http://www.w3.org/2000/svg"><path d="M0 2h5M8 2h15M0 8h5M8 8h15M0 13h5M8 13h15M0 19h5M8 19h15" stroke="#FF711C" stroke-width="3"/></svg><svg fill="none" viewBox="0 0 21 21" id="icon-sort-03" xmlns="http://www.w3.org/2000/svg"><path d="M0 2h21M0 8h21M0 13h21M0 19h21" stroke="#FF711C" stroke-width="3"/></svg><svg fill="none" viewBox="0 0 24 23" id="icon-star" xmlns="http://www.w3.org/2000/svg"><path d="M24 8.72h-9.17L12 0 9.17 8.72H0l7.42 5.39-2.84 8.72L12 17.44l7.42 5.39-2.84-8.72L24 8.72z" fill="#fff"/></svg></svg>